<?xml version="1.0" standalone="no"?>
<!DOCTYPE svg PUBLIC "-//W3C//DTD SVG 20010904//EN"
 "http://www.w3.org/TR/2001/REC-SVG-20010904/DTD/svg10.dtd">
<svg version="1.0" xmlns="http://www.w3.org/2000/svg"
 width="700.000000pt" height="700.000000pt" viewBox="0 0 700.000000 700.000000"
 preserveAspectRatio="xMidYMid meet">
<metadata>
Created by potrace 1.14, written by Peter Selinger 2001-2017
</metadata>
<g transform="translate(0.000000,700.000000) scale(0.100000,-0.100000)"
fill="#000000" stroke="none">
<path d="M3328 6995 c-1 -1 -36 -6 -76 -9 -40 -4 -78 -9 -85 -11 -7 -2 -35 -6
-64 -9 -97 -11 -264 -47 -356 -77 -174 -57 -388 -171 -472 -254 -21 -20 -59
-47 -84 -60 -54 -27 -285 -260 -384 -388 -181 -232 -248 -397 -306 -760 -45
-274 -47 -395 -15 -742 3 -27 7 -57 9 -65 2 -8 7 -35 10 -60 4 -25 15 -81 25
-125 10 -45 21 -92 23 -105 3 -14 19 -89 37 -168 20 -91 29 -153 25 -170 l-7
-27 -11 35 -12 35 -65 1 c-144 3 -162 -22 -164 -215 0 -69 3 -153 7 -186 30
-232 80 -467 138 -638 71 -211 163 -333 305 -402 41 -20 81 -46 88 -58 8 -12
51 -137 96 -277 45 -140 99 -307 121 -370 21 -63 42 -135 45 -160 3 -25 14
-90 23 -146 19 -110 18 -177 -3 -209 -8 -11 -34 -31 -59 -44 -79 -41 -147
-121 -215 -256 -63 -125 -89 -252 -90 -444 -1 -140 -7 -164 -46 -200 l-26 -25
87 -43 c153 -77 551 -225 718 -266 52 -13 197 -36 260 -42 50 -4 142 -28 156
-42 14 -12 88 -14 485 -12 l469 2 115 28 c63 16 129 31 145 34 17 3 59 13 95
21 36 9 74 17 85 20 66 13 75 16 69 26 -4 7 -2 8 5 4 18 -12 58 1 82 27 12 12
19 16 15 9 -4 -6 -3 -12 2 -12 10 0 249 92 299 115 17 8 34 15 37 15 16 0 372
153 404 174 99 63 117 135 77 310 -43 189 -96 318 -168 408 -59 75 -101 112
-195 171 l-82 52 5 223 c3 173 2 221 -8 215 -8 -4 -8 -1 1 10 25 30 147 479
187 685 2 11 13 42 25 70 17 38 26 49 39 45 26 -7 96 31 137 75 137 143 224
349 310 732 38 166 47 226 49 318 2 117 -12 219 -40 272 -18 35 -62 60 -105
60 -35 0 -86 -23 -93 -42 -4 -10 -6 -10 -6 0 -1 6 -8 12 -16 12 -18 0 -19 -5
6 59 18 50 71 268 83 351 20 129 27 414 13 570 -11 120 -15 173 -22 268 -10
135 -30 238 -66 345 -35 102 -191 401 -241 462 -9 11 -51 67 -93 124 -85 114
-160 191 -280 285 -70 54 -177 126 -189 126 -6 0 -118 52 -279 128 -67 32
-138 66 -158 75 -37 17 -126 42 -189 52 -19 3 -84 17 -145 30 -60 13 -126 26
-145 30 -36 7 -345 16 -352 10z m1342 -1646 c17 -13 18 -17 5 -10 -33 17 -51
31 -40 31 6 0 21 -10 35 -21z m-2380 -1203 c0 -2 -8 -10 -17 -17 -16 -13 -17
-12 -4 4 13 16 21 21 21 13z m1140 -246 c0 -5 -5 -10 -11 -10 -5 0 -7 5 -4 10
3 6 8 10 11 10 2 0 4 -4 4 -10z m-582 -55 c-3 -3 -9 2 -12 12 -6 14 -5 15 5 6
7 -7 10 -15 7 -18z m582 -19 c0 -3 -4 -8 -10 -11 -5 -3 -10 -1 -10 4 0 6 5 11
10 11 6 0 10 -2 10 -4z m-893 -40 c0 -8 -6 -12 -15 -9 -11 5 -11 7 0 14 7 5
13 9 14 9 0 0 1 -6 1 -14z m2610 -18 c-3 -8 -6 -5 -6 6 -1 11 2 17 5 13 3 -3
4 -12 1 -19z m-1017 -660 c0 -11 -12 -10 -30 2 -12 7 -10 9 8 7 12 0 22 -5 22
-9z"/>
</g>
</svg>
