<?xml version="1.0" encoding="utf-8"?>
<svg viewBox="0 0 500 500" xmlns="http://www.w3.org/2000/svg">
  <g transform="matrix(1.045361042022705, 0, 0, 1.045361042022705, -8.685401916503906, -10.94840145111084)">
    <path fill="#F8D0B7" opacity="1.000000" stroke="none" d="M 158.204 386.819 C 157.16 380.258 156.273 373.667 155 367.151 C 154.43 364.232 153.025 361.485 152.104 358.625 C 147.736 345.07 143.461 331.483 138.991 317.961 C 138.403 316.182 137.21 313.74 135.745 313.249 C 122.852 308.923 116.356 299.318 111.916 287.1 C 106.07 271.012 103.11 254.4 101.164 237.551 C 100.539 232.133 100.655 226.544 101.165 221.102 C 101.812 214.204 103.804 212.778 110.594 212.776 C 112.425 212.776 114.257 212.773 116.587 213.051 C 117.357 214.797 117.629 216.263 117.921 218.102 C 118.681 219.293 119.267 220.495 120.186 220.861 C 124.11 222.424 125.55 225.547 125.984 229.377 C 126.338 232.498 126.571 235.633 126.88 238.76 C 127.399 243.993 127.935 249.223 128.464 254.455 C 128.93 254.445 129.397 254.435 129.863 254.425 C 129.969 252.722 130.079 251.019 130.18 249.315 C 130.532 243.373 130.702 237.41 131.37 231.503 C 131.516 230.217 133.441 229.131 134.547 227.953 C 135.684 229.278 136.948 230.519 137.895 231.968 C 138.277 232.552 137.983 233.593 137.96 234.424 C 137.607 247.012 141.696 257.907 149.364 267.939 C 167.958 292.265 207.046 290.697 222.165 259.49 C 224.467 254.739 227.225 249.558 227.336 244.522 C 227.638 230.818 224.722 230.119 240.132 227.042 C 240.449 226.979 240.794 227.048 241.313 227.41 C 241.691 229.565 242.072 231.368 242.042 233.164 C 241.759 250.605 241.028 268.048 241.186 285.484 C 241.333 301.723 242.482 317.952 243.033 334.19 C 243.243 340.365 242.114 341.217 236.458 338.372 C 230.098 335.174 224.723 335.802 218.828 339.698 C 213.719 343.074 208.947 347.835 201.796 346.906 C 200.692 346.762 199.372 348.284 198.151 349.036 C 199.254 350.242 200.149 351.975 201.515 352.515 C 203.111 353.146 205.122 352.823 206.947 352.762 C 217.333 352.415 227.724 351.492 237.92 354.722 C 240.426 355.516 242.049 356.208 242.112 359.219 C 242.321 369.171 242.834 379.116 243.04 389.068 C 243.199 396.722 243.054 404.382 243.086 412.04 C 243.093 413.808 243.274 415.576 243.37 417.253 C 245.749 417.668 247.579 417.988 249.409 418.307 C 249.335 418.923 249.262 419.54 249.188 420.156 C 240.124 419.278 231.06 418.4 221.997 417.521 C 229.578 421.249 237.407 424.23 245.389 426.723 C 249.007 427.853 251.096 429.255 251.137 433.459 C 251.314 451.9 251.738 470.338 252.072 488.777 C 238.718 488.777 225.363 488.777 211.541 488.777 C 210.486 488.112 210.008 487.062 209.291 486.859 C 207.516 486.356 205.631 486.24 203.152 485.593 C 200.536 483.79 198.323 482.593 196.629 480.882 C 193.485 477.707 190.582 474.284 187.687 470.872 C 172.931 453.48 162.018 434.439 160.969 410.856 C 160.611 402.819 159.157 394.83 158.204 386.819 Z"/>
    <path fill="#EAA779" opacity="1.000000" stroke="none" d="M 252.541 488.777 C 251.738 470.338 251.314 451.9 251.137 433.459 C 251.096 429.255 249.007 427.853 245.389 426.723 C 237.407 424.23 229.578 421.249 221.997 417.521 C 231.06 418.4 240.124 419.278 249.188 420.156 C 249.262 419.54 249.335 418.923 249.409 418.307 C 247.579 417.988 245.749 417.668 243.37 417.253 C 243.274 415.576 243.093 413.808 243.086 412.04 C 243.054 404.382 243.199 396.722 243.04 389.068 C 242.834 379.116 242.321 369.171 242.112 359.219 C 242.049 356.208 240.426 355.516 237.92 354.722 C 227.724 351.492 217.333 352.415 206.947 352.762 C 205.122 352.823 203.111 353.146 201.515 352.515 C 200.149 351.975 199.254 350.242 198.151 349.036 C 199.372 348.284 200.692 346.762 201.796 346.906 C 208.947 347.835 213.719 343.074 218.828 339.698 C 224.723 335.802 230.098 335.174 236.458 338.372 C 242.114 341.217 243.243 340.365 243.033 334.19 C 242.482 317.952 241.333 301.723 241.186 285.484 C 241.028 268.048 241.759 250.605 242.042 233.164 C 242.072 231.368 241.691 229.565 241.708 227.361 C 244.973 227.276 248.029 227.594 251.237 228.215 C 252.283 233.318 253.58 238.084 253.98 242.925 C 254.623 250.693 253.687 258.709 255.208 266.26 C 257.39 277.092 260.969 287.668 264.359 298.223 C 266.525 304.967 266.461 305.591 259.623 306.877 C 253.743 307.983 248.922 313.512 249.716 317.997 C 251.622 318.41 254.399 318.196 255.114 319.309 C 258.235 324.159 264.037 320.294 267.427 323.584 C 267.971 322.849 268.589 322.157 269.044 321.37 C 270.715 318.485 272.318 314.78 274.117 312.927 C 276.761 310.203 278.1 307.337 277.849 304.506 C 276.982 294.699 286.444 290.374 288.906 282.432 C 289.069 281.909 291.017 281.939 292.569 281.735 C 294.331 281.837 295.678 281.8 296.985 282.011 C 311.579 284.366 324.309 280.167 334.932 270.277 C 345.688 260.265 350.403 247.443 350.536 232.746 C 353.301 231.992 355.719 231.188 358.196 230.656 C 358.747 230.537 359.504 231.379 360.426 232.1 C 360.837 237.849 360.988 243.277 361.168 249.056 C 361.843 250.333 362.329 251.447 363.161 252.152 C 367.862 256.135 370.565 264.098 367.161 268.885 C 363.727 273.714 363.199 278.79 362.459 284.111 C 361.371 291.926 360.249 299.737 358.84 307.783 C 357.754 309.806 356.69 311.527 356.234 313.397 C 354.233 321.584 352.552 329.852 350.478 338.02 C 348.449 346.011 346.083 353.916 343.547 361.93 C 342.843 362.301 342.37 362.533 342.085 362.908 C 335.69 371.32 329.183 379.652 323.003 388.219 C 320.638 391.499 318.611 395.168 317.203 398.947 C 315.98 402.229 315.469 405.906 315.364 409.429 C 315.291 411.855 316.415 414.326 317.066 416.76 C 317.588 418.712 318.736 420.661 318.657 422.572 C 318.526 425.771 317.407 428.917 317.113 432.124 C 316.303 440.944 315.742 449.786 314.978 458.61 C 314.884 459.701 313.979 460.7 313.753 461.803 C 312.467 468.062 311.273 474.339 310.049 480.61 C 302.408 482.332 294.769 484.066 287.125 485.772 C 283.57 486.565 280.003 487.305 276.757 488.423 C 269.051 488.777 261.03 488.777 252.541 488.777 M 275.085 341.283 C 274.342 340.91 273.574 340.58 272.859 340.159 C 264.199 335.049 255.763 332.852 246.601 339.722 C 243.887 341.756 242.791 343.323 243.095 346.353 C 243.385 349.248 243.606 352.149 243.925 355.837 C 247.133 355.625 250.53 355.458 253.916 355.165 C 260.403 354.604 266.887 354.009 273.365 353.357 C 279.546 352.735 285.742 352.17 291.868 351.183 C 292.737 351.042 293.538 348.701 293.749 347.286 C 293.816 346.835 291.741 345.41 290.87 345.58 C 285.132 346.7 280.513 343.982 275.085 341.283 Z"/>
    <path fill="#C1CCCC" opacity="1.000000" stroke="none" d="M 343.167 392.674 C 347.671 395.724 352.611 398.294 356.595 401.915 C 368.067 412.341 371.757 426.097 374.539 441.014 C 376.673 452.46 371.128 456.343 363.08 459.766 C 347.74 466.29 332.256 472.476 316.561 478.427 C 323.85 465.479 331.514 452.967 338.882 440.282 C 340.415 437.643 341.656 434.359 341.627 431.386 C 341.565 425.096 339.909 418.788 340.15 412.535 C 340.407 405.886 342.101 399.292 343.167 392.674 Z"/>
    <path fill="#DE905A" opacity="1.000000" stroke="none" d="M 359.142 307.55 C 360.249 299.737 361.371 291.926 362.459 284.111 C 363.199 278.79 363.727 273.714 367.161 268.885 C 370.565 264.098 367.862 256.135 363.161 252.152 C 362.329 251.447 361.843 250.333 361.473 249.167 C 362.186 248.44 362.964 247.982 363.008 247.463 C 363.434 242.394 363.42 237.268 364.176 232.255 C 364.796 228.147 364.164 222.729 369.015 220.966 C 374.577 218.944 376.069 214.443 378.352 209.735 C 382.966 207.1 385.918 207.372 389.526 209.615 C 389.526 209.615 390.658 210.522 390.989 211.116 C 394.795 219.32 394.304 227.711 393.938 236.098 C 393.85 238.115 391.849 247.248 391.404 249.103 C 389.883 255.458 388.473 261.84 387.02 268.211 C 387.02 268.211 384.141 276.745 384.025 277.204 C 384.025 277.204 382.141 281.745 382.025 282.204 C 382.025 282.204 378.21 290.473 378.112 290.857 C 378.112 290.857 376.173 293.771 376.026 294.203 C 376.026 294.203 374.246 296.505 374.104 296.861 C 374.104 296.861 372.246 299.505 372.104 299.861 C 372.104 299.861 370.555 301.126 370.118 301.857 C 370.118 301.857 369.246 302.505 369.104 302.861 C 369.104 302.861 368.246 303.505 368.104 303.861 C 368.104 303.861 367.246 304.505 367.104 304.861 C 367.104 304.861 365.993 305.375 365.73 305.697 C 365.73 305.697 364.083 306.388 363.737 306.697 C 363.737 306.697 362.083 307.388 361.737 307.697 C 361.737 307.697 359.673 307.536 359.142 307.55 Z"/>
    <path fill="#DF905B" opacity="1.000000" stroke="none" d="M 343.147 392.245 C 342.101 399.292 340.407 405.886 340.15 412.535 C 339.909 418.788 341.565 425.096 341.627 431.386 C 341.656 434.359 340.415 437.643 338.882 440.282 C 331.514 452.967 323.85 465.479 316.171 478.366 C 314.289 479.298 312.528 479.917 310.407 480.573 C 311.273 474.339 312.467 468.062 313.753 461.803 C 313.979 460.7 314.884 459.701 314.978 458.61 C 315.742 449.786 316.303 440.944 317.113 432.124 C 317.407 428.917 318.526 425.771 318.657 422.572 C 318.736 420.661 317.588 418.712 317.066 416.76 C 316.415 414.326 315.291 411.855 315.364 409.429 C 315.469 405.906 315.98 402.229 317.203 398.947 C 318.611 395.168 320.638 391.499 323.003 388.219 C 329.183 379.652 335.69 371.32 342.085 362.908 C 342.37 362.533 342.843 362.301 343.59 362.375 C 343.694 370.439 343.437 378.132 343.18 385.824 C 343.162 387.822 343.145 389.819 343.147 392.245 Z"/>
    <path fill="#C1CCCC" opacity="1.000000" stroke="none" d="M 158.123 387.245 C 159.157 394.83 160.611 402.819 160.969 410.856 C 162.018 434.439 172.931 453.48 187.687 470.872 C 190.582 474.284 193.485 477.707 196.629 480.882 C 198.323 482.593 200.536 483.79 202.768 485.432 C 195.373 484.361 187.52 483.781 180.124 481.631 C 168.429 478.231 156.959 473.993 145.555 469.683 C 139.493 467.392 133.769 464.205 126.822 460.916 C 133.304 457.557 132.102 452.303 132.051 447.46 C 131.926 435.447 133.197 423.684 139.367 413.104 C 142.978 406.914 146.617 400.428 153.769 397.488 C 158.568 395.516 158.184 391.619 158.123 387.245 Z"/>
    <path opacity="1.000000" stroke="none" d="M 117.921 218.102 C 118.323 216.434 119.322 215.016 119.077 213.862 C 117.005 204.074 114.627 194.351 112.511 184.572 C 111.576 180.255 111.033 175.853 110.121 171.135 C 109.298 160.377 107.767 149.931 108.275 139.584 C 108.83 128.288 110.937 117.023 112.967 105.854 C 116.475 86.556 126.566 70.654 139.777 56.58 C 144.662 51.376 149.89 46.493 155.006 41.116 C 157.431 39.552 160.381 38.864 162.085 37.023 C 167.943 30.693 175.202 27.097 182.846 23.31 C 193.093 18.234 203.775 15.32 214.723 13.612 C 231.345 11.018 248.124 8.611 264.975 12.561 C 271.696 14.136 278.498 15.369 285.66 16.796 C 287.811 17.468 289.566 18.102 291.687 18.739 C 300.65 22.859 309.107 27.304 317.881 31 C 326.336 34.561 333.516 39.815 340.697 45.787 C 341.106 46.185 341.053 46.67 341.25 46.815 C 350.84 53.89 356.184 64.496 363.778 73.619 C 367.32 80.18 370.498 86.635 373.796 93.027 C 379.839 104.741 381.433 117.411 382.149 130.324 C 382.6 138.473 383.82 146.598 383.91 154.743 C 384.004 163.321 383.611 171.964 382.588 180.478 C 381.756 187.403 379.68 194.178 378.197 201.433 C 377.182 204.54 376.127 207.235 374.939 210.267 C 375.462 210.208 376.396 210.101 377.653 209.947 C 376.069 214.443 374.577 218.944 369.015 220.966 C 364.164 222.729 364.796 228.147 364.176 232.255 C 363.42 237.268 363.434 242.394 363.008 247.463 C 362.964 247.982 362.186 248.44 361.444 248.816 C 360.988 243.277 360.837 237.849 360.393 231.664 C 359.534 228.645 359.575 225.808 358.178 224.331 C 357.309 223.412 353.182 223.814 352.426 224.924 C 350.971 227.059 350.871 230.117 350.21 232.793 C 350.403 247.443 345.688 260.265 334.932 270.277 C 324.309 280.167 311.579 284.366 296.985 282.011 C 295.678 281.8 294.331 281.837 292.323 281.476 C 278.177 276.972 267.936 269.251 263.044 255.428 C 261.75 251.772 259.714 248.378 257.825 244.461 C 262.262 236.383 260.43 228.245 251.086 227.912 C 248.029 227.594 244.973 227.276 241.521 227.007 C 240.794 227.048 240.449 226.979 240.132 227.042 C 224.722 230.119 227.638 230.818 227.336 244.522 C 227.225 249.558 224.467 254.739 222.165 259.49 C 207.046 290.697 167.958 292.265 149.364 267.939 C 141.696 257.907 137.607 247.012 137.96 234.424 C 137.983 233.593 138.277 232.552 137.895 231.968 C 136.948 230.519 135.684 229.278 134.547 227.953 C 133.441 229.131 131.516 230.217 131.37 231.503 C 130.702 237.41 130.532 243.373 130.18 249.315 C 130.079 251.019 129.969 252.722 129.863 254.425 C 129.397 254.435 128.93 254.445 128.464 254.455 C 127.935 249.223 127.399 243.993 126.88 238.76 C 126.571 235.633 126.338 232.498 125.984 229.377 C 125.55 225.547 124.11 222.424 120.186 220.861 C 119.267 220.495 118.681 219.293 117.921 218.102 M 345.065 137.782 C 345.065 137.782 345.085 137.784 345.005 137.093 C 340.508 129.918 333.22 126.408 325.587 122.195 C 317.733 120.389 309.963 117.737 302.009 116.951 C 285.06 115.277 269.234 120.362 253.815 126.863 C 250.073 128.44 246.425 130.814 241.407 128.638 C 229.426 124.347 217.499 119.895 205.433 115.858 C 201.596 114.574 198.38 113.416 197.332 108.946 C 196.852 106.896 195.416 105.07 193.806 101.976 C 192.858 106.484 192.225 109.491 191.496 112.955 C 186.364 112.37 181.415 112.075 176.572 111.196 C 166.663 109.396 157.138 108.398 150.844 118.735 C 150.676 119.011 150.406 119.243 150.141 119.44 C 143.716 124.217 140.979 130.689 141.075 138.598 C 141.212 149.798 141.346 161.002 141.187 172.2 C 141.112 177.45 143.593 182.754 139.63 187.974 C 133.85 195.589 130.911 204.381 132.339 214.118 C 132.665 216.343 133.669 220.103 134.781 220.264 C 137.795 220.7 142.129 220.697 143.98 218.877 C 149.563 213.386 155.775 209.307 163.835 206.646 C 172.063 206.023 180.282 205.199 188.522 204.831 C 197.917 204.411 206.345 207.609 214.73 212.987 C 217.478 216.428 220.532 219.677 222.865 223.379 C 224.41 225.83 225.803 226.262 228.42 225.555 C 232.949 224.331 237.583 223.495 242.937 222.597 C 248.256 223.131 253.568 223.771 258.899 224.134 C 260.489 224.242 262.724 224.138 263.647 223.166 C 267.346 219.27 270.645 214.996 274.689 210.518 C 278.493 205.341 284.415 204.422 289.988 203.937 C 299.976 203.069 310.045 203.122 320.077 202.769 C 320.077 202.769 320.057 202.77 320.377 203.264 C 320.933 203.391 321.489 203.518 322.721 203.968 C 329.963 206.003 336.288 209.592 341.745 214.812 C 342.831 215.851 344.579 216.197 346.632 217.404 C 349.11 217.514 351.653 218.002 354.041 217.593 C 355.489 217.346 357.51 215.948 357.889 214.659 C 361.799 201.351 357.382 190.453 347.904 180.964 C 346.395 179.453 345.264 176.864 345.196 174.733 C 344.875 164.769 344.987 154.79 345.025 143.991 C 345.063 142.608 345.101 141.225 345.564 139.511 C 345.398 138.928 345.232 138.345 345.065 137.782 M 276.493 214.093 C 275 215.366 273.287 216.455 272.048 217.94 C 263.536 228.136 262.417 239.757 266.007 252.069 C 269.636 264.514 277.482 272.987 290.839 277.017 C 298.217 277.451 305.819 279.239 312.932 278.065 C 333.819 274.619 346.802 255.25 346.144 235.886 C 345.753 224.363 339.699 214.892 329.091 210.288 C 317.726 205.356 305.922 204.901 294.111 207.473 C 288.266 208.745 282.787 211.702 276.493 214.093 M 190.521 280.773 C 199.73 279.452 207.365 275.32 213.302 268.1 C 220.884 258.88 224.331 248.537 223.187 236.442 C 222.21 226.115 217.517 218.055 208.649 213.563 C 192.61 205.438 175.752 205.648 158.925 211.525 C 147.539 215.502 140.378 227.032 141.126 238.496 C 141.794 248.729 145.35 257.762 151.234 266.044 C 158.913 276.853 177.205 283.944 190.521 280.773 Z" style=""/>
    <path fill="#DE8F59" opacity="1.000000" stroke="none" d="M 251.237 228.215 C 260.43 228.245 262.262 236.383 257.825 244.461 C 259.714 248.378 261.75 251.772 263.044 255.428 C 267.936 269.251 278.177 276.972 291.889 281.452 C 291.017 281.939 289.069 281.909 288.906 282.432 C 286.444 290.374 276.982 294.699 277.849 304.506 C 278.1 307.337 276.761 310.203 274.117 312.927 C 272.318 314.78 270.715 318.485 269.044 321.37 C 268.589 322.157 267.971 322.849 267.427 323.584 C 264.037 320.294 258.235 324.159 255.114 319.309 C 254.399 318.196 251.622 318.41 249.716 317.997 C 248.922 313.512 253.743 307.983 259.623 306.877 C 266.461 305.591 266.525 304.967 264.359 298.223 C 260.969 287.668 257.39 277.092 255.208 266.26 C 253.687 258.709 254.623 250.693 253.98 242.925 C 253.58 238.084 252.283 233.318 251.237 228.215 Z"/>
    <path fill="#DE8F59" opacity="1.000000" stroke="none" d="M 275.42 341.455 C 280.513 343.982 285.132 346.7 290.87 345.58 C 291.741 345.41 293.816 346.835 293.749 347.286 C 293.538 348.701 292.737 351.042 291.868 351.183 C 285.742 352.17 279.546 352.735 273.365 353.357 C 266.887 354.009 260.403 354.604 253.916 355.165 C 250.53 355.458 247.133 355.625 243.925 355.837 C 243.606 352.149 243.385 349.248 243.095 346.353 C 242.791 343.323 243.887 341.756 246.601 339.722 C 255.763 332.852 264.199 335.049 272.859 340.159 C 273.574 340.58 274.342 340.91 275.42 341.455 Z"/>
    <path fill="#DE8F59" opacity="1.000000" stroke="none" d="M 350.536 232.746 C 350.871 230.117 350.971 227.059 352.426 224.924 C 353.182 223.814 357.309 223.412 358.178 224.331 C 359.575 225.808 359.534 228.645 360.134 231.343 C 359.504 231.379 358.747 230.537 358.196 230.656 C 355.719 231.188 353.301 231.992 350.536 232.746 Z"/>
    <path fill="#F8CFB6" opacity="1.000000" stroke="none" d="M 163.032 206.631 C 155.775 209.307 149.563 213.386 143.98 218.877 C 142.129 220.697 137.795 220.7 134.781 220.264 C 133.669 220.103 132.665 216.343 132.339 214.118 C 130.911 204.381 133.85 195.589 139.63 187.974 C 143.593 182.754 141.112 177.45 141.187 172.2 C 141.346 161.002 141.212 149.798 141.075 138.598 C 140.979 130.689 143.716 124.217 150.141 119.44 C 150.406 119.243 150.676 119.011 150.844 118.735 C 157.138 108.398 166.663 109.396 176.572 111.196 C 181.415 112.075 186.364 112.37 191.496 112.955 C 192.225 109.491 192.858 106.484 193.806 101.976 C 195.416 105.07 196.852 106.896 197.332 108.946 C 198.38 113.416 201.596 114.574 205.433 115.858 C 217.499 119.895 229.426 124.347 241.916 129.136 C 242.975 134.716 244.008 139.801 243.983 144.881 C 243.909 159.49 243.332 174.097 243.102 188.707 C 242.955 198.026 243.125 207.349 243.033 216.67 C 243.014 218.614 242.473 220.554 242.172 222.496 C 237.583 223.495 232.949 224.331 228.42 225.555 C 225.803 226.262 224.41 225.83 222.865 223.379 C 220.532 219.677 217.478 216.428 214.575 212.511 C 215.024 211.266 215.562 210.432 216.244 209.739 C 220.692 205.22 220.119 201.949 214.02 200.355 C 205.746 198.191 197.355 196.401 188.936 194.887 C 177.741 192.874 169.839 198.676 163.032 206.631 Z"/>
    <path fill="#EAA779" opacity="1.000000" stroke="none" d="M 242.555 222.546 C 242.473 220.554 243.014 218.614 243.033 216.67 C 243.125 207.349 242.955 198.026 243.102 188.707 C 243.332 174.097 243.909 159.49 243.983 144.881 C 244.008 139.801 242.975 134.716 242.24 129.28 C 246.425 130.814 250.073 128.44 253.815 126.863 C 269.234 120.362 285.06 115.277 302.009 116.951 C 309.963 117.737 317.733 120.389 325.736 122.746 C 326.229 124.502 326.188 126.31 326.979 126.816 C 332.922 130.616 339.029 134.16 345.085 137.784 C 345.085 137.784 345.065 137.782 345.059 138.119 C 345.082 138.918 345.111 139.38 345.14 139.842 C 345.101 141.225 345.063 142.608 344.744 144.731 C 344.004 152.241 343.333 159.005 343.14 165.782 C 342.89 174.564 341.306 183.484 347.761 191.363 C 349.46 193.437 349.891 198.659 348.456 200.777 C 344.884 206.048 346.256 211.449 346.021 216.862 C 344.579 216.197 342.831 215.851 341.745 214.812 C 336.288 209.592 329.963 206.003 322.19 203.602 C 321.125 203.08 320.591 202.925 320.057 202.77 C 320.057 202.77 320.077 202.769 320.035 202.427 C 315.379 195.637 308.132 194.38 301.537 195.422 C 292.36 196.872 283.491 200.358 274.561 203.195 C 272.883 203.728 271.537 205.304 269.335 206.912 C 271.361 208.594 272.726 209.728 274.092 210.861 C 270.645 214.996 267.346 219.27 263.647 223.166 C 262.724 224.138 260.489 224.242 258.899 224.134 C 253.568 223.771 248.256 223.131 242.555 222.546 Z"/>
    <path fill="#F6CFB7" opacity="1.000000" stroke="none" d="M 190.088 280.796 C 177.205 283.944 158.913 276.853 151.234 266.044 C 145.35 257.762 141.794 248.729 141.126 238.496 C 140.378 227.032 147.539 215.502 158.925 211.525 C 175.752 205.648 192.61 205.438 208.649 213.563 C 217.517 218.055 222.21 226.115 223.187 236.442 C 224.331 248.537 220.884 258.88 213.302 268.1 C 207.365 275.32 199.73 279.452 190.088 280.796 M 202.498 224.473 C 207.29 225.621 211.028 227.811 212.185 233.167 C 212.385 234.093 214.194 234.671 215.259 235.41 C 215.696 233.945 216.882 232.14 216.405 231.091 C 215.572 229.257 213.807 227.791 212.267 226.348 C 210.107 224.324 207.9 222.319 205.515 220.576 C 203.622 219.191 201.182 216.93 199.421 217.276 C 192.372 218.661 185.194 220.228 178.663 223.093 C 174.58 224.884 171.568 229.113 167.902 232.404 C 173.289 236.302 175.066 231.232 178.129 230.156 C 179.072 229.825 180.168 229.929 181.114 230.618 C 181.002 236.094 183.784 239.907 188.615 241.78 C 193.263 243.582 197.77 242.626 201.186 238.654 C 204.726 234.537 204.943 230.331 202.498 224.473 Z"/>
    <path fill="#EAA778" opacity="1.000000" stroke="none" d="M 277.142 213.897 C 282.787 211.702 288.266 208.745 294.111 207.473 C 305.922 204.901 317.726 205.356 329.091 210.288 C 339.699 214.892 345.753 224.363 346.144 235.886 C 346.802 255.25 333.819 274.619 312.932 278.065 C 305.819 279.239 298.217 277.451 290.696 276.586 C 290.597 274.183 290.028 271.919 290.803 270.295 C 292.832 266.044 295.341 262.007 297.854 258.007 C 301.416 252.336 308.649 248.158 305.232 239.391 C 305.994 237.645 306.598 236.194 307.428 234.492 C 309.996 229.281 312.249 233.111 314.612 234.243 C 315.635 234.733 316.855 234.811 317.986 235.076 C 317.962 233.888 318.386 232.409 317.837 231.561 C 315.077 227.301 311.586 223.935 306.065 223.771 C 306.073 223.771 306.078 223.79 306.012 223.446 C 301.206 219.641 296.819 216.026 290.001 218.418 C 285.108 220.134 280.17 218.983 277.142 213.897 Z"/>
    <path fill="#DE8F59" opacity="1.000000" stroke="none" d="M 276.818 213.995 C 280.17 218.983 285.108 220.134 290.001 218.418 C 296.819 216.026 301.206 219.641 305.667 223.297 C 303.02 222.785 300.68 221.969 298.282 221.388 C 287.27 218.719 284.539 225.193 285.687 234.593 C 286.706 242.946 298.282 245.871 305.073 239.686 C 308.649 248.158 301.416 252.336 297.854 258.007 C 295.341 262.007 292.832 266.044 290.803 270.295 C 290.028 271.919 290.597 274.183 290.348 276.403 C 277.482 272.987 269.636 264.514 266.007 252.069 C 262.417 239.757 263.536 228.136 272.048 217.94 C 273.287 216.455 275 215.366 276.818 213.995 Z"/>
    <path opacity="1.000000" stroke="none" d="M 163.433 206.638 C 169.839 198.676 177.741 192.874 188.936 194.887 C 197.355 196.401 205.746 198.191 214.02 200.355 C 220.119 201.949 220.692 205.22 216.244 209.739 C 215.562 210.432 215.024 211.266 214.284 212.338 C 206.345 207.609 197.917 204.411 188.522 204.831 C 180.282 205.199 172.063 206.023 163.433 206.638 Z" style="fill: rgb(32, 32, 32);"/>
    <path fill="#DE8F59" opacity="1.000000" stroke="none" d="M 346.327 217.133 C 346.256 211.449 344.884 206.048 348.456 200.777 C 349.891 198.659 349.46 193.437 347.761 191.363 C 341.306 183.484 342.89 174.564 343.14 165.782 C 343.333 159.005 344.004 152.241 344.704 145.144 C 344.987 154.79 344.875 164.769 345.196 174.733 C 345.264 176.864 346.395 179.453 347.904 180.964 C 357.382 190.453 361.799 201.351 357.889 214.659 C 357.51 215.948 355.489 217.346 354.041 217.593 C 351.653 218.002 349.11 217.514 346.327 217.133 Z"/>
    <path opacity="1.000000" stroke="none" d="M 274.39 210.69 C 272.726 209.728 271.361 208.594 269.335 206.912 C 271.537 205.304 272.883 203.728 274.561 203.195 C 283.491 200.358 292.36 196.872 301.537 195.422 C 308.132 194.38 315.379 195.637 320.037 202.437 C 310.045 203.122 299.976 203.069 289.988 203.937 C 284.415 204.422 278.493 205.341 274.39 210.69 Z" style="fill: rgb(32, 32, 32);"/>
    <path fill="#DE8F59" opacity="1.000000" stroke="none" d="M 345.045 137.439 C 339.029 134.16 332.922 130.616 326.979 126.816 C 326.188 126.31 326.229 124.502 325.987 122.994 C 333.22 126.408 340.508 129.918 345.045 137.439 Z"/>
    <path fill="#DE8F59" opacity="1.000000" stroke="none" d="M 345.352 139.676 C 345.111 139.38 345.082 138.918 345.059 138.109 C 345.232 138.345 345.398 138.928 345.352 139.676 Z"/>
    <path fill="#DE8F59" opacity="1.000000" stroke="none" d="M 320.217 203.017 C 320.591 202.925 321.125 203.08 321.852 203.44 C 321.489 203.518 320.933 203.391 320.217 203.017 Z"/>
    <path opacity="1.000000" stroke="none" d="M 202.091 224.876 C 204.943 230.331 204.726 234.537 201.186 238.654 C 197.77 242.626 193.263 243.582 188.615 241.78 C 183.784 239.907 181.002 236.094 181.406 229.977 C 183.442 226.886 184.695 223.13 187.03 222.252 C 192.145 220.328 197.71 220.385 202.091 224.876 Z" style=""/>
    <path fill="#EAA779" opacity="1.000000" stroke="none" d="M 202.295 224.674 C 197.71 220.385 192.145 220.328 187.03 222.252 C 184.695 223.13 183.442 226.886 181.446 229.585 C 180.168 229.929 179.072 229.825 178.129 230.156 C 175.066 231.232 173.289 236.302 167.902 232.404 C 171.568 229.113 174.58 224.884 178.663 223.093 C 185.194 220.228 192.372 218.661 199.421 217.276 C 201.182 216.93 203.622 219.191 205.515 220.576 C 207.9 222.319 210.107 224.324 212.267 226.348 C 213.807 227.791 215.572 229.257 216.405 231.091 C 216.882 232.14 215.696 233.945 215.259 235.41 C 214.194 234.671 212.385 234.093 212.185 233.167 C 211.028 227.811 207.29 225.621 202.295 224.674 Z"/>
    <path opacity="1.000000" stroke="none" d="M 305.232 239.391 C 298.282 245.871 286.706 242.946 285.687 234.593 C 284.539 225.193 287.27 218.719 298.282 221.388 C 300.68 221.969 303.02 222.785 305.732 223.641 C 306.078 223.79 306.073 223.771 306.26 224.062 C 306.698 227.816 306.95 231.279 307.201 234.743 C 306.598 236.194 305.994 237.645 305.232 239.391 Z" style=""/>
    <path fill="#DE8F59" opacity="1.000000" stroke="none" d="M 307.428 234.492 C 306.95 231.279 306.698 227.816 306.251 224.062 C 311.586 223.935 315.077 227.301 317.837 231.561 C 318.386 232.409 317.962 233.888 317.986 235.076 C 316.855 234.811 315.635 234.733 314.612 234.243 C 312.249 233.111 309.996 229.281 307.428 234.492 Z"/>
  </g>
</svg>