<?xml version="1.0" encoding="utf-8"?>
<svg viewBox="0 0 500 500" xmlns="http://www.w3.org/2000/svg">
  <path fill="#F8D0B7" opacity="1.000000" stroke="none" d="M 152.758 384.197 C 151.714 377.636 150.827 371.045 149.554 364.529 C 148.984 361.61 147.579 358.863 146.658 356.003 C 142.29 342.448 138.015 328.861 133.545 315.339 C 132.957 313.56 131.764 311.118 130.299 310.627 C 117.406 306.301 110.91 296.696 106.47 284.478 C 100.624 268.39 97.664 251.778 95.718 234.929 C 95.093 229.511 95.209 223.922 95.719 218.48 C 96.366 211.582 98.358 210.156 105.148 210.154 C 106.979 210.154 108.811 210.151 111.141 210.429 C 111.911 212.175 112.183 213.641 112.475 215.48 C 113.235 216.671 113.821 217.873 114.74 218.239 C 118.664 219.802 120.104 222.925 120.538 226.755 C 120.892 229.876 121.125 233.011 121.434 236.138 C 121.953 241.371 122.489 246.601 123.018 251.833 C 123.484 251.823 123.951 251.813 124.417 251.803 C 124.523 250.1 124.633 248.397 124.734 246.693 C 125.086 240.751 125.256 234.788 125.924 228.881 C 126.07 227.595 127.995 226.509 129.101 225.331 C 130.238 226.656 131.502 227.897 132.449 229.346 C 132.831 229.93 132.537 230.971 132.514 231.802 C 132.161 244.39 136.25 255.285 143.918 265.317 C 162.512 289.643 201.6 288.075 216.719 256.868 C 219.021 252.117 221.779 246.936 221.89 241.9 C 222.192 228.196 219.276 227.497 234.686 224.42 C 235.003 224.357 235.348 224.426 235.867 224.788 C 236.245 226.943 236.626 228.746 236.596 230.542 C 236.313 247.983 235.582 265.426 235.74 282.862 C 235.887 299.101 237.036 315.33 237.587 331.568 C 237.797 337.743 236.668 338.595 231.012 335.75 C 224.652 332.552 219.277 333.18 213.382 337.076 C 208.273 340.452 203.501 345.213 196.35 344.284 C 195.246 344.14 193.926 345.662 192.705 346.414 C 193.808 347.62 194.703 349.353 196.069 349.893 C 197.665 350.524 199.676 350.201 201.501 350.14 C 211.887 349.793 222.278 348.87 232.474 352.1 C 234.98 352.894 236.603 353.586 236.666 356.597 C 236.875 366.549 237.388 376.494 237.594 386.446 C 237.753 394.1 237.608 401.76 237.64 409.418 C 237.647 411.186 237.828 412.954 237.924 414.631 C 240.303 415.046 242.133 415.366 243.963 415.685 C 243.889 416.301 243.816 416.918 243.742 417.534 C 234.678 416.656 225.614 415.778 216.551 414.899 C 224.132 418.627 231.961 421.608 239.943 424.101 C 243.561 425.231 245.65 426.633 245.691 430.837 C 245.868 449.278 246.292 467.716 246.626 486.155 C 233.272 486.155 219.917 486.155 206.095 486.155 C 205.04 485.49 204.562 484.44 203.845 484.237 C 202.07 483.734 200.185 483.618 197.706 482.971 C 195.09 481.168 192.877 479.971 191.183 478.26 C 188.039 475.085 185.136 471.662 182.241 468.25 C 167.485 450.858 156.572 431.817 155.523 408.234 C 155.165 400.197 153.711 392.208 152.758 384.197 Z" transform="matrix(0.9999999999999999, 0, 0, 0.9999999999999999, 2.842170943040401e-14, 2.842170943040401e-14)"/>
  <path fill="#EAA779" opacity="1.000000" stroke="none" d="M 247.095 486.155 C 246.292 467.716 245.868 449.278 245.691 430.837 C 245.65 426.633 243.561 425.231 239.943 424.101 C 231.961 421.608 224.132 418.627 216.551 414.899 C 225.614 415.778 234.678 416.656 243.742 417.534 C 243.816 416.918 243.889 416.301 243.963 415.685 C 242.133 415.366 240.303 415.046 237.924 414.631 C 237.828 412.954 237.647 411.186 237.64 409.418 C 237.608 401.76 237.753 394.1 237.594 386.446 C 237.388 376.494 236.875 366.549 236.666 356.597 C 236.603 353.586 234.98 352.894 232.474 352.1 C 222.278 348.87 211.887 349.793 201.501 350.14 C 199.676 350.201 197.665 350.524 196.069 349.893 C 194.703 349.353 193.808 347.62 192.705 346.414 C 193.926 345.662 195.246 344.14 196.35 344.284 C 203.501 345.213 208.273 340.452 213.382 337.076 C 219.277 333.18 224.652 332.552 231.012 335.75 C 236.668 338.595 237.797 337.743 237.587 331.568 C 237.036 315.33 235.887 299.101 235.74 282.862 C 235.582 265.426 236.313 247.983 236.596 230.542 C 236.626 228.746 236.245 226.943 236.262 224.739 C 239.527 224.654 242.583 224.972 245.791 225.593 C 246.837 230.696 248.134 235.462 248.534 240.303 C 249.177 248.071 248.241 256.087 249.762 263.638 C 251.944 274.47 255.523 285.046 258.913 295.601 C 261.079 302.345 261.015 302.969 254.177 304.255 C 248.297 305.361 243.476 310.89 244.27 315.375 C 246.176 315.788 248.953 315.574 249.668 316.687 C 252.789 321.537 258.591 317.672 261.981 320.962 C 262.525 320.227 263.143 319.535 263.598 318.748 C 265.269 315.863 266.872 312.158 268.671 310.305 C 271.315 307.581 272.654 304.715 272.403 301.884 C 271.536 292.077 280.998 287.752 283.46 279.81 C 283.623 279.287 285.571 279.317 287.123 279.113 C 288.885 279.215 290.232 279.178 291.539 279.389 C 306.133 281.744 318.863 277.545 329.486 267.655 C 340.242 257.643 344.957 244.821 345.09 230.124 C 347.855 229.37 350.273 228.566 352.75 228.034 C 353.301 227.915 354.058 228.757 354.98 229.478 C 355.391 235.227 355.542 240.655 355.722 246.434 C 356.397 247.711 356.883 248.825 357.715 249.53 C 362.416 253.513 365.119 261.476 361.715 266.263 C 358.281 271.092 357.753 276.168 357.013 281.489 C 355.925 289.304 354.803 297.115 353.394 305.161 C 352.308 307.184 351.244 308.905 350.788 310.775 C 348.787 318.962 347.106 327.23 345.032 335.398 C 343.003 343.389 340.637 351.294 338.101 359.308 C 337.397 359.679 336.924 359.911 336.639 360.286 C 330.244 368.698 323.737 377.03 317.557 385.597 C 315.192 388.877 313.165 392.546 311.757 396.325 C 310.534 399.607 310.023 403.284 309.918 406.807 C 309.845 409.233 310.969 411.704 311.62 414.138 C 312.142 416.09 313.29 418.039 313.211 419.95 C 313.08 423.149 311.961 426.295 311.667 429.502 C 310.857 438.322 310.296 447.164 309.532 455.988 C 309.438 457.079 308.533 458.078 308.307 459.181 C 307.021 465.44 305.827 471.717 304.603 477.988 C 296.962 479.71 289.323 481.444 281.679 483.15 C 278.124 483.943 274.557 484.683 271.311 485.801 C 263.605 486.155 255.584 486.155 247.095 486.155 M 269.639 338.661 C 268.896 338.288 268.128 337.958 267.413 337.537 C 258.753 332.427 250.317 330.23 241.155 337.1 C 238.441 339.134 237.345 340.701 237.649 343.731 C 237.939 346.626 238.16 349.527 238.479 353.215 C 241.687 353.003 245.084 352.836 248.47 352.543 C 254.957 351.982 261.441 351.387 267.919 350.735 C 274.1 350.113 280.296 349.548 286.422 348.561 C 287.291 348.42 288.092 346.079 288.303 344.664 C 288.37 344.213 286.295 342.788 285.424 342.958 C 279.686 344.078 275.067 341.36 269.639 338.661 Z" transform="matrix(0.9999999999999999, 0, 0, 0.9999999999999999, 2.842170943040401e-14, 2.842170943040401e-14)"/>
  <path fill="#C1CCCC" opacity="1.000000" stroke="none" d="M 337.721 390.052 C 342.225 393.102 347.165 395.672 351.149 399.293 C 362.621 409.719 366.311 423.475 369.093 438.392 C 371.227 449.838 365.682 453.721 357.634 457.144 C 342.294 463.668 326.81 469.854 311.115 475.805 C 318.404 462.857 326.068 450.345 333.436 437.66 C 334.969 435.021 336.21 431.737 336.181 428.764 C 336.119 422.474 334.463 416.166 334.704 409.913 C 334.961 403.264 336.655 396.67 337.721 390.052 Z" transform="matrix(0.9999999999999999, 0, 0, 0.9999999999999999, 2.842170943040401e-14, 2.842170943040401e-14)"/>
  <path fill="#DE905A" opacity="1.000000" stroke="none" d="M 353.696 304.928 C 354.803 297.115 355.925 289.304 357.013 281.489 C 357.753 276.168 358.281 271.092 361.715 266.263 C 365.119 261.476 362.416 253.513 357.715 249.53 C 356.883 248.825 356.397 247.711 356.027 246.545 C 356.74 245.818 357.518 245.36 357.562 244.841 C 357.988 239.772 357.974 234.646 358.73 229.633 C 359.35 225.525 358.718 220.107 363.569 218.344 C 369.131 216.322 370.623 211.821 372.906 207.113 C 377.088 207.001 380.894 207.053 384.701 207.105 C 384.701 207.105 384.637 207.14 384.64 207.418 C 384.999 207.838 385.354 207.98 385.71 208.122 C 385.71 208.122 385.64 208.144 385.543 208.494 C 389.349 216.698 388.858 225.089 388.492 233.476 C 388.404 235.493 388.555 237.521 388.596 239.544 C 388.722 239.817 388.761 240.102 388.248 240.716 C 387.165 242.847 386.403 244.626 385.958 246.481 C 384.437 252.836 383.027 259.218 381.574 265.589 C 381.574 265.589 381.672 265.72 381.29 266.017 C 380.797 267.073 380.685 267.831 380.574 268.589 C 380.718 268.852 380.764 269.13 380.321 269.815 C 379.812 270.665 379.695 271.123 379.579 271.582 C 379.719 271.847 379.764 272.127 379.321 272.814 C 378.812 273.665 378.695 274.123 378.579 274.582 C 378.579 274.582 378.678 274.719 378.296 275.02 C 377.801 276.077 377.688 276.833 377.574 277.589 C 377.574 277.589 377.671 277.719 377.3 277.962 C 376.812 278.665 376.695 279.123 376.579 279.582 C 376.579 279.582 376.667 279.707 376.229 279.858 C 375.052 282.203 374.313 284.396 373.574 286.59 C 373.574 286.59 373.667 286.715 373.313 286.899 C 372.861 287.467 372.764 287.851 372.666 288.235 C 372.666 288.235 372.647 288.168 372.335 288.231 C 371.908 288.938 371.794 289.583 371.679 290.228 C 371.679 290.228 371.643 290.168 371.333 290.227 C 370.875 290.718 370.727 291.149 370.58 291.581 C 370.58 291.581 370.674 291.714 370.316 291.898 C 369.861 292.467 369.764 292.851 369.666 293.235 C 369.666 293.235 369.642 293.169 369.364 293.17 C 368.943 293.527 368.8 293.883 368.658 294.239 C 368.658 294.239 368.646 294.17 368.335 294.234 C 367.909 294.941 367.794 295.585 367.679 296.228 C 367.679 296.228 367.639 296.166 367.362 296.169 C 366.943 296.527 366.8 296.883 366.658 297.239 C 366.658 297.239 366.642 297.169 366.313 297.105 C 365.547 297.772 365.109 298.504 364.672 299.235 C 364.672 299.235 364.641 299.171 364.363 299.171 C 363.943 299.527 363.8 299.883 363.658 300.239 C 363.658 300.239 363.643 300.171 363.364 300.171 C 362.943 300.527 362.8 300.883 362.658 301.239 C 362.658 301.239 362.643 301.171 362.364 301.171 C 361.943 301.527 361.8 301.883 361.658 302.239 C 361.658 302.239 361.64 302.171 361.356 302.141 C 360.809 302.432 360.547 302.753 360.284 303.075 C 360.284 303.075 360.185 303.2 359.757 303.174 C 358.983 303.456 358.637 303.766 358.291 304.075 C 358.291 304.075 358.188 304.203 357.759 304.175 C 356.983 304.456 356.637 304.766 356.291 305.075 C 356.291 305.075 356.189 305.198 355.739 305.042 C 354.758 304.901 354.227 304.914 353.696 304.928 Z" transform="matrix(0.9999999999999999, 0, 0, 0.9999999999999999, 2.842170943040401e-14, 2.842170943040401e-14)"/>
  <path fill="#DF905B" opacity="1.000000" stroke="none" d="M 337.701 389.623 C 336.655 396.67 334.961 403.264 334.704 409.913 C 334.463 416.166 336.119 422.474 336.181 428.764 C 336.21 431.737 334.969 435.021 333.436 437.66 C 326.068 450.345 318.404 462.857 310.725 475.744 C 308.843 476.676 307.082 477.295 304.961 477.951 C 305.827 471.717 307.021 465.44 308.307 459.181 C 308.533 458.078 309.438 457.079 309.532 455.988 C 310.296 447.164 310.857 438.322 311.667 429.502 C 311.961 426.295 313.08 423.149 313.211 419.95 C 313.29 418.039 312.142 416.09 311.62 414.138 C 310.969 411.704 309.845 409.233 309.918 406.807 C 310.023 403.284 310.534 399.607 311.757 396.325 C 313.165 392.546 315.192 388.877 317.557 385.597 C 323.737 377.03 330.244 368.698 336.639 360.286 C 336.924 359.911 337.397 359.679 338.144 359.753 C 338.248 367.817 337.991 375.51 337.734 383.202 C 337.716 385.2 337.699 387.197 337.701 389.623 Z" transform="matrix(0.9999999999999999, 0, 0, 0.9999999999999999, 2.842170943040401e-14, 2.842170943040401e-14)"/>
  <path fill="#CDD2D1" opacity="1.000000" stroke="none" d="M 358.607 71.176 C 364.244 75.972 367.737 82.017 369.711 89.147 C 371.919 97.121 374.929 104.889 376.818 112.928 C 377.884 117.466 377.38 122.371 377.614 127.109 C 377.939 133.664 378.368 140.216 378.617 146.775 C 378.992 156.662 379.062 166.565 379.617 176.441 C 380.071 184.522 375.689 191.122 373.363 198.819 C 373.125 199.218 372.792 199.223 372.751 198.811 C 374.234 191.556 376.31 184.781 377.142 177.856 C 378.165 169.342 378.558 160.699 378.464 152.121 C 378.374 143.976 377.154 135.851 376.703 127.702 C 375.987 114.789 374.393 102.119 368.35 90.405 C 365.052 84.013 361.874 77.558 358.639 71.147 C 358.635 71.162 358.607 71.176 358.607 71.176 Z" transform="matrix(0.9999999999999999, 0, 0, 0.9999999999999999, 2.842170943040401e-14, 2.842170943040401e-14)"/>
  <path fill="#EED6C6" opacity="1.000000" stroke="none" d="M 338.086 383.003 C 337.991 375.51 338.248 367.817 338.462 359.68 C 340.637 351.294 343.003 343.389 345.032 335.398 C 347.106 327.23 348.787 318.962 350.788 310.775 C 351.244 308.905 352.308 307.184 353.394 305.161 C 354.227 304.914 354.758 304.901 355.676 304.994 C 350.494 310.642 351.959 318.444 349.715 325.063 C 346.581 334.313 343.692 343.673 341.297 353.137 C 340.071 357.977 340.109 363.143 339.646 368.168 C 339.197 373.042 338.838 377.925 338.086 383.003 Z" transform="matrix(0.9999999999999999, 0, 0, 0.9999999999999999, 2.842170943040401e-14, 2.842170943040401e-14)"/>
  <path fill="#CDD2D1" opacity="1.000000" stroke="none" d="M 286.596 16.199 C 294.331 18.733 302.451 20.476 309.703 24.003 C 318.64 28.349 326.855 34.181 335.517 40.094 C 335.633 41.623 335.614 42.43 335.251 43.165 C 328.07 37.193 320.89 31.939 312.435 28.378 C 303.661 24.682 295.204 20.237 286.625 16.143 C 286.641 16.165 286.596 16.199 286.596 16.199 Z" transform="matrix(0.9999999999999999, 0, 0, 0.9999999999999999, 2.842170943040401e-14, 2.842170943040401e-14)"/>
  <path fill="#D0D4D2" opacity="1.000000" stroke="none" d="M 335.596 43.236 C 335.614 42.43 335.633 41.623 335.665 40.414 C 341.13 46.014 346.891 51.772 351.91 58.116 C 354.769 61.73 356.417 66.303 358.609 70.81 C 358.607 71.176 358.635 71.162 358.328 71.012 C 350.738 61.874 345.394 51.268 335.804 44.193 C 335.607 44.048 335.66 43.563 335.596 43.236 Z" transform="matrix(0.9999999999999999, 0, 0, 0.9999999999999999, 2.842170943040401e-14, 2.842170943040401e-14)"/>
  <path fill="#EED6C6" opacity="1.000000" stroke="none" d="M 388.954 239.264 C 388.555 237.521 388.404 235.493 388.492 233.476 C 388.858 225.089 389.349 216.698 385.562 208.462 C 386.664 209.667 388.017 211.134 388.576 212.859 C 391.369 221.467 390.28 230.238 388.954 239.264 Z" transform="matrix(0.9999999999999999, 0, 0, 0.9999999999999999, 2.842170943040401e-14, 2.842170943040401e-14)"/>
  <path fill="#EED6C6" opacity="1.000000" stroke="none" d="M 372.792 199.223 C 372.792 199.223 373.125 199.218 373.292 199.218 C 373.565 200.984 373.672 202.749 373.723 203.587 C 377.532 204.587 380.969 205.49 384.554 206.749 C 380.894 207.053 377.088 207.001 372.583 207.161 C 370.95 207.479 370.016 207.586 369.493 207.645 C 370.681 204.613 371.736 201.918 372.792 199.223 Z" transform="matrix(0.9999999999999999, 0, 0, 0.9999999999999999, 2.842170943040401e-14, 2.842170943040401e-14)"/>
  <path fill="#EED6C6" opacity="1.000000" stroke="none" d="M 381.891 265.337 C 383.027 259.218 384.437 252.836 385.958 246.481 C 386.403 244.626 387.165 242.847 388.164 240.917 C 386.433 248.896 384.32 256.99 381.891 265.337 Z" transform="matrix(0.9999999999999999, 0, 0, 0.9999999999999999, 2.842170943040401e-14, 2.842170943040401e-14)"/>
  <path fill="#EED6C6" opacity="1.000000" stroke="none" d="M 373.883 286.352 C 374.313 284.396 375.052 282.203 376.168 279.905 C 375.761 281.905 374.977 284.009 373.883 286.352 Z" transform="matrix(0.9999999999999999, 0, 0, 0.9999999999999999, 2.842170943040401e-14, 2.842170943040401e-14)"/>
  <path fill="#EED6C6" opacity="1.000000" stroke="none" d="M 365.024 299.201 C 365.109 298.504 365.547 297.772 366.346 297.121 C 366.263 297.856 365.819 298.511 365.024 299.201 Z" transform="matrix(0.9999999999999999, 0, 0, 0.9999999999999999, 2.842170943040401e-14, 2.842170943040401e-14)"/>
  <path fill="#EED6C6" opacity="1.000000" stroke="none" d="M 377.883 277.343 C 377.688 276.833 377.801 276.077 378.23 275.072 C 378.428 275.581 378.31 276.339 377.883 277.343 Z" transform="matrix(0.9999999999999999, 0, 0, 0.9999999999999999, 2.842170943040401e-14, 2.842170943040401e-14)"/>
  <path fill="#EED6C6" opacity="1.000000" stroke="none" d="M 380.883 268.343 C 380.685 267.831 380.797 267.073 381.227 266.069 C 381.428 266.581 381.31 267.339 380.883 268.343 Z" transform="matrix(0.9999999999999999, 0, 0, 0.9999999999999999, 2.842170943040401e-14, 2.842170943040401e-14)"/>
  <path fill="#EED6C6" opacity="1.000000" stroke="none" d="M 371.982 290.12 C 371.794 289.583 371.908 288.938 372.369 288.232 C 372.572 288.785 372.428 289.399 371.982 290.12 Z" transform="matrix(0.9999999999999999, 0, 0, 0.9999999999999999, 2.842170943040401e-14, 2.842170943040401e-14)"/>
  <path fill="#EED6C6" opacity="1.000000" stroke="none" d="M 367.982 296.12 C 367.794 295.585 367.909 294.941 368.37 294.234 C 368.572 294.785 368.429 295.398 367.982 296.12 Z" transform="matrix(0.9999999999999999, 0, 0, 0.9999999999999999, 2.842170943040401e-14, 2.842170943040401e-14)"/>
  <path fill="#EED6C6" opacity="1.000000" stroke="none" d="M 385.641 207.859 C 385.354 207.98 384.999 207.838 384.65 207.383 C 384.962 207.245 385.267 207.42 385.641 207.859 Z" transform="matrix(0.9999999999999999, 0, 0, 0.9999999999999999, 2.842170943040401e-14, 2.842170943040401e-14)"/>
  <path fill="#EED6C6" opacity="1.000000" stroke="none" d="M 378.863 274.357 C 378.695 274.123 378.812 273.665 379.237 273.013 C 379.413 273.258 379.28 273.695 378.863 274.357 Z" transform="matrix(0.9999999999999999, 0, 0, 0.9999999999999999, 2.842170943040401e-14, 2.842170943040401e-14)"/>
  <path fill="#EED6C6" opacity="1.000000" stroke="none" d="M 379.863 271.357 C 379.695 271.123 379.812 270.665 380.237 270.013 C 380.413 270.258 380.28 270.695 379.863 271.357 Z" transform="matrix(0.9999999999999999, 0, 0, 0.9999999999999999, 2.842170943040401e-14, 2.842170943040401e-14)"/>
  <path fill="#EED6C6" opacity="1.000000" stroke="none" d="M 356.655 305.093 C 356.637 304.766 356.983 304.456 357.692 304.127 C 357.71 304.442 357.364 304.777 356.655 305.093 Z" transform="matrix(0.9999999999999999, 0, 0, 0.9999999999999999, 2.842170943040401e-14, 2.842170943040401e-14)"/>
  <path fill="#EED6C6" opacity="1.000000" stroke="none" d="M 358.655 304.093 C 358.637 303.766 358.983 303.456 359.692 303.127 C 359.71 303.442 359.364 303.777 358.655 304.093 Z" transform="matrix(0.9999999999999999, 0, 0, 0.9999999999999999, 2.842170943040401e-14, 2.842170943040401e-14)"/>
  <path fill="#EED6C6" opacity="1.000000" stroke="none" d="M 360.608 303.098 C 360.547 302.753 360.809 302.432 361.389 302.153 C 361.448 302.504 361.19 302.813 360.608 303.098 Z" transform="matrix(0.9999999999999999, 0, 0, 0.9999999999999999, 2.842170943040401e-14, 2.842170943040401e-14)"/>
  <path fill="#EED6C6" opacity="1.000000" stroke="none" d="M 361.922 302.169 C 361.8 301.883 361.943 301.527 362.398 301.179 C 362.536 301.491 362.361 301.795 361.922 302.169 Z" transform="matrix(0.9999999999999999, 0, 0, 0.9999999999999999, 2.842170943040401e-14, 2.842170943040401e-14)"/>
  <path fill="#EED6C6" opacity="1.000000" stroke="none" d="M 362.922 301.169 C 362.8 300.883 362.943 300.527 363.398 300.179 C 363.536 300.491 363.361 300.795 362.922 301.169 Z" transform="matrix(0.9999999999999999, 0, 0, 0.9999999999999999, 2.842170943040401e-14, 2.842170943040401e-14)"/>
  <path fill="#EED6C6" opacity="1.000000" stroke="none" d="M 363.922 300.169 C 363.8 299.883 363.943 299.527 364.398 299.179 C 364.536 299.491 364.361 299.795 363.922 300.169 Z" transform="matrix(0.9999999999999999, 0, 0, 0.9999999999999999, 2.842170943040401e-14, 2.842170943040401e-14)"/>
  <path fill="#EED6C6" opacity="1.000000" stroke="none" d="M 366.922 297.169 C 366.8 296.883 366.943 296.527 367.398 296.179 C 367.536 296.491 367.361 296.795 366.922 297.169 Z" transform="matrix(0.9999999999999999, 0, 0, 0.9999999999999999, 2.842170943040401e-14, 2.842170943040401e-14)"/>
  <path fill="#EED6C6" opacity="1.000000" stroke="none" d="M 368.922 294.169 C 368.8 293.883 368.943 293.527 369.398 293.179 C 369.536 293.491 369.361 293.795 368.922 294.169 Z" transform="matrix(0.9999999999999999, 0, 0, 0.9999999999999999, 2.842170943040401e-14, 2.842170943040401e-14)"/>
  <path fill="#EED6C6" opacity="1.000000" stroke="none" d="M 369.969 293.129 C 369.764 292.851 369.861 292.467 370.252 291.949 C 370.455 292.217 370.363 292.619 369.969 293.129 Z" transform="matrix(0.9999999999999999, 0, 0, 0.9999999999999999, 2.842170943040401e-14, 2.842170943040401e-14)"/>
  <path fill="#EED6C6" opacity="1.000000" stroke="none" d="M 370.824 291.385 C 370.727 291.149 370.875 290.718 371.368 290.229 C 371.498 290.511 371.283 290.85 370.824 291.385 Z" transform="matrix(0.9999999999999999, 0, 0, 0.9999999999999999, 2.842170943040401e-14, 2.842170943040401e-14)"/>
  <path fill="#EED6C6" opacity="1.000000" stroke="none" d="M 372.969 288.129 C 372.764 287.851 372.861 287.467 373.252 286.949 C 373.455 287.217 373.363 287.619 372.969 288.129 Z" transform="matrix(0.9999999999999999, 0, 0, 0.9999999999999999, 2.842170943040401e-14, 2.842170943040401e-14)"/>
  <path fill="#EED6C6" opacity="1.000000" stroke="none" d="M 376.863 279.357 C 376.695 279.123 376.812 278.665 377.237 278.013 C 377.413 278.258 377.28 278.695 376.863 279.357 Z" transform="matrix(0.9999999999999999, 0, 0, 0.9999999999999999, 2.842170943040401e-14, 2.842170943040401e-14)"/>
  <path fill="#C1CCCC" opacity="1.000000" stroke="none" d="M 152.677 384.623 C 153.711 392.208 155.165 400.197 155.523 408.234 C 156.572 431.817 167.485 450.858 182.241 468.25 C 185.136 471.662 188.039 475.085 191.183 478.26 C 192.877 479.971 195.09 481.168 197.322 482.81 C 189.927 481.739 182.074 481.159 174.678 479.009 C 162.983 475.609 151.513 471.371 140.109 467.061 C 134.047 464.77 128.323 461.583 121.376 458.294 C 127.858 454.935 126.656 449.681 126.605 444.838 C 126.48 432.825 127.751 421.062 133.921 410.482 C 137.532 404.292 141.171 397.806 148.323 394.866 C 153.122 392.894 152.738 388.997 152.677 384.623 Z" transform="matrix(0.9999999999999999, 0, 0, 0.9999999999999999, 2.842170943040401e-14, 2.842170943040401e-14)"/>
  <path fill="#CDD2D1" opacity="1.000000" stroke="none" d="M 101.594 129.077 C 102.27 112.47 105.615 96.274 112.865 81.454 C 118.823 69.276 126.579 57.894 137.239 48.932 C 141.292 45.525 145.051 41.768 149.315 38.188 C 149.686 38.207 149.652 38.168 149.584 38.505 C 144.444 43.871 139.216 48.754 134.331 53.958 C 121.12 68.032 111.029 83.934 107.521 103.232 C 105.491 114.401 103.384 125.666 102.829 136.962 C 102.321 147.309 103.852 157.755 104.309 168.157 C 104.134 168.156 103.783 168.155 103.783 168.155 C 103.069 164.134 102.355 160.114 101.621 155.19 C 101.599 145.883 101.596 137.48 101.594 129.077 Z" transform="matrix(0.9999999999999999, 0, 0, 0.9999999999999999, 2.842170943040401e-14, 2.842170943040401e-14)"/>
  <path fill="#CDD2D1" opacity="1.000000" stroke="none" d="M 103.698 168.57 C 103.783 168.155 104.134 168.156 104.5 168.512 C 105.587 173.231 106.13 177.633 107.065 181.95 C 109.181 191.729 111.559 201.452 113.631 211.24 C 113.876 212.394 112.877 213.812 112.454 215.107 C 112.183 213.641 111.911 212.175 111.595 210.409 C 110.232 204.339 108.739 198.601 107.638 192.789 C 106.14 184.884 104.941 176.923 103.698 168.57 Z" transform="matrix(0.9999999999999999, 0, 0, 0.9999999999999999, 2.842170943040401e-14, 2.842170943040401e-14)"/>
  <path fill="#E3DED9" opacity="1.000000" stroke="none" d="M 101.205 129.287 C 101.596 137.48 101.599 145.883 101.598 154.759 C 101.271 152.423 100.72 149.617 100.674 146.802 C 100.578 141.036 100.754 135.265 101.205 129.287 Z" transform="matrix(0.9999999999999999, 0, 0, 0.9999999999999999, 2.842170943040401e-14, 2.842170943040401e-14)"/>
  <path opacity="1.000000" stroke="none" d="M 112.475 215.48 C 112.877 213.812 113.876 212.394 113.631 211.24 C 111.559 201.452 109.181 191.729 107.065 181.95 C 106.13 177.633 105.587 173.231 104.675 168.513 C 103.852 157.755 102.321 147.309 102.829 136.962 C 103.384 125.666 105.491 114.401 107.521 103.232 C 111.029 83.934 121.12 68.032 134.331 53.958 C 139.216 48.754 144.444 43.871 149.56 38.494 C 151.985 36.93 154.935 36.242 156.639 34.401 C 162.497 28.071 169.756 24.475 177.4 20.688 C 187.647 15.612 198.329 12.698 209.277 10.99 C 225.899 8.396 242.678 5.989 259.529 9.939 C 266.25 11.514 273.052 12.747 280.214 14.174 C 282.365 14.846 284.12 15.48 286.241 16.117 C 295.204 20.237 303.661 24.682 312.435 28.378 C 320.89 31.939 328.07 37.193 335.251 43.165 C 335.66 43.563 335.607 44.048 335.804 44.193 C 345.394 51.268 350.738 61.874 358.332 70.997 C 361.874 77.558 365.052 84.013 368.35 90.405 C 374.393 102.119 375.987 114.789 376.703 127.702 C 377.154 135.851 378.374 143.976 378.464 152.121 C 378.558 160.699 378.165 169.342 377.142 177.856 C 376.31 184.781 374.234 191.556 372.751 198.811 C 371.736 201.918 370.681 204.613 369.493 207.645 C 370.016 207.586 370.95 207.479 372.207 207.325 C 370.623 211.821 369.131 216.322 363.569 218.344 C 358.718 220.107 359.35 225.525 358.73 229.633 C 357.974 234.646 357.988 239.772 357.562 244.841 C 357.518 245.36 356.74 245.818 355.998 246.194 C 355.542 240.655 355.391 235.227 354.947 229.042 C 354.088 226.023 354.129 223.186 352.732 221.709 C 351.863 220.79 347.736 221.192 346.98 222.302 C 345.525 224.437 345.425 227.495 344.764 230.171 C 344.957 244.821 340.242 257.643 329.486 267.655 C 318.863 277.545 306.133 281.744 291.539 279.389 C 290.232 279.178 288.885 279.215 286.877 278.854 C 272.731 274.35 262.49 266.629 257.598 252.806 C 256.304 249.15 254.268 245.756 252.379 241.839 C 256.816 233.761 254.984 225.623 245.64 225.29 C 242.583 224.972 239.527 224.654 236.075 224.385 C 235.348 224.426 235.003 224.357 234.686 224.42 C 219.276 227.497 222.192 228.196 221.89 241.9 C 221.779 246.936 219.021 252.117 216.719 256.868 C 201.6 288.075 162.512 289.643 143.918 265.317 C 136.25 255.285 132.161 244.39 132.514 231.802 C 132.537 230.971 132.831 229.93 132.449 229.346 C 131.502 227.897 130.238 226.656 129.101 225.331 C 127.995 226.509 126.07 227.595 125.924 228.881 C 125.256 234.788 125.086 240.751 124.734 246.693 C 124.633 248.397 124.523 250.1 124.417 251.803 C 123.951 251.813 123.484 251.823 123.018 251.833 C 122.489 246.601 121.953 241.371 121.434 236.138 C 121.125 233.011 120.892 229.876 120.538 226.755 C 120.104 222.925 118.664 219.802 114.74 218.239 C 113.821 217.873 113.235 216.671 112.475 215.48 M 339.619 135.16 C 339.619 135.16 339.639 135.162 339.559 134.471 C 335.062 127.296 327.774 123.786 320.141 119.573 C 312.287 117.767 304.517 115.115 296.563 114.329 C 279.614 112.655 263.788 117.74 248.369 124.241 C 244.627 125.818 240.979 128.192 235.961 126.016 C 223.98 121.725 212.053 117.273 199.987 113.236 C 196.15 111.952 192.934 110.794 191.886 106.324 C 191.406 104.274 189.97 102.448 188.36 99.354 C 187.412 103.862 186.779 106.869 186.05 110.333 C 180.918 109.748 175.969 109.453 171.126 108.574 C 161.217 106.774 151.692 105.776 145.398 116.113 C 145.23 116.389 144.96 116.621 144.695 116.818 C 138.27 121.595 135.533 128.067 135.629 135.976 C 135.766 147.176 135.9 158.38 135.741 169.578 C 135.666 174.828 138.147 180.132 134.184 185.352 C 128.404 192.967 125.465 201.759 126.893 211.496 C 127.219 213.721 128.223 217.481 129.335 217.642 C 132.349 218.078 136.683 218.075 138.534 216.255 C 144.117 210.764 150.329 206.685 158.389 204.024 C 166.617 203.401 174.836 202.577 183.076 202.209 C 192.471 201.789 200.899 204.987 209.284 210.365 C 212.032 213.806 215.086 217.055 217.419 220.757 C 218.964 223.208 220.357 223.64 222.974 222.933 C 227.503 221.709 232.137 220.873 237.491 219.975 C 242.81 220.509 248.122 221.149 253.453 221.512 C 255.043 221.62 257.278 221.516 258.201 220.544 C 261.9 216.648 265.199 212.374 269.243 207.896 C 273.047 202.719 278.969 201.8 284.542 201.315 C 294.53 200.447 304.599 200.5 314.631 200.147 C 314.631 200.147 314.611 200.148 314.931 200.642 C 315.487 200.769 316.043 200.896 317.275 201.346 C 324.517 203.381 330.842 206.97 336.299 212.19 C 337.385 213.229 339.133 213.575 341.186 214.782 C 343.664 214.892 346.207 215.38 348.595 214.971 C 350.043 214.724 352.064 213.326 352.443 212.037 C 356.353 198.729 351.936 187.831 342.458 178.342 C 340.949 176.831 339.818 174.242 339.75 172.111 C 339.429 162.147 339.541 152.168 339.579 141.369 C 339.617 139.986 339.655 138.603 340.118 136.889 C 339.952 136.306 339.786 135.723 339.619 135.16 M 271.047 211.471 C 269.554 212.744 267.841 213.833 266.602 215.318 C 258.09 225.514 256.971 237.135 260.561 249.447 C 264.19 261.892 272.036 270.365 285.393 274.395 C 292.771 274.829 300.373 276.617 307.486 275.443 C 328.373 271.997 341.356 252.628 340.698 233.264 C 340.307 221.741 334.253 212.27 323.645 207.666 C 312.28 202.734 300.476 202.279 288.665 204.851 C 282.82 206.123 277.341 209.08 271.047 211.471 M 185.075 278.151 C 194.284 276.83 201.919 272.698 207.856 265.478 C 215.438 256.258 218.885 245.915 217.741 233.82 C 216.764 223.493 212.071 215.433 203.203 210.941 C 187.164 202.816 170.306 203.026 153.479 208.903 C 142.093 212.88 134.932 224.41 135.68 235.874 C 136.348 246.107 139.904 255.14 145.788 263.422 C 153.467 274.231 171.759 281.322 185.075 278.151 Z" style="" transform="matrix(0.9999999999999999, 0, 0, 0.9999999999999999, 2.842170943040401e-14, 2.842170943040401e-14)"/>
  <path fill="#DE8F59" opacity="1.000000" stroke="none" d="M 245.791 225.593 C 254.984 225.623 256.816 233.761 252.379 241.839 C 254.268 245.756 256.304 249.15 257.598 252.806 C 262.49 266.629 272.731 274.35 286.443 278.83 C 285.571 279.317 283.623 279.287 283.46 279.81 C 280.998 287.752 271.536 292.077 272.403 301.884 C 272.654 304.715 271.315 307.581 268.671 310.305 C 266.872 312.158 265.269 315.863 263.598 318.748 C 263.143 319.535 262.525 320.227 261.981 320.962 C 258.591 317.672 252.789 321.537 249.668 316.687 C 248.953 315.574 246.176 315.788 244.27 315.375 C 243.476 310.89 248.297 305.361 254.177 304.255 C 261.015 302.969 261.079 302.345 258.913 295.601 C 255.523 285.046 251.944 274.47 249.762 263.638 C 248.241 256.087 249.177 248.071 248.534 240.303 C 248.134 235.462 246.837 230.696 245.791 225.593 Z" transform="matrix(0.9999999999999999, 0, 0, 0.9999999999999999, 2.842170943040401e-14, 2.842170943040401e-14)"/>
  <path fill="#DE8F59" opacity="1.000000" stroke="none" d="M 269.974 338.833 C 275.067 341.36 279.686 344.078 285.424 342.958 C 286.295 342.788 288.37 344.213 288.303 344.664 C 288.092 346.079 287.291 348.42 286.422 348.561 C 280.296 349.548 274.1 350.113 267.919 350.735 C 261.441 351.387 254.957 351.982 248.47 352.543 C 245.084 352.836 241.687 353.003 238.479 353.215 C 238.16 349.527 237.939 346.626 237.649 343.731 C 237.345 340.701 238.441 339.134 241.155 337.1 C 250.317 330.23 258.753 332.427 267.413 337.537 C 268.128 337.958 268.896 338.288 269.974 338.833 Z" transform="matrix(0.9999999999999999, 0, 0, 0.9999999999999999, 2.842170943040401e-14, 2.842170943040401e-14)"/>
  <path fill="#DE8F59" opacity="1.000000" stroke="none" d="M 345.09 230.124 C 345.425 227.495 345.525 224.437 346.98 222.302 C 347.736 221.192 351.863 220.79 352.732 221.709 C 354.129 223.186 354.088 226.023 354.688 228.721 C 354.058 228.757 353.301 227.915 352.75 228.034 C 350.273 228.566 347.855 229.37 345.09 230.124 Z" transform="matrix(0.9999999999999999, 0, 0, 0.9999999999999999, 2.842170943040401e-14, 2.842170943040401e-14)"/>
  <path fill="#F8CFB6" opacity="1.000000" stroke="none" d="M 157.586 204.009 C 150.329 206.685 144.117 210.764 138.534 216.255 C 136.683 218.075 132.349 218.078 129.335 217.642 C 128.223 217.481 127.219 213.721 126.893 211.496 C 125.465 201.759 128.404 192.967 134.184 185.352 C 138.147 180.132 135.666 174.828 135.741 169.578 C 135.9 158.38 135.766 147.176 135.629 135.976 C 135.533 128.067 138.27 121.595 144.695 116.818 C 144.96 116.621 145.23 116.389 145.398 116.113 C 151.692 105.776 161.217 106.774 171.126 108.574 C 175.969 109.453 180.918 109.748 186.05 110.333 C 186.779 106.869 187.412 103.862 188.36 99.354 C 189.97 102.448 191.406 104.274 191.886 106.324 C 192.934 110.794 196.15 111.952 199.987 113.236 C 212.053 117.273 223.98 121.725 236.47 126.514 C 237.529 132.094 238.562 137.179 238.537 142.259 C 238.463 156.868 237.886 171.475 237.656 186.085 C 237.509 195.404 237.679 204.727 237.587 214.048 C 237.568 215.992 237.027 217.932 236.726 219.874 C 232.137 220.873 227.503 221.709 222.974 222.933 C 220.357 223.64 218.964 223.208 217.419 220.757 C 215.086 217.055 212.032 213.806 209.129 209.889 C 209.578 208.644 210.116 207.81 210.798 207.117 C 215.246 202.598 214.673 199.327 208.574 197.733 C 200.3 195.569 191.909 193.779 183.49 192.265 C 172.295 190.252 164.393 196.054 157.586 204.009 Z" transform="matrix(0.9999999999999999, 0, 0, 0.9999999999999999, 2.842170943040401e-14, 2.842170943040401e-14)"/>
  <path fill="#EAA779" opacity="1.000000" stroke="none" d="M 237.109 219.924 C 237.027 217.932 237.568 215.992 237.587 214.048 C 237.679 204.727 237.509 195.404 237.656 186.085 C 237.886 171.475 238.463 156.868 238.537 142.259 C 238.562 137.179 237.529 132.094 236.794 126.658 C 240.979 128.192 244.627 125.818 248.369 124.241 C 263.788 117.74 279.614 112.655 296.563 114.329 C 304.517 115.115 312.287 117.767 320.29 120.124 C 320.783 121.88 320.742 123.688 321.533 124.194 C 327.476 127.994 333.583 131.538 339.639 135.162 C 339.639 135.162 339.619 135.16 339.613 135.497 C 339.636 136.296 339.665 136.758 339.694 137.22 C 339.655 138.603 339.617 139.986 339.298 142.109 C 338.558 149.619 337.887 156.383 337.694 163.16 C 337.444 171.942 335.86 180.862 342.315 188.741 C 344.014 190.815 344.445 196.037 343.01 198.155 C 339.438 203.426 340.81 208.827 340.575 214.24 C 339.133 213.575 337.385 213.229 336.299 212.19 C 330.842 206.97 324.517 203.381 316.744 200.98 C 315.679 200.458 315.145 200.303 314.611 200.148 C 314.611 200.148 314.631 200.147 314.589 199.805 C 309.933 193.015 302.686 191.758 296.091 192.8 C 286.914 194.25 278.045 197.736 269.115 200.573 C 267.437 201.106 266.091 202.682 263.889 204.29 C 265.915 205.972 267.28 207.106 268.646 208.239 C 265.199 212.374 261.9 216.648 258.201 220.544 C 257.278 221.516 255.043 221.62 253.453 221.512 C 248.122 221.149 242.81 220.509 237.109 219.924 Z" transform="matrix(0.9999999999999999, 0, 0, 0.9999999999999999, 2.842170943040401e-14, 2.842170943040401e-14)"/>
  <path fill="#F6CFB7" opacity="1.000000" stroke="none" d="M 184.642 278.174 C 171.759 281.322 153.467 274.231 145.788 263.422 C 139.904 255.14 136.348 246.107 135.68 235.874 C 134.932 224.41 142.093 212.88 153.479 208.903 C 170.306 203.026 187.164 202.816 203.203 210.941 C 212.071 215.433 216.764 223.493 217.741 233.82 C 218.885 245.915 215.438 256.258 207.856 265.478 C 201.919 272.698 194.284 276.83 184.642 278.174 M 197.052 221.851 C 201.844 222.999 205.582 225.189 206.739 230.545 C 206.939 231.471 208.748 232.049 209.813 232.788 C 210.25 231.323 211.436 229.518 210.959 228.469 C 210.126 226.635 208.361 225.169 206.821 223.726 C 204.661 221.702 202.454 219.697 200.069 217.954 C 198.176 216.569 195.736 214.308 193.975 214.654 C 186.926 216.039 179.748 217.606 173.217 220.471 C 169.134 222.262 166.122 226.491 162.456 229.782 C 167.843 233.68 169.62 228.61 172.683 227.534 C 173.626 227.203 174.722 227.307 175.668 227.996 C 175.556 233.472 178.338 237.285 183.169 239.158 C 187.817 240.96 192.324 240.004 195.74 236.032 C 199.28 231.915 199.497 227.709 197.052 221.851 Z" transform="matrix(0.9999999999999999, 0, 0, 0.9999999999999999, 2.842170943040401e-14, 2.842170943040401e-14)"/>
  <path fill="#EAA778" opacity="1.000000" stroke="none" d="M 271.696 211.275 C 277.341 209.08 282.82 206.123 288.665 204.851 C 300.476 202.279 312.28 202.734 323.645 207.666 C 334.253 212.27 340.307 221.741 340.698 233.264 C 341.356 252.628 328.373 271.997 307.486 275.443 C 300.373 276.617 292.771 274.829 285.25 273.964 C 285.151 271.561 284.582 269.297 285.357 267.673 C 287.386 263.422 289.895 259.385 292.408 255.385 C 295.97 249.714 303.203 245.536 299.786 236.769 C 300.548 235.023 301.152 233.572 301.982 231.87 C 304.55 226.659 306.803 230.489 309.166 231.621 C 310.189 232.111 311.409 232.189 312.54 232.454 C 312.516 231.266 312.94 229.787 312.391 228.939 C 309.631 224.679 306.14 221.313 300.619 221.149 C 300.627 221.149 300.632 221.168 300.566 220.824 C 295.76 217.019 291.373 213.404 284.555 215.796 C 279.662 217.512 274.724 216.361 271.696 211.275 Z" transform="matrix(0.9999999999999999, 0, 0, 0.9999999999999999, 2.842170943040401e-14, 2.842170943040401e-14)"/>
  <path fill="#DE8F59" opacity="1.000000" stroke="none" d="M 271.372 211.373 C 274.724 216.361 279.662 217.512 284.555 215.796 C 291.373 213.404 295.76 217.019 300.221 220.675 C 297.574 220.163 295.234 219.347 292.836 218.766 C 281.824 216.097 279.093 222.571 280.241 231.971 C 281.26 240.324 292.836 243.249 299.627 237.064 C 303.203 245.536 295.97 249.714 292.408 255.385 C 289.895 259.385 287.386 263.422 285.357 267.673 C 284.582 269.297 285.151 271.561 284.902 273.781 C 272.036 270.365 264.19 261.892 260.561 249.447 C 256.971 237.135 258.09 225.514 266.602 215.318 C 267.841 213.833 269.554 212.744 271.372 211.373 Z" transform="matrix(0.9999999999999999, 0, 0, 0.9999999999999999, 2.842170943040401e-14, 2.842170943040401e-14)"/>
  <path fill="#EAA779" opacity="1.000000" stroke="none" d="M 157.987 204.016 C 164.393 196.054 172.295 190.252 183.49 192.265 C 191.909 193.779 200.3 195.569 208.574 197.733 C 214.673 199.327 215.246 202.598 210.798 207.117 C 210.116 207.81 209.578 208.644 208.838 209.716 C 200.899 204.987 192.471 201.789 183.076 202.209 C 174.836 202.577 166.617 203.401 157.987 204.016 Z" transform="matrix(0.9999999999999999, 0, 0, 0.9999999999999999, 2.842170943040401e-14, 2.842170943040401e-14)"/>
  <path fill="#DE8F59" opacity="1.000000" stroke="none" d="M 340.881 214.511 C 340.81 208.827 339.438 203.426 343.01 198.155 C 344.445 196.037 344.014 190.815 342.315 188.741 C 335.86 180.862 337.444 171.942 337.694 163.16 C 337.887 156.383 338.558 149.619 339.258 142.522 C 339.541 152.168 339.429 162.147 339.75 172.111 C 339.818 174.242 340.949 176.831 342.458 178.342 C 351.936 187.831 356.353 198.729 352.443 212.037 C 352.064 213.326 350.043 214.724 348.595 214.971 C 346.207 215.38 343.664 214.892 340.881 214.511 Z" transform="matrix(0.9999999999999999, 0, 0, 0.9999999999999999, 2.842170943040401e-14, 2.842170943040401e-14)"/>
  <path fill="#DE8F59" opacity="1.000000" stroke="none" d="M 268.944 208.068 C 267.28 207.106 265.915 205.972 263.889 204.29 C 266.091 202.682 267.437 201.106 269.115 200.573 C 278.045 197.736 286.914 194.25 296.091 192.8 C 302.686 191.758 309.933 193.015 314.591 199.815 C 304.599 200.5 294.53 200.447 284.542 201.315 C 278.969 201.8 273.047 202.719 268.944 208.068 Z" transform="matrix(0.9999999999999999, 0, 0, 0.9999999999999999, 2.842170943040401e-14, 2.842170943040401e-14)"/>
  <path fill="#DE8F59" opacity="1.000000" stroke="none" d="M 339.599 134.817 C 333.583 131.538 327.476 127.994 321.533 124.194 C 320.742 123.688 320.783 121.88 320.541 120.372 C 327.774 123.786 335.062 127.296 339.599 134.817 Z" transform="matrix(0.9999999999999999, 0, 0, 0.9999999999999999, 2.842170943040401e-14, 2.842170943040401e-14)"/>
  <path fill="#DE8F59" opacity="1.000000" stroke="none" d="M 339.906 137.054 C 339.665 136.758 339.636 136.296 339.613 135.487 C 339.786 135.723 339.952 136.306 339.906 137.054 Z" transform="matrix(0.9999999999999999, 0, 0, 0.9999999999999999, 2.842170943040401e-14, 2.842170943040401e-14)"/>
  <path fill="#DE8F59" opacity="1.000000" stroke="none" d="M 314.771 200.395 C 315.145 200.303 315.679 200.458 316.406 200.818 C 316.043 200.896 315.487 200.769 314.771 200.395 Z" transform="matrix(0.9999999999999999, 0, 0, 0.9999999999999999, 2.842170943040401e-14, 2.842170943040401e-14)"/>
  <path opacity="1.000000" stroke="none" d="M 196.645 222.254 C 199.497 227.709 199.28 231.915 195.74 236.032 C 192.324 240.004 187.817 240.96 183.169 239.158 C 178.338 237.285 175.556 233.472 175.96 227.355 C 177.996 224.264 179.249 220.508 181.584 219.63 C 186.699 217.706 192.264 217.763 196.645 222.254 Z" style="" transform="matrix(0.9999999999999999, 0, 0, 0.9999999999999999, 2.842170943040401e-14, 2.842170943040401e-14)"/>
  <path fill="#EAA779" opacity="1.000000" stroke="none" d="M 196.849 222.052 C 192.264 217.763 186.699 217.706 181.584 219.63 C 179.249 220.508 177.996 224.264 176 226.963 C 174.722 227.307 173.626 227.203 172.683 227.534 C 169.62 228.61 167.843 233.68 162.456 229.782 C 166.122 226.491 169.134 222.262 173.217 220.471 C 179.748 217.606 186.926 216.039 193.975 214.654 C 195.736 214.308 198.176 216.569 200.069 217.954 C 202.454 219.697 204.661 221.702 206.821 223.726 C 208.361 225.169 210.126 226.635 210.959 228.469 C 211.436 229.518 210.25 231.323 209.813 232.788 C 208.748 232.049 206.939 231.471 206.739 230.545 C 205.582 225.189 201.844 222.999 196.849 222.052 Z" transform="matrix(0.9999999999999999, 0, 0, 0.9999999999999999, 2.842170943040401e-14, 2.842170943040401e-14)"/>
  <path opacity="1.000000" stroke="none" d="M 299.786 236.769 C 292.836 243.249 281.26 240.324 280.241 231.971 C 279.093 222.571 281.824 216.097 292.836 218.766 C 295.234 219.347 297.574 220.163 300.286 221.019 C 300.632 221.168 300.627 221.149 300.814 221.44 C 301.252 225.194 301.504 228.657 301.755 232.121 C 301.152 233.572 300.548 235.023 299.786 236.769 Z" style="" transform="matrix(0.9999999999999999, 0, 0, 0.9999999999999999, 2.842170943040401e-14, 2.842170943040401e-14)"/>
  <path fill="#DE8F59" opacity="1.000000" stroke="none" d="M 301.982 231.87 C 301.504 228.657 301.252 225.194 300.805 221.44 C 306.14 221.313 309.631 224.679 312.391 228.939 C 312.94 229.787 312.516 231.266 312.54 232.454 C 311.409 232.189 310.189 232.111 309.166 231.621 C 306.803 230.489 304.55 226.659 301.982 231.87 Z" transform="matrix(0.9999999999999999, 0, 0, 0.9999999999999999, 2.842170943040401e-14, 2.842170943040401e-14)"/>
</svg>