<?xml version="1.0" encoding="utf-8"?>
<svg viewBox="0 0 500 500" xmlns="http://www.w3.org/2000/svg">
  <path fill="#F8D0B7" opacity="1.000000" stroke="none" d="M 159.961 391.22 C 158.917 384.659 158.03 378.068 156.757 371.552 C 156.187 368.633 154.782 365.886 153.861 363.026 C 149.493 349.471 145.218 335.884 140.748 322.362 C 140.16 320.583 138.967 318.141 137.502 317.65 C 124.609 313.324 118.113 303.719 113.673 291.501 C 107.827 275.413 104.867 258.801 102.921 241.952 C 102.296 236.534 102.412 230.945 102.922 225.503 C 103.569 218.605 105.561 217.179 112.351 217.177 C 114.182 217.177 116.014 217.174 118.344 217.452 C 119.114 219.198 119.386 220.664 119.678 222.503 C 120.438 223.694 121.024 224.896 121.943 225.262 C 125.867 226.825 127.307 229.948 127.741 233.778 C 128.095 236.899 128.328 240.034 128.637 243.161 C 129.156 248.394 129.692 253.624 130.221 258.856 C 130.687 258.846 131.154 258.836 131.62 258.826 C 131.726 257.123 131.836 255.42 131.937 253.716 C 132.289 247.774 132.459 241.811 133.127 235.904 C 133.273 234.618 135.198 233.532 136.304 232.354 C 137.441 233.679 138.705 234.92 139.652 236.369 C 140.034 236.953 139.74 237.994 139.717 238.825 C 139.364 251.413 143.453 262.308 151.121 272.34 C 169.715 296.666 208.803 295.098 223.922 263.891 C 226.224 259.14 228.982 253.959 229.093 248.923 C 229.395 235.219 226.479 234.52 241.889 231.443 C 242.206 231.38 242.551 231.449 243.07 231.811 C 243.448 233.966 243.829 235.769 243.799 237.565 C 243.516 255.006 242.785 272.449 242.943 289.885 C 243.09 306.124 244.239 322.353 244.79 338.591 C 245 344.766 243.871 345.618 238.215 342.773 C 231.855 339.575 226.48 340.203 220.585 344.099 C 215.476 347.475 210.704 352.236 203.553 351.307 C 202.449 351.163 201.129 352.685 199.908 353.437 C 201.011 354.643 201.906 356.376 203.272 356.916 C 204.868 357.547 206.879 357.224 208.704 357.163 C 219.09 356.816 229.481 355.893 239.677 359.123 C 242.183 359.917 243.806 360.609 243.869 363.62 C 244.078 373.572 244.591 383.517 244.797 393.469 C 244.956 401.123 244.811 408.783 244.843 416.441 C 244.85 418.209 245.031 419.977 245.127 421.654 C 247.506 422.069 249.336 422.389 251.166 422.708 C 251.092 423.324 251.019 423.941 250.945 424.557 C 241.881 423.679 232.817 422.801 223.754 421.922 C 231.335 425.65 239.164 428.631 247.146 431.124 C 250.764 432.254 252.853 433.656 252.894 437.86 C 253.071 456.301 253.495 474.739 253.829 493.178 C 240.475 493.178 227.12 493.178 213.298 493.178 C 212.243 492.513 211.765 491.463 211.048 491.26 C 209.273 490.757 207.388 490.641 204.909 489.994 C 202.293 488.191 200.08 486.994 198.386 485.283 C 195.242 482.108 192.339 478.685 189.444 475.273 C 174.688 457.881 163.775 438.84 162.726 415.257 C 162.368 407.22 160.914 399.231 159.961 391.22 Z"/>
  <path fill="#EAA779" opacity="1.000000" stroke="none" d="M 254.298 493.178 C 253.495 474.739 253.071 456.301 252.894 437.86 C 252.853 433.656 250.764 432.254 247.146 431.124 C 239.164 428.631 231.335 425.65 223.754 421.922 C 232.817 422.801 241.881 423.679 250.945 424.557 C 251.019 423.941 251.092 423.324 251.166 422.708 C 249.336 422.389 247.506 422.069 245.127 421.654 C 245.031 419.977 244.85 418.209 244.843 416.441 C 244.811 408.783 244.956 401.123 244.797 393.469 C 244.591 383.517 244.078 373.572 243.869 363.62 C 243.806 360.609 242.183 359.917 239.677 359.123 C 229.481 355.893 219.09 356.816 208.704 357.163 C 206.879 357.224 204.868 357.547 203.272 356.916 C 201.906 356.376 201.011 354.643 199.908 353.437 C 201.129 352.685 202.449 351.163 203.553 351.307 C 210.704 352.236 215.476 347.475 220.585 344.099 C 226.48 340.203 231.855 339.575 238.215 342.773 C 243.871 345.618 245 344.766 244.79 338.591 C 244.239 322.353 243.09 306.124 242.943 289.885 C 242.785 272.449 243.516 255.006 243.799 237.565 C 243.829 235.769 243.448 233.966 243.465 231.762 C 246.73 231.677 249.786 231.995 252.994 232.616 C 254.04 237.719 255.337 242.485 255.737 247.326 C 256.38 255.094 255.444 263.11 256.965 270.661 C 259.147 281.493 262.726 292.069 266.116 302.624 C 268.282 309.368 268.218 309.992 261.38 311.278 C 255.5 312.384 250.679 317.913 251.473 322.398 C 253.379 322.811 256.156 322.597 256.871 323.71 C 259.992 328.56 265.794 324.695 269.184 327.985 C 269.728 327.25 270.346 326.558 270.801 325.771 C 272.472 322.886 274.075 319.181 275.874 317.328 C 278.518 314.604 279.857 311.738 279.606 308.907 C 278.739 299.1 288.201 294.775 290.663 286.833 C 290.826 286.31 292.774 286.34 294.326 286.136 C 296.088 286.238 297.435 286.201 298.742 286.412 C 313.336 288.767 326.066 284.568 336.689 274.678 C 347.445 264.666 352.16 251.844 352.293 237.147 C 355.058 236.393 357.476 235.589 359.953 235.057 C 360.504 234.938 361.261 235.78 362.183 236.501 C 362.594 242.25 362.745 247.678 362.925 253.457 C 363.6 254.734 364.086 255.848 364.918 256.553 C 369.619 260.536 372.322 268.499 368.918 273.286 C 365.484 278.115 364.956 283.191 364.216 288.512 C 363.128 296.327 362.006 304.138 360.597 312.184 C 359.511 314.207 358.447 315.928 357.991 317.798 C 355.99 325.985 354.309 334.253 352.235 342.421 C 350.206 350.412 347.84 358.317 345.304 366.331 C 344.6 366.702 344.127 366.934 343.842 367.309 C 337.447 375.721 330.94 384.053 324.76 392.62 C 322.395 395.9 320.368 399.569 318.96 403.348 C 317.737 406.63 317.226 410.307 317.121 413.83 C 317.048 416.256 318.172 418.727 318.823 421.161 C 319.345 423.113 320.493 425.062 320.414 426.973 C 320.283 430.172 319.164 433.318 318.87 436.525 C 318.06 445.345 317.499 454.187 316.735 463.011 C 316.641 464.102 315.736 465.101 315.51 466.204 C 314.224 472.463 313.03 478.74 311.806 485.011 C 304.165 486.733 296.526 488.467 288.882 490.173 C 285.327 490.966 281.76 491.706 278.514 492.824 C 270.808 493.178 262.787 493.178 254.298 493.178 M 276.842 345.684 C 276.099 345.311 275.331 344.981 274.616 344.56 C 265.956 339.45 257.52 337.253 248.358 344.123 C 245.644 346.157 244.548 347.724 244.852 350.754 C 245.142 353.649 245.363 356.55 245.682 360.238 C 248.89 360.026 252.287 359.859 255.673 359.566 C 262.16 359.005 268.644 358.41 275.122 357.758 C 281.303 357.136 287.499 356.571 293.625 355.584 C 294.494 355.443 295.295 353.102 295.506 351.687 C 295.573 351.236 293.498 349.811 292.627 349.981 C 286.889 351.101 282.27 348.383 276.842 345.684 Z"/>
  <path fill="#C1CCCC" opacity="1.000000" stroke="none" d="M 344.924 397.075 C 349.428 400.125 354.368 402.695 358.352 406.316 C 369.824 416.742 373.514 430.498 376.296 445.415 C 378.43 456.861 372.885 460.744 364.837 464.167 C 349.497 470.691 334.013 476.877 318.318 482.828 C 325.607 469.88 333.271 457.368 340.639 444.683 C 342.172 442.044 343.413 438.76 343.384 435.787 C 343.322 429.497 341.666 423.189 341.907 416.936 C 342.164 410.287 343.858 403.693 344.924 397.075 Z"/>
  <path fill="#DE905A" opacity="1.000000" stroke="none" d="M 360.899 311.951 C 362.006 304.138 363.128 296.327 364.216 288.512 C 364.956 283.191 365.484 278.115 368.918 273.286 C 372.322 268.499 369.619 260.536 364.918 256.553 C 364.086 255.848 363.6 254.734 363.23 253.568 C 363.943 252.841 364.721 252.383 364.765 251.864 C 365.191 246.795 365.177 241.669 365.933 236.656 C 366.553 232.548 365.921 227.13 370.772 225.367 C 376.334 223.345 377.826 218.844 380.109 214.136 C 384.723 211.501 387.675 211.773 391.283 214.016 C 391.283 214.016 392.415 214.923 392.746 215.517 C 396.552 223.721 396.061 232.112 395.695 240.499 C 395.607 242.516 393.606 251.649 393.161 253.504 C 391.64 259.859 390.23 266.241 388.777 272.612 C 388.777 272.612 385.898 281.146 385.782 281.605 C 385.782 281.605 383.898 286.146 383.782 286.605 C 383.782 286.605 379.967 294.874 379.869 295.258 C 379.869 295.258 377.93 298.172 377.783 298.604 C 377.783 298.604 376.003 300.906 375.861 301.262 C 375.861 301.262 374.003 303.906 373.861 304.262 C 373.861 304.262 372.312 305.527 371.875 306.258 C 371.875 306.258 371.003 306.906 370.861 307.262 C 370.861 307.262 370.003 307.906 369.861 308.262 C 369.861 308.262 369.003 308.906 368.861 309.262 C 368.861 309.262 367.75 309.776 367.487 310.098 C 367.487 310.098 365.84 310.789 365.494 311.098 C 365.494 311.098 363.84 311.789 363.494 312.098 C 363.494 312.098 361.43 311.937 360.899 311.951 Z"/>
  <path fill="#DF905B" opacity="1.000000" stroke="none" d="M 344.904 396.646 C 343.858 403.693 342.164 410.287 341.907 416.936 C 341.666 423.189 343.322 429.497 343.384 435.787 C 343.413 438.76 342.172 442.044 340.639 444.683 C 333.271 457.368 325.607 469.88 317.928 482.767 C 316.046 483.699 314.285 484.318 312.164 484.974 C 313.03 478.74 314.224 472.463 315.51 466.204 C 315.736 465.101 316.641 464.102 316.735 463.011 C 317.499 454.187 318.06 445.345 318.87 436.525 C 319.164 433.318 320.283 430.172 320.414 426.973 C 320.493 425.062 319.345 423.113 318.823 421.161 C 318.172 418.727 317.048 416.256 317.121 413.83 C 317.226 410.307 317.737 406.63 318.96 403.348 C 320.368 399.569 322.395 395.9 324.76 392.62 C 330.94 384.053 337.447 375.721 343.842 367.309 C 344.127 366.934 344.6 366.702 345.347 366.776 C 345.451 374.84 345.194 382.533 344.937 390.225 C 344.919 392.223 344.902 394.22 344.904 396.646 Z"/>
  <path fill="#C1CCCC" opacity="1.000000" stroke="none" d="M 159.88 391.646 C 160.914 399.231 162.368 407.22 162.726 415.257 C 163.775 438.84 174.688 457.881 189.444 475.273 C 192.339 478.685 195.242 482.108 198.386 485.283 C 200.08 486.994 202.293 488.191 204.525 489.833 C 197.13 488.762 189.277 488.182 181.881 486.032 C 170.186 482.632 158.716 478.394 147.312 474.084 C 141.25 471.793 135.526 468.606 128.579 465.317 C 135.061 461.958 133.859 456.704 133.808 451.861 C 133.683 439.848 134.954 428.085 141.124 417.505 C 144.735 411.315 148.374 404.829 155.526 401.889 C 160.325 399.917 159.941 396.02 159.88 391.646 Z"/>
  <path opacity="1.000000" stroke="none" d="M 119.678 222.503 C 120.08 220.835 121.079 219.417 120.834 218.263 C 118.762 208.475 116.384 198.752 114.268 188.973 C 113.333 184.656 112.79 180.254 111.878 175.536 C 111.055 164.778 109.524 154.332 110.032 143.985 C 110.587 132.689 112.694 121.424 114.724 110.255 C 118.232 90.957 128.323 75.055 141.534 60.981 C 146.419 55.777 151.647 50.894 156.763 45.517 C 159.188 43.953 162.138 43.265 163.842 41.424 C 169.7 35.094 176.959 31.498 184.603 27.711 C 194.85 22.635 205.532 19.721 216.48 18.013 C 233.102 15.419 249.881 13.012 266.732 16.962 C 273.453 18.537 280.255 19.77 287.417 21.197 C 289.568 21.869 291.323 22.503 293.444 23.14 C 302.407 27.26 310.864 31.705 319.638 35.401 C 328.093 38.962 335.273 44.216 342.454 50.188 C 342.863 50.586 342.81 51.071 343.007 51.216 C 352.597 58.291 357.941 68.897 365.535 78.02 C 369.077 84.581 372.255 91.036 375.553 97.428 C 381.596 109.142 383.19 121.812 383.906 134.725 C 384.357 142.874 385.577 150.999 385.667 159.144 C 385.761 167.722 385.368 176.365 384.345 184.879 C 383.513 191.804 381.437 198.579 379.954 205.834 C 378.939 208.941 377.884 211.636 376.696 214.668 C 377.219 214.609 378.153 214.502 379.41 214.348 C 377.826 218.844 376.334 223.345 370.772 225.367 C 365.921 227.13 366.553 232.548 365.933 236.656 C 365.177 241.669 365.191 246.795 364.765 251.864 C 364.721 252.383 363.943 252.841 363.201 253.217 C 362.745 247.678 362.594 242.25 362.15 236.065 C 361.291 233.046 361.332 230.209 359.935 228.732 C 359.066 227.813 354.939 228.215 354.183 229.325 C 352.728 231.46 352.628 234.518 351.967 237.194 C 352.16 251.844 347.445 264.666 336.689 274.678 C 326.066 284.568 313.336 288.767 298.742 286.412 C 297.435 286.201 296.088 286.238 294.08 285.877 C 279.934 281.373 269.693 273.652 264.801 259.829 C 263.507 256.173 261.471 252.779 259.582 248.862 C 264.019 240.784 262.187 232.646 252.843 232.313 C 249.786 231.995 246.73 231.677 243.278 231.408 C 242.551 231.449 242.206 231.38 241.889 231.443 C 226.479 234.52 229.395 235.219 229.093 248.923 C 228.982 253.959 226.224 259.14 223.922 263.891 C 208.803 295.098 169.715 296.666 151.121 272.34 C 143.453 262.308 139.364 251.413 139.717 238.825 C 139.74 237.994 140.034 236.953 139.652 236.369 C 138.705 234.92 137.441 233.679 136.304 232.354 C 135.198 233.532 133.273 234.618 133.127 235.904 C 132.459 241.811 132.289 247.774 131.937 253.716 C 131.836 255.42 131.726 257.123 131.62 258.826 C 131.154 258.836 130.687 258.846 130.221 258.856 C 129.692 253.624 129.156 248.394 128.637 243.161 C 128.328 240.034 128.095 236.899 127.741 233.778 C 127.307 229.948 125.867 226.825 121.943 225.262 C 121.024 224.896 120.438 223.694 119.678 222.503 M 346.822 142.183 C 346.822 142.183 346.842 142.185 346.762 141.494 C 342.265 134.319 334.977 130.809 327.344 126.596 C 319.49 124.79 311.72 122.138 303.766 121.352 C 286.817 119.678 270.991 124.763 255.572 131.264 C 251.83 132.841 248.182 135.215 243.164 133.039 C 231.183 128.748 219.256 124.296 207.19 120.259 C 203.353 118.975 200.137 117.817 199.089 113.347 C 198.609 111.297 197.173 109.471 195.563 106.377 C 194.615 110.885 193.982 113.892 193.253 117.356 C 188.121 116.771 183.172 116.476 178.329 115.597 C 168.42 113.797 158.895 112.799 152.601 123.136 C 152.433 123.412 152.163 123.644 151.898 123.841 C 145.473 128.618 142.736 135.09 142.832 142.999 C 142.969 154.199 143.103 165.403 142.944 176.601 C 142.869 181.851 145.35 187.155 141.387 192.375 C 135.607 199.99 132.668 208.782 134.096 218.519 C 134.422 220.744 135.426 224.504 136.538 224.665 C 139.552 225.101 143.886 225.098 145.737 223.278 C 151.32 217.787 157.532 213.708 165.592 211.047 C 173.82 210.424 182.039 209.6 190.279 209.232 C 199.674 208.812 208.102 212.01 216.487 217.388 C 219.235 220.829 222.289 224.078 224.622 227.78 C 226.167 230.231 227.56 230.663 230.177 229.956 C 234.706 228.732 239.34 227.896 244.694 226.998 C 250.013 227.532 255.325 228.172 260.656 228.535 C 262.246 228.643 264.481 228.539 265.404 227.567 C 269.103 223.671 272.402 219.397 276.446 214.919 C 280.25 209.742 286.172 208.823 291.745 208.338 C 301.733 207.47 311.802 207.523 321.834 207.17 C 321.834 207.17 321.814 207.171 322.134 207.665 C 322.69 207.792 323.246 207.919 324.478 208.369 C 331.72 210.404 338.045 213.993 343.502 219.213 C 344.588 220.252 346.336 220.598 348.389 221.805 C 350.867 221.915 353.41 222.403 355.798 221.994 C 357.246 221.747 359.267 220.349 359.646 219.06 C 363.556 205.752 359.139 194.854 349.661 185.365 C 348.152 183.854 347.021 181.265 346.953 179.134 C 346.632 169.17 346.744 159.191 346.782 148.392 C 346.82 147.009 346.858 145.626 347.321 143.912 C 347.155 143.329 346.989 142.746 346.822 142.183 M 278.25 218.494 C 276.757 219.767 275.044 220.856 273.805 222.341 C 265.293 232.537 264.174 244.158 267.764 256.47 C 271.393 268.915 279.239 277.388 292.596 281.418 C 299.974 281.852 307.576 283.64 314.689 282.466 C 335.576 279.02 348.559 259.651 347.901 240.287 C 347.51 228.764 341.456 219.293 330.848 214.689 C 319.483 209.757 307.679 209.302 295.868 211.874 C 290.023 213.146 284.544 216.103 278.25 218.494 M 192.278 285.174 C 201.487 283.853 209.122 279.721 215.059 272.501 C 222.641 263.281 226.088 252.938 224.944 240.843 C 223.967 230.516 219.274 222.456 210.406 217.964 C 194.367 209.839 177.509 210.049 160.682 215.926 C 149.296 219.903 142.135 231.433 142.883 242.897 C 143.551 253.13 147.107 262.163 152.991 270.445 C 160.67 281.254 178.962 288.345 192.278 285.174 Z" style=""/>
  <path fill="#DE8F59" opacity="1.000000" stroke="none" d="M 252.994 232.616 C 262.187 232.646 264.019 240.784 259.582 248.862 C 261.471 252.779 263.507 256.173 264.801 259.829 C 269.693 273.652 279.934 281.373 293.646 285.853 C 292.774 286.34 290.826 286.31 290.663 286.833 C 288.201 294.775 278.739 299.1 279.606 308.907 C 279.857 311.738 278.518 314.604 275.874 317.328 C 274.075 319.181 272.472 322.886 270.801 325.771 C 270.346 326.558 269.728 327.25 269.184 327.985 C 265.794 324.695 259.992 328.56 256.871 323.71 C 256.156 322.597 253.379 322.811 251.473 322.398 C 250.679 317.913 255.5 312.384 261.38 311.278 C 268.218 309.992 268.282 309.368 266.116 302.624 C 262.726 292.069 259.147 281.493 256.965 270.661 C 255.444 263.11 256.38 255.094 255.737 247.326 C 255.337 242.485 254.04 237.719 252.994 232.616 Z"/>
  <path fill="#DE8F59" opacity="1.000000" stroke="none" d="M 277.177 345.856 C 282.27 348.383 286.889 351.101 292.627 349.981 C 293.498 349.811 295.573 351.236 295.506 351.687 C 295.295 353.102 294.494 355.443 293.625 355.584 C 287.499 356.571 281.303 357.136 275.122 357.758 C 268.644 358.41 262.16 359.005 255.673 359.566 C 252.287 359.859 248.89 360.026 245.682 360.238 C 245.363 356.55 245.142 353.649 244.852 350.754 C 244.548 347.724 245.644 346.157 248.358 344.123 C 257.52 337.253 265.956 339.45 274.616 344.56 C 275.331 344.981 276.099 345.311 277.177 345.856 Z"/>
  <path fill="#DE8F59" opacity="1.000000" stroke="none" d="M 352.293 237.147 C 352.628 234.518 352.728 231.46 354.183 229.325 C 354.939 228.215 359.066 227.813 359.935 228.732 C 361.332 230.209 361.291 233.046 361.891 235.744 C 361.261 235.78 360.504 234.938 359.953 235.057 C 357.476 235.589 355.058 236.393 352.293 237.147 Z"/>
  <path fill="#F8CFB6" opacity="1.000000" stroke="none" d="M 164.789 211.032 C 157.532 213.708 151.32 217.787 145.737 223.278 C 143.886 225.098 139.552 225.101 136.538 224.665 C 135.426 224.504 134.422 220.744 134.096 218.519 C 132.668 208.782 135.607 199.99 141.387 192.375 C 145.35 187.155 142.869 181.851 142.944 176.601 C 143.103 165.403 142.969 154.199 142.832 142.999 C 142.736 135.09 145.473 128.618 151.898 123.841 C 152.163 123.644 152.433 123.412 152.601 123.136 C 158.895 112.799 168.42 113.797 178.329 115.597 C 183.172 116.476 188.121 116.771 193.253 117.356 C 193.982 113.892 194.615 110.885 195.563 106.377 C 197.173 109.471 198.609 111.297 199.089 113.347 C 200.137 117.817 203.353 118.975 207.19 120.259 C 219.256 124.296 231.183 128.748 243.673 133.537 C 244.732 139.117 245.765 144.202 245.74 149.282 C 245.666 163.891 245.089 178.498 244.859 193.108 C 244.712 202.427 244.882 211.75 244.79 221.071 C 244.771 223.015 244.23 224.955 243.929 226.897 C 239.34 227.896 234.706 228.732 230.177 229.956 C 227.56 230.663 226.167 230.231 224.622 227.78 C 222.289 224.078 219.235 220.829 216.332 216.912 C 216.781 215.667 217.319 214.833 218.001 214.14 C 222.449 209.621 221.876 206.35 215.777 204.756 C 207.503 202.592 199.112 200.802 190.693 199.288 C 179.498 197.275 171.596 203.077 164.789 211.032 Z"/>
  <path fill="#EAA779" opacity="1.000000" stroke="none" d="M 244.312 226.947 C 244.23 224.955 244.771 223.015 244.79 221.071 C 244.882 211.75 244.712 202.427 244.859 193.108 C 245.089 178.498 245.666 163.891 245.74 149.282 C 245.765 144.202 244.732 139.117 243.997 133.681 C 248.182 135.215 251.83 132.841 255.572 131.264 C 270.991 124.763 286.817 119.678 303.766 121.352 C 311.72 122.138 319.49 124.79 327.493 127.147 C 327.986 128.903 327.945 130.711 328.736 131.217 C 334.679 135.017 340.786 138.561 346.842 142.185 C 346.842 142.185 346.822 142.183 346.816 142.52 C 346.839 143.319 346.868 143.781 346.897 144.243 C 346.858 145.626 346.82 147.009 346.501 149.132 C 345.761 156.642 345.09 163.406 344.897 170.183 C 344.647 178.965 343.063 187.885 349.518 195.764 C 351.217 197.838 351.648 203.06 350.213 205.178 C 346.641 210.449 348.013 215.85 347.778 221.263 C 346.336 220.598 344.588 220.252 343.502 219.213 C 338.045 213.993 331.72 210.404 323.947 208.003 C 322.882 207.481 322.348 207.326 321.814 207.171 C 321.814 207.171 321.834 207.17 321.792 206.828 C 317.136 200.038 309.889 198.781 303.294 199.823 C 294.117 201.273 285.248 204.759 276.318 207.596 C 274.64 208.129 273.294 209.705 271.092 211.313 C 273.118 212.995 274.483 214.129 275.849 215.262 C 272.402 219.397 269.103 223.671 265.404 227.567 C 264.481 228.539 262.246 228.643 260.656 228.535 C 255.325 228.172 250.013 227.532 244.312 226.947 Z"/>
  <path fill="#F6CFB7" opacity="1.000000" stroke="none" d="M 191.845 285.197 C 178.962 288.345 160.67 281.254 152.991 270.445 C 147.107 262.163 143.551 253.13 142.883 242.897 C 142.135 231.433 149.296 219.903 160.682 215.926 C 177.509 210.049 194.367 209.839 210.406 217.964 C 219.274 222.456 223.967 230.516 224.944 240.843 C 226.088 252.938 222.641 263.281 215.059 272.501 C 209.122 279.721 201.487 283.853 191.845 285.197 M 204.255 228.874 C 209.047 230.022 212.785 232.212 213.942 237.568 C 214.142 238.494 215.951 239.072 217.016 239.811 C 217.453 238.346 218.639 236.541 218.162 235.492 C 217.329 233.658 215.564 232.192 214.024 230.749 C 211.864 228.725 209.657 226.72 207.272 224.977 C 205.379 223.592 202.939 221.331 201.178 221.677 C 194.129 223.062 186.951 224.629 180.42 227.494 C 176.337 229.285 173.325 233.514 169.659 236.805 C 175.046 240.703 176.823 235.633 179.886 234.557 C 180.829 234.226 181.925 234.33 182.871 235.019 C 182.759 240.495 185.541 244.308 190.372 246.181 C 195.02 247.983 199.527 247.027 202.943 243.055 C 206.483 238.938 206.7 234.732 204.255 228.874 Z"/>
  <path fill="#EAA778" opacity="1.000000" stroke="none" d="M 278.899 218.298 C 284.544 216.103 290.023 213.146 295.868 211.874 C 307.679 209.302 319.483 209.757 330.848 214.689 C 341.456 219.293 347.51 228.764 347.901 240.287 C 348.559 259.651 335.576 279.02 314.689 282.466 C 307.576 283.64 299.974 281.852 292.453 280.987 C 292.354 278.584 291.785 276.32 292.56 274.696 C 294.589 270.445 297.098 266.408 299.611 262.408 C 303.173 256.737 310.406 252.559 306.989 243.792 C 307.751 242.046 308.355 240.595 309.185 238.893 C 311.753 233.682 314.006 237.512 316.369 238.644 C 317.392 239.134 318.612 239.212 319.743 239.477 C 319.719 238.289 320.143 236.81 319.594 235.962 C 316.834 231.702 313.343 228.336 307.822 228.172 C 307.83 228.172 307.835 228.191 307.769 227.847 C 302.963 224.042 298.576 220.427 291.758 222.819 C 286.865 224.535 281.927 223.384 278.899 218.298 Z"/>
  <path fill="#DE8F59" opacity="1.000000" stroke="none" d="M 278.575 218.396 C 281.927 223.384 286.865 224.535 291.758 222.819 C 298.576 220.427 302.963 224.042 307.424 227.698 C 304.777 227.186 302.437 226.37 300.039 225.789 C 289.027 223.12 286.296 229.594 287.444 238.994 C 288.463 247.347 300.039 250.272 306.83 244.087 C 310.406 252.559 303.173 256.737 299.611 262.408 C 297.098 266.408 294.589 270.445 292.56 274.696 C 291.785 276.32 292.354 278.584 292.105 280.804 C 279.239 277.388 271.393 268.915 267.764 256.47 C 264.174 244.158 265.293 232.537 273.805 222.341 C 275.044 220.856 276.757 219.767 278.575 218.396 Z"/>
  <path opacity="1.000000" stroke="none" d="M 165.19 211.039 C 171.596 203.077 179.498 197.275 190.693 199.288 C 199.112 200.802 207.503 202.592 215.777 204.756 C 221.876 206.35 222.449 209.621 218.001 214.14 C 217.319 214.833 216.781 215.667 216.041 216.739 C 208.102 212.01 199.674 208.812 190.279 209.232 C 182.039 209.6 173.82 210.424 165.19 211.039 Z" style="fill: rgb(32, 32, 32);"/>
  <path fill="#DE8F59" opacity="1.000000" stroke="none" d="M 348.084 221.534 C 348.013 215.85 346.641 210.449 350.213 205.178 C 351.648 203.06 351.217 197.838 349.518 195.764 C 343.063 187.885 344.647 178.965 344.897 170.183 C 345.09 163.406 345.761 156.642 346.461 149.545 C 346.744 159.191 346.632 169.17 346.953 179.134 C 347.021 181.265 348.152 183.854 349.661 185.365 C 359.139 194.854 363.556 205.752 359.646 219.06 C 359.267 220.349 357.246 221.747 355.798 221.994 C 353.41 222.403 350.867 221.915 348.084 221.534 Z"/>
  <path opacity="1.000000" stroke="none" d="M 276.147 215.091 C 274.483 214.129 273.118 212.995 271.092 211.313 C 273.294 209.705 274.64 208.129 276.318 207.596 C 285.248 204.759 294.117 201.273 303.294 199.823 C 309.889 198.781 317.136 200.038 321.794 206.838 C 311.802 207.523 301.733 207.47 291.745 208.338 C 286.172 208.823 280.25 209.742 276.147 215.091 Z" style="fill: rgb(32, 32, 32);"/>
  <path fill="#DE8F59" opacity="1.000000" stroke="none" d="M 346.802 141.84 C 340.786 138.561 334.679 135.017 328.736 131.217 C 327.945 130.711 327.986 128.903 327.744 127.395 C 334.977 130.809 342.265 134.319 346.802 141.84 Z"/>
  <path fill="#DE8F59" opacity="1.000000" stroke="none" d="M 347.109 144.077 C 346.868 143.781 346.839 143.319 346.816 142.51 C 346.989 142.746 347.155 143.329 347.109 144.077 Z"/>
  <path fill="#DE8F59" opacity="1.000000" stroke="none" d="M 321.974 207.418 C 322.348 207.326 322.882 207.481 323.609 207.841 C 323.246 207.919 322.69 207.792 321.974 207.418 Z"/>
  <path opacity="1.000000" stroke="none" d="M 203.848 229.277 C 206.7 234.732 206.483 238.938 202.943 243.055 C 199.527 247.027 195.02 247.983 190.372 246.181 C 185.541 244.308 182.759 240.495 183.163 234.378 C 185.199 231.287 186.452 227.531 188.787 226.653 C 193.902 224.729 199.467 224.786 203.848 229.277 Z" style=""/>
  <path fill="#EAA779" opacity="1.000000" stroke="none" d="M 204.052 229.075 C 199.467 224.786 193.902 224.729 188.787 226.653 C 186.452 227.531 185.199 231.287 183.203 233.986 C 181.925 234.33 180.829 234.226 179.886 234.557 C 176.823 235.633 175.046 240.703 169.659 236.805 C 173.325 233.514 176.337 229.285 180.42 227.494 C 186.951 224.629 194.129 223.062 201.178 221.677 C 202.939 221.331 205.379 223.592 207.272 224.977 C 209.657 226.72 211.864 228.725 214.024 230.749 C 215.564 232.192 217.329 233.658 218.162 235.492 C 218.639 236.541 217.453 238.346 217.016 239.811 C 215.951 239.072 214.142 238.494 213.942 237.568 C 212.785 232.212 209.047 230.022 204.052 229.075 Z"/>
  <path opacity="1.000000" stroke="none" d="M 306.989 243.792 C 300.039 250.272 288.463 247.347 287.444 238.994 C 286.296 229.594 289.027 223.12 300.039 225.789 C 302.437 226.37 304.777 227.186 307.489 228.042 C 307.835 228.191 307.83 228.172 308.017 228.463 C 308.455 232.217 308.707 235.68 308.958 239.144 C 308.355 240.595 307.751 242.046 306.989 243.792 Z" style=""/>
  <path fill="#DE8F59" opacity="1.000000" stroke="none" d="M 309.185 238.893 C 308.707 235.68 308.455 232.217 308.008 228.463 C 313.343 228.336 316.834 231.702 319.594 235.962 C 320.143 236.81 319.719 238.289 319.743 239.477 C 318.612 239.212 317.392 239.134 316.369 238.644 C 314.006 237.512 311.753 233.682 309.185 238.893 Z"/>
</svg>