<?xml version="1.0" encoding="utf-8"?>
<svg viewBox="0 0 500 500" xmlns="http://www.w3.org/2000/svg">
  <path fill="#F8D0B7" opacity="1.000000" stroke="none" d="M 157.136 390.44 C 156.092 383.879 155.205 377.288 153.932 370.772 C 153.362 367.853 151.957 365.106 151.036 362.246 C 146.668 348.691 142.393 335.104 137.923 321.582 C 137.335 319.803 136.142 317.361 134.677 316.87 C 121.784 312.544 115.288 302.939 110.848 290.721 C 105.002 274.633 102.042 258.021 100.096 241.172 C 99.471 235.754 99.587 230.165 100.097 224.723 C 100.744 217.825 102.736 216.399 109.526 216.397 C 111.357 216.397 113.189 216.394 115.519 216.672 C 116.289 218.418 116.561 219.884 116.853 221.723 C 117.613 222.914 118.199 224.116 119.118 224.482 C 123.042 226.045 124.482 229.168 124.916 232.998 C 125.27 236.119 125.503 239.254 125.812 242.381 C 126.331 247.614 126.867 252.844 127.396 258.076 C 127.862 258.066 128.329 258.056 128.795 258.046 C 128.901 256.343 129.011 254.64 129.112 252.936 C 129.464 246.994 129.634 241.031 130.302 235.124 C 130.448 233.838 132.373 232.752 133.479 231.574 C 134.616 232.899 135.88 234.14 136.827 235.589 C 137.209 236.173 136.915 237.214 136.892 238.045 C 136.539 250.633 140.628 261.528 148.296 271.56 C 166.89 295.886 205.978 294.318 221.097 263.111 C 223.399 258.36 226.157 253.179 226.268 248.143 C 226.57 234.439 223.654 233.74 239.064 230.663 C 239.381 230.6 239.726 230.669 240.245 231.031 C 240.623 233.186 241.004 234.989 240.974 236.785 C 240.691 254.226 239.96 271.669 240.118 289.105 C 240.265 305.344 241.414 321.573 241.965 337.811 C 242.175 343.986 241.046 344.838 235.39 341.993 C 229.03 338.795 223.655 339.423 217.76 343.319 C 212.651 346.695 207.879 351.456 200.728 350.527 C 199.624 350.383 198.304 351.905 197.083 352.657 C 198.186 353.863 199.081 355.596 200.447 356.136 C 202.043 356.767 204.054 356.444 205.879 356.383 C 216.265 356.036 226.656 355.113 236.852 358.343 C 239.358 359.137 240.981 359.829 241.044 362.84 C 241.253 372.792 241.766 382.737 241.972 392.689 C 242.131 400.343 241.986 408.003 242.018 415.661 C 242.025 417.429 242.206 419.197 242.302 420.874 C 244.681 421.289 246.511 421.609 248.341 421.928 C 248.267 422.544 248.194 423.161 248.12 423.777 C 239.056 422.899 229.992 422.021 220.929 421.142 C 228.51 424.87 236.339 427.851 244.321 430.344 C 247.939 431.474 250.028 432.876 250.069 437.08 C 250.246 455.521 250.67 473.959 251.004 492.398 C 237.65 492.398 224.295 492.398 210.473 492.398 C 209.418 491.733 208.94 490.683 208.223 490.48 C 206.448 489.977 204.563 489.861 202.084 489.214 C 199.468 487.411 197.255 486.214 195.561 484.503 C 192.417 481.328 189.514 477.905 186.619 474.493 C 171.863 457.101 160.95 438.06 159.901 414.477 C 159.543 406.44 158.089 398.451 157.136 390.44 Z" transform="matrix(1, 0, 0, 1, -2.842170943040401e-14, 0)"/>
  <path fill="#EAA779" opacity="1.000000" stroke="none" d="M 251.473 492.398 C 250.67 473.959 250.246 455.521 250.069 437.08 C 250.028 432.876 247.939 431.474 244.321 430.344 C 236.339 427.851 228.51 424.87 220.929 421.142 C 229.992 422.021 239.056 422.899 248.12 423.777 C 248.194 423.161 248.267 422.544 248.341 421.928 C 246.511 421.609 244.681 421.289 242.302 420.874 C 242.206 419.197 242.025 417.429 242.018 415.661 C 241.986 408.003 242.131 400.343 241.972 392.689 C 241.766 382.737 241.253 372.792 241.044 362.84 C 240.981 359.829 239.358 359.137 236.852 358.343 C 226.656 355.113 216.265 356.036 205.879 356.383 C 204.054 356.444 202.043 356.767 200.447 356.136 C 199.081 355.596 198.186 353.863 197.083 352.657 C 198.304 351.905 199.624 350.383 200.728 350.527 C 207.879 351.456 212.651 346.695 217.76 343.319 C 223.655 339.423 229.03 338.795 235.39 341.993 C 241.046 344.838 242.175 343.986 241.965 337.811 C 241.414 321.573 240.265 305.344 240.118 289.105 C 239.96 271.669 240.691 254.226 240.974 236.785 C 241.004 234.989 240.623 233.186 240.64 230.982 C 243.905 230.897 246.961 231.215 250.169 231.836 C 251.215 236.939 252.512 241.705 252.912 246.546 C 253.555 254.314 252.619 262.33 254.14 269.881 C 256.322 280.713 259.901 291.289 263.291 301.844 C 265.457 308.588 265.393 309.212 258.555 310.498 C 252.675 311.604 247.854 317.133 248.648 321.618 C 250.554 322.031 253.331 321.817 254.046 322.93 C 257.167 327.78 262.969 323.915 266.359 327.205 C 266.903 326.47 267.521 325.778 267.976 324.991 C 269.647 322.106 271.25 318.401 273.049 316.548 C 275.693 313.824 277.032 310.958 276.781 308.127 C 275.914 298.32 285.376 293.995 287.838 286.053 C 288.001 285.53 289.949 285.56 291.501 285.356 C 293.263 285.458 294.61 285.421 295.917 285.632 C 310.511 287.987 323.241 283.788 333.864 273.898 C 344.62 263.886 349.335 251.064 349.468 236.367 C 352.233 235.613 354.651 234.809 357.128 234.277 C 357.679 234.158 358.436 235 359.358 235.721 C 359.769 241.47 359.92 246.898 360.1 252.677 C 360.775 253.954 361.261 255.068 362.093 255.773 C 366.794 259.756 369.497 267.719 366.093 272.506 C 362.659 277.335 362.131 282.411 361.391 287.732 C 360.303 295.547 359.181 303.358 357.772 311.404 C 356.686 313.427 355.622 315.148 355.166 317.018 C 353.165 325.205 351.484 333.473 349.41 341.641 C 347.381 349.632 345.015 357.537 342.479 365.551 C 341.775 365.922 341.302 366.154 341.017 366.529 C 334.622 374.941 328.115 383.273 321.935 391.84 C 319.57 395.12 317.543 398.789 316.135 402.568 C 314.912 405.85 314.401 409.527 314.296 413.05 C 314.223 415.476 315.347 417.947 315.998 420.381 C 316.52 422.333 317.668 424.282 317.589 426.193 C 317.458 429.392 316.339 432.538 316.045 435.745 C 315.235 444.565 314.674 453.407 313.91 462.231 C 313.816 463.322 312.911 464.321 312.685 465.424 C 311.399 471.683 310.205 477.96 308.981 484.231 C 301.34 485.953 293.701 487.687 286.057 489.393 C 282.502 490.186 278.935 490.926 275.689 492.044 C 267.983 492.398 259.962 492.398 251.473 492.398 M 274.017 344.904 C 273.274 344.531 272.506 344.201 271.791 343.78 C 263.131 338.67 254.695 336.473 245.533 343.343 C 242.819 345.377 241.723 346.944 242.027 349.974 C 242.317 352.869 242.538 355.77 242.857 359.458 C 246.065 359.246 249.462 359.079 252.848 358.786 C 259.335 358.225 265.819 357.63 272.297 356.978 C 278.478 356.356 284.674 355.791 290.8 354.804 C 291.669 354.663 292.47 352.322 292.681 350.907 C 292.748 350.456 290.673 349.031 289.802 349.201 C 284.064 350.321 279.445 347.603 274.017 344.904 Z" transform="matrix(1, 0, 0, 1, -2.842170943040401e-14, 0)"/>
  <path fill="#C1CCCC" opacity="1.000000" stroke="none" d="M 342.099 396.295 C 346.603 399.345 351.543 401.915 355.527 405.536 C 366.999 415.962 370.689 429.718 373.471 444.635 C 375.605 456.081 370.06 459.964 362.012 463.387 C 346.672 469.911 331.188 476.097 315.493 482.048 C 322.782 469.1 330.446 456.588 337.814 443.903 C 339.347 441.264 340.588 437.98 340.559 435.007 C 340.497 428.717 338.841 422.409 339.082 416.156 C 339.339 409.507 341.033 402.913 342.099 396.295 Z" transform="matrix(1, 0, 0, 1, -2.842170943040401e-14, 0)"/>
  <path fill="#DE905A" opacity="1.000000" stroke="none" d="M 358.074 311.171 C 359.181 303.358 360.303 295.547 361.391 287.732 C 362.131 282.411 362.659 277.335 366.093 272.506 C 369.497 267.719 366.794 259.756 362.093 255.773 C 361.261 255.068 360.775 253.954 360.405 252.788 C 361.118 252.061 361.896 251.603 361.94 251.084 C 362.366 246.015 362.352 240.889 363.108 235.876 C 363.728 231.768 363.096 226.35 367.947 224.587 C 373.509 222.565 375.001 218.064 377.284 213.356 C 381.466 213.244 385.272 213.296 389.079 213.348 C 389.079 213.348 389.015 213.383 389.018 213.661 C 389.377 214.081 389.732 214.223 390.088 214.365 C 390.088 214.365 390.018 214.387 389.921 214.737 C 393.727 222.941 393.236 231.332 392.87 239.719 C 392.782 241.736 392.933 243.764 392.974 245.787 C 393.1 246.06 393.139 246.345 392.626 246.959 C 391.543 249.09 390.781 250.869 390.336 252.724 C 388.815 259.079 387.405 265.461 385.952 271.832 C 385.952 271.832 386.05 271.963 385.668 272.26 C 385.175 273.316 385.063 274.074 384.952 274.832 C 385.096 275.095 385.142 275.373 384.699 276.058 C 384.19 276.908 384.073 277.366 383.957 277.825 C 384.097 278.09 384.142 278.37 383.699 279.057 C 383.19 279.908 383.073 280.366 382.957 280.825 C 382.957 280.825 383.056 280.962 382.674 281.263 C 382.179 282.32 382.066 283.076 381.952 283.832 C 381.952 283.832 382.049 283.962 381.678 284.205 C 381.19 284.908 381.073 285.366 380.957 285.825 C 380.957 285.825 381.045 285.95 380.607 286.101 C 379.43 288.446 378.691 290.639 377.952 292.833 C 377.952 292.833 378.045 292.958 377.691 293.142 C 377.239 293.71 377.142 294.094 377.044 294.478 C 377.044 294.478 377.025 294.411 376.713 294.474 C 376.286 295.181 376.172 295.826 376.057 296.471 C 376.057 296.471 376.021 296.411 375.711 296.47 C 375.253 296.961 375.105 297.392 374.958 297.824 C 374.958 297.824 375.052 297.957 374.694 298.141 C 374.239 298.71 374.142 299.094 374.044 299.478 C 374.044 299.478 374.02 299.412 373.742 299.413 C 373.321 299.77 373.178 300.126 373.036 300.482 C 373.036 300.482 373.024 300.413 372.713 300.477 C 372.287 301.184 372.172 301.828 372.057 302.471 C 372.057 302.471 372.017 302.409 371.74 302.412 C 371.321 302.77 371.178 303.126 371.036 303.482 C 371.036 303.482 371.02 303.412 370.691 303.348 C 369.925 304.015 369.487 304.747 369.05 305.478 C 369.05 305.478 369.019 305.414 368.741 305.414 C 368.321 305.77 368.178 306.126 368.036 306.482 C 368.036 306.482 368.021 306.414 367.742 306.414 C 367.321 306.77 367.178 307.126 367.036 307.482 C 367.036 307.482 367.021 307.414 366.742 307.414 C 366.321 307.77 366.178 308.126 366.036 308.482 C 366.036 308.482 366.018 308.414 365.734 308.384 C 365.187 308.675 364.925 308.996 364.662 309.318 C 364.662 309.318 364.563 309.443 364.135 309.417 C 363.361 309.699 363.015 310.009 362.669 310.318 C 362.669 310.318 362.566 310.446 362.137 310.418 C 361.361 310.699 361.015 311.009 360.669 311.318 C 360.669 311.318 360.567 311.441 360.117 311.285 C 359.136 311.144 358.605 311.157 358.074 311.171 Z" transform="matrix(1, 0, 0, 1, -2.842170943040401e-14, 0)"/>
  <path fill="#DF905B" opacity="1.000000" stroke="none" d="M 342.079 395.866 C 341.033 402.913 339.339 409.507 339.082 416.156 C 338.841 422.409 340.497 428.717 340.559 435.007 C 340.588 437.98 339.347 441.264 337.814 443.903 C 330.446 456.588 322.782 469.1 315.103 481.987 C 313.221 482.919 311.46 483.538 309.339 484.194 C 310.205 477.96 311.399 471.683 312.685 465.424 C 312.911 464.321 313.816 463.322 313.91 462.231 C 314.674 453.407 315.235 444.565 316.045 435.745 C 316.339 432.538 317.458 429.392 317.589 426.193 C 317.668 424.282 316.52 422.333 315.998 420.381 C 315.347 417.947 314.223 415.476 314.296 413.05 C 314.401 409.527 314.912 405.85 316.135 402.568 C 317.543 398.789 319.57 395.12 321.935 391.84 C 328.115 383.273 334.622 374.941 341.017 366.529 C 341.302 366.154 341.775 365.922 342.522 365.996 C 342.626 374.06 342.369 381.753 342.112 389.445 C 342.094 391.443 342.077 393.44 342.079 395.866 Z" transform="matrix(1, 0, 0, 1, -2.842170943040401e-14, 0)"/>
  <path fill="#CDD2D1" opacity="1.000000" stroke="none" d="M 362.985 77.419 C 368.622 82.215 372.115 88.26 374.089 95.39 C 376.297 103.364 379.307 111.132 381.196 119.171 C 382.262 123.709 381.758 128.614 381.992 133.352 C 382.317 139.907 382.746 146.459 382.995 153.018 C 383.37 162.905 383.44 172.808 383.995 182.684 C 384.449 190.765 380.067 197.365 377.741 205.062 C 377.503 205.461 377.17 205.466 377.129 205.054 C 378.612 197.799 380.688 191.024 381.52 184.099 C 382.543 175.585 382.936 166.942 382.842 158.364 C 382.752 150.219 381.532 142.094 381.081 133.945 C 380.365 121.032 378.771 108.362 372.728 96.648 C 369.43 90.256 366.252 83.801 363.017 77.39 C 363.013 77.405 362.985 77.419 362.985 77.419 Z" transform="matrix(1, 0, 0, 1, -2.842170943040401e-14, 0)"/>
  <path fill="#EED6C6" opacity="1.000000" stroke="none" d="M 342.464 389.246 C 342.369 381.753 342.626 374.06 342.84 365.923 C 345.015 357.537 347.381 349.632 349.41 341.641 C 351.484 333.473 353.165 325.205 355.166 317.018 C 355.622 315.148 356.686 313.427 357.772 311.404 C 358.605 311.157 359.136 311.144 360.054 311.237 C 354.872 316.885 356.337 324.687 354.093 331.306 C 350.959 340.556 348.07 349.916 345.675 359.38 C 344.449 364.22 344.487 369.386 344.024 374.411 C 343.575 379.285 343.216 384.168 342.464 389.246 Z" transform="matrix(1, 0, 0, 1, -2.842170943040401e-14, 0)"/>
  <path fill="#CDD2D1" opacity="1.000000" stroke="none" d="M 290.974 22.442 C 298.709 24.976 306.829 26.719 314.081 30.246 C 323.018 34.592 331.233 40.424 339.895 46.337 C 340.011 47.866 339.992 48.673 339.629 49.408 C 332.448 43.436 325.268 38.182 316.813 34.621 C 308.039 30.925 299.582 26.48 291.003 22.386 C 291.019 22.408 290.974 22.442 290.974 22.442 Z" transform="matrix(1, 0, 0, 1, -2.842170943040401e-14, 0)"/>
  <path fill="#D0D4D2" opacity="1.000000" stroke="none" d="M 339.974 49.479 C 339.992 48.673 340.011 47.866 340.043 46.657 C 345.508 52.257 351.269 58.015 356.288 64.359 C 359.147 67.973 360.795 72.546 362.987 77.053 C 362.985 77.419 363.013 77.405 362.706 77.255 C 355.116 68.117 349.772 57.511 340.182 50.436 C 339.985 50.291 340.038 49.806 339.974 49.479 Z" transform="matrix(1, 0, 0, 1, -2.842170943040401e-14, 0)"/>
  <path fill="#EED6C6" opacity="1.000000" stroke="none" d="M 393.332 245.507 C 392.933 243.764 392.782 241.736 392.87 239.719 C 393.236 231.332 393.727 222.941 389.94 214.705 C 391.042 215.91 392.395 217.377 392.954 219.102 C 395.747 227.71 394.658 236.481 393.332 245.507 Z" transform="matrix(1, 0, 0, 1, -2.842170943040401e-14, 0)"/>
  <path fill="#EED6C6" opacity="1.000000" stroke="none" d="M 377.17 205.466 C 377.17 205.466 377.503 205.461 377.67 205.461 C 377.943 207.227 378.05 208.992 378.101 209.83 C 381.91 210.83 385.347 211.733 388.932 212.992 C 385.272 213.296 381.466 213.244 376.961 213.404 C 375.328 213.722 374.394 213.829 373.871 213.888 C 375.059 210.856 376.114 208.161 377.17 205.466 Z" transform="matrix(1, 0, 0, 1, -2.842170943040401e-14, 0)"/>
  <path fill="#EED6C6" opacity="1.000000" stroke="none" d="M 386.269 271.58 C 387.405 265.461 388.815 259.079 390.336 252.724 C 390.781 250.869 391.543 249.09 392.542 247.16 C 390.811 255.139 388.698 263.233 386.269 271.58 Z" transform="matrix(1, 0, 0, 1, -2.842170943040401e-14, 0)"/>
  <path fill="#EED6C6" opacity="1.000000" stroke="none" d="M 378.261 292.595 C 378.691 290.639 379.43 288.446 380.546 286.148 C 380.139 288.148 379.355 290.252 378.261 292.595 Z" transform="matrix(1, 0, 0, 1, -2.842170943040401e-14, 0)"/>
  <path fill="#EED6C6" opacity="1.000000" stroke="none" d="M 369.402 305.444 C 369.487 304.747 369.925 304.015 370.724 303.364 C 370.641 304.099 370.197 304.754 369.402 305.444 Z" transform="matrix(1, 0, 0, 1, -2.842170943040401e-14, 0)"/>
  <path fill="#EED6C6" opacity="1.000000" stroke="none" d="M 382.261 283.586 C 382.066 283.076 382.179 282.32 382.608 281.315 C 382.806 281.824 382.688 282.582 382.261 283.586 Z" transform="matrix(1, 0, 0, 1, -2.842170943040401e-14, 0)"/>
  <path fill="#EED6C6" opacity="1.000000" stroke="none" d="M 385.261 274.586 C 385.063 274.074 385.175 273.316 385.605 272.312 C 385.806 272.824 385.688 273.582 385.261 274.586 Z" transform="matrix(1, 0, 0, 1, -2.842170943040401e-14, 0)"/>
  <path fill="#EED6C6" opacity="1.000000" stroke="none" d="M 376.36 296.363 C 376.172 295.826 376.286 295.181 376.747 294.475 C 376.95 295.028 376.806 295.642 376.36 296.363 Z" transform="matrix(1, 0, 0, 1, -2.842170943040401e-14, 0)"/>
  <path fill="#EED6C6" opacity="1.000000" stroke="none" d="M 372.36 302.363 C 372.172 301.828 372.287 301.184 372.748 300.477 C 372.95 301.028 372.807 301.641 372.36 302.363 Z" transform="matrix(1, 0, 0, 1, -2.842170943040401e-14, 0)"/>
  <path fill="#EED6C6" opacity="1.000000" stroke="none" d="M 390.019 214.102 C 389.732 214.223 389.377 214.081 389.028 213.626 C 389.34 213.488 389.645 213.663 390.019 214.102 Z" transform="matrix(1, 0, 0, 1, -2.842170943040401e-14, 0)"/>
  <path fill="#EED6C6" opacity="1.000000" stroke="none" d="M 383.241 280.6 C 383.073 280.366 383.19 279.908 383.615 279.256 C 383.791 279.501 383.658 279.938 383.241 280.6 Z" transform="matrix(1, 0, 0, 1, -2.842170943040401e-14, 0)"/>
  <path fill="#EED6C6" opacity="1.000000" stroke="none" d="M 384.241 277.6 C 384.073 277.366 384.19 276.908 384.615 276.256 C 384.791 276.501 384.658 276.938 384.241 277.6 Z" transform="matrix(1, 0, 0, 1, -2.842170943040401e-14, 0)"/>
  <path fill="#EED6C6" opacity="1.000000" stroke="none" d="M 361.033 311.336 C 361.015 311.009 361.361 310.699 362.07 310.37 C 362.088 310.685 361.742 311.02 361.033 311.336 Z" transform="matrix(1, 0, 0, 1, -2.842170943040401e-14, 0)"/>
  <path fill="#EED6C6" opacity="1.000000" stroke="none" d="M 363.033 310.336 C 363.015 310.009 363.361 309.699 364.07 309.37 C 364.088 309.685 363.742 310.02 363.033 310.336 Z" transform="matrix(1, 0, 0, 1, -2.842170943040401e-14, 0)"/>
  <path fill="#EED6C6" opacity="1.000000" stroke="none" d="M 364.986 309.341 C 364.925 308.996 365.187 308.675 365.767 308.396 C 365.826 308.747 365.568 309.056 364.986 309.341 Z" transform="matrix(1, 0, 0, 1, -2.842170943040401e-14, 0)"/>
  <path fill="#EED6C6" opacity="1.000000" stroke="none" d="M 366.3 308.412 C 366.178 308.126 366.321 307.77 366.776 307.422 C 366.914 307.734 366.739 308.038 366.3 308.412 Z" transform="matrix(1, 0, 0, 1, -2.842170943040401e-14, 0)"/>
  <path fill="#EED6C6" opacity="1.000000" stroke="none" d="M 367.3 307.412 C 367.178 307.126 367.321 306.77 367.776 306.422 C 367.914 306.734 367.739 307.038 367.3 307.412 Z" transform="matrix(1, 0, 0, 1, -2.842170943040401e-14, 0)"/>
  <path fill="#EED6C6" opacity="1.000000" stroke="none" d="M 368.3 306.412 C 368.178 306.126 368.321 305.77 368.776 305.422 C 368.914 305.734 368.739 306.038 368.3 306.412 Z" transform="matrix(1, 0, 0, 1, -2.842170943040401e-14, 0)"/>
  <path fill="#EED6C6" opacity="1.000000" stroke="none" d="M 371.3 303.412 C 371.178 303.126 371.321 302.77 371.776 302.422 C 371.914 302.734 371.739 303.038 371.3 303.412 Z" transform="matrix(1, 0, 0, 1, -2.842170943040401e-14, 0)"/>
  <path fill="#EED6C6" opacity="1.000000" stroke="none" d="M 373.3 300.412 C 373.178 300.126 373.321 299.77 373.776 299.422 C 373.914 299.734 373.739 300.038 373.3 300.412 Z" transform="matrix(1, 0, 0, 1, -2.842170943040401e-14, 0)"/>
  <path fill="#EED6C6" opacity="1.000000" stroke="none" d="M 374.347 299.372 C 374.142 299.094 374.239 298.71 374.63 298.192 C 374.833 298.46 374.741 298.862 374.347 299.372 Z" transform="matrix(1, 0, 0, 1, -2.842170943040401e-14, 0)"/>
  <path fill="#EED6C6" opacity="1.000000" stroke="none" d="M 375.202 297.628 C 375.105 297.392 375.253 296.961 375.746 296.472 C 375.876 296.754 375.661 297.093 375.202 297.628 Z" transform="matrix(1, 0, 0, 1, -2.842170943040401e-14, 0)"/>
  <path fill="#EED6C6" opacity="1.000000" stroke="none" d="M 377.347 294.372 C 377.142 294.094 377.239 293.71 377.63 293.192 C 377.833 293.46 377.741 293.862 377.347 294.372 Z" transform="matrix(1, 0, 0, 1, -2.842170943040401e-14, 0)"/>
  <path fill="#EED6C6" opacity="1.000000" stroke="none" d="M 381.241 285.6 C 381.073 285.366 381.19 284.908 381.615 284.256 C 381.791 284.501 381.658 284.938 381.241 285.6 Z" transform="matrix(1, 0, 0, 1, -2.842170943040401e-14, 0)"/>
  <path fill="#C1CCCC" opacity="1.000000" stroke="none" d="M 157.055 390.866 C 158.089 398.451 159.543 406.44 159.901 414.477 C 160.95 438.06 171.863 457.101 186.619 474.493 C 189.514 477.905 192.417 481.328 195.561 484.503 C 197.255 486.214 199.468 487.411 201.7 489.053 C 194.305 487.982 186.452 487.402 179.056 485.252 C 167.361 481.852 155.891 477.614 144.487 473.304 C 138.425 471.013 132.701 467.826 125.754 464.537 C 132.236 461.178 131.034 455.924 130.983 451.081 C 130.858 439.068 132.129 427.305 138.299 416.725 C 141.91 410.535 145.549 404.049 152.701 401.109 C 157.5 399.137 157.116 395.24 157.055 390.866 Z" transform="matrix(1, 0, 0, 1, -2.842170943040401e-14, 0)"/>
  <path fill="#CDD2D1" opacity="1.000000" stroke="none" d="M 105.972 135.32 C 106.648 118.713 109.993 102.517 117.243 87.697 C 123.201 75.519 130.957 64.137 141.617 55.175 C 145.67 51.768 149.429 48.011 153.693 44.431 C 154.064 44.45 154.03 44.411 153.962 44.748 C 148.822 50.114 143.594 54.997 138.709 60.201 C 125.498 74.275 115.407 90.177 111.899 109.475 C 109.869 120.644 107.762 131.909 107.207 143.205 C 106.699 153.552 108.23 163.998 108.687 174.4 C 108.512 174.399 108.161 174.398 108.161 174.398 C 107.447 170.377 106.733 166.357 105.999 161.433 C 105.977 152.126 105.974 143.723 105.972 135.32 Z" transform="matrix(1, 0, 0, 1, -2.842170943040401e-14, 0)"/>
  <path fill="#CDD2D1" opacity="1.000000" stroke="none" d="M 108.076 174.813 C 108.161 174.398 108.512 174.399 108.878 174.755 C 109.965 179.474 110.508 183.876 111.443 188.193 C 113.559 197.972 115.937 207.695 118.009 217.483 C 118.254 218.637 117.255 220.055 116.832 221.35 C 116.561 219.884 116.289 218.418 115.973 216.652 C 114.61 210.582 113.117 204.844 112.016 199.032 C 110.518 191.127 109.319 183.166 108.076 174.813 Z" transform="matrix(1, 0, 0, 1, -2.842170943040401e-14, 0)"/>
  <path fill="#E3DED9" opacity="1.000000" stroke="none" d="M 105.583 135.53 C 105.974 143.723 105.977 152.126 105.976 161.002 C 105.649 158.666 105.098 155.86 105.052 153.045 C 104.956 147.279 105.132 141.508 105.583 135.53 Z" transform="matrix(1, 0, 0, 1, -2.842170943040401e-14, 0)"/>
  <path fill="#847C77" opacity="1.000000" stroke="none" d="M 116.853 221.723 C 117.255 220.055 118.254 218.637 118.009 217.483 C 115.937 207.695 113.559 197.972 111.443 188.193 C 110.508 183.876 109.965 179.474 109.053 174.756 C 108.23 163.998 106.699 153.552 107.207 143.205 C 107.762 131.909 109.869 120.644 111.899 109.475 C 115.407 90.177 125.498 74.275 138.709 60.201 C 143.594 54.997 148.822 50.114 153.938 44.737 C 156.363 43.173 159.313 42.485 161.017 40.644 C 166.875 34.314 174.134 30.718 181.778 26.931 C 192.025 21.855 202.707 18.941 213.655 17.233 C 230.277 14.639 247.056 12.232 263.907 16.182 C 270.628 17.757 277.43 18.99 284.592 20.417 C 286.743 21.089 288.498 21.723 290.619 22.36 C 299.582 26.48 308.039 30.925 316.813 34.621 C 325.268 38.182 332.448 43.436 339.629 49.408 C 340.038 49.806 339.985 50.291 340.182 50.436 C 349.772 57.511 355.116 68.117 362.71 77.24 C 366.252 83.801 369.43 90.256 372.728 96.648 C 378.771 108.362 380.365 121.032 381.081 133.945 C 381.532 142.094 382.752 150.219 382.842 158.364 C 382.936 166.942 382.543 175.585 381.52 184.099 C 380.688 191.024 378.612 197.799 377.129 205.054 C 376.114 208.161 375.059 210.856 373.871 213.888 C 374.394 213.829 375.328 213.722 376.585 213.568 C 375.001 218.064 373.509 222.565 367.947 224.587 C 363.096 226.35 363.728 231.768 363.108 235.876 C 362.352 240.889 362.366 246.015 361.94 251.084 C 361.896 251.603 361.118 252.061 360.376 252.437 C 359.92 246.898 359.769 241.47 359.325 235.285 C 358.466 232.266 358.507 229.429 357.11 227.952 C 356.241 227.033 352.114 227.435 351.358 228.545 C 349.903 230.68 349.803 233.738 349.142 236.414 C 349.335 251.064 344.62 263.886 333.864 273.898 C 323.241 283.788 310.511 287.987 295.917 285.632 C 294.61 285.421 293.263 285.458 291.255 285.097 C 277.109 280.593 266.868 272.872 261.976 259.049 C 260.682 255.393 258.646 251.999 256.757 248.082 C 261.194 240.004 259.362 231.866 250.018 231.533 C 246.961 231.215 243.905 230.897 240.453 230.628 C 239.726 230.669 239.381 230.6 239.064 230.663 C 223.654 233.74 226.57 234.439 226.268 248.143 C 226.157 253.179 223.399 258.36 221.097 263.111 C 205.978 294.318 166.89 295.886 148.296 271.56 C 140.628 261.528 136.539 250.633 136.892 238.045 C 136.915 237.214 137.209 236.173 136.827 235.589 C 135.88 234.14 134.616 232.899 133.479 231.574 C 132.373 232.752 130.448 233.838 130.302 235.124 C 129.634 241.031 129.464 246.994 129.112 252.936 C 129.011 254.64 128.901 256.343 128.795 258.046 C 128.329 258.056 127.862 258.066 127.396 258.076 C 126.867 252.844 126.331 247.614 125.812 242.381 C 125.503 239.254 125.27 236.119 124.916 232.998 C 124.482 229.168 123.042 226.045 119.118 224.482 C 118.199 224.116 117.613 222.914 116.853 221.723 M 343.997 141.403 C 343.997 141.403 344.017 141.405 343.937 140.714 C 339.44 133.539 332.152 130.029 324.519 125.816 C 316.665 124.01 308.895 121.358 300.941 120.572 C 283.992 118.898 268.166 123.983 252.747 130.484 C 249.005 132.061 245.357 134.435 240.339 132.259 C 228.358 127.968 216.431 123.516 204.365 119.479 C 200.528 118.195 197.312 117.037 196.264 112.567 C 195.784 110.517 194.348 108.691 192.738 105.597 C 191.79 110.105 191.157 113.112 190.428 116.576 C 185.296 115.991 180.347 115.696 175.504 114.817 C 165.595 113.017 156.07 112.019 149.776 122.356 C 149.608 122.632 149.338 122.864 149.073 123.061 C 142.648 127.838 139.911 134.31 140.007 142.219 C 140.144 153.419 140.278 164.623 140.119 175.821 C 140.044 181.071 142.525 186.375 138.562 191.595 C 132.782 199.21 129.843 208.002 131.271 217.739 C 131.597 219.964 132.601 223.724 133.713 223.885 C 136.727 224.321 141.061 224.318 142.912 222.498 C 148.495 217.007 154.707 212.928 162.767 210.267 C 170.995 209.644 179.214 208.82 187.454 208.452 C 196.849 208.032 205.277 211.23 213.662 216.608 C 216.41 220.049 219.464 223.298 221.797 227 C 223.342 229.451 224.735 229.883 227.352 229.176 C 231.881 227.952 236.515 227.116 241.869 226.218 C 247.188 226.752 252.5 227.392 257.831 227.755 C 259.421 227.863 261.656 227.759 262.579 226.787 C 266.278 222.891 269.577 218.617 273.621 214.139 C 277.425 208.962 283.347 208.043 288.92 207.558 C 298.908 206.69 308.977 206.743 319.009 206.39 C 319.009 206.39 318.989 206.391 319.309 206.885 C 319.865 207.012 320.421 207.139 321.653 207.589 C 328.895 209.624 335.22 213.213 340.677 218.433 C 341.763 219.472 343.511 219.818 345.564 221.025 C 348.042 221.135 350.585 221.623 352.973 221.214 C 354.421 220.967 356.442 219.569 356.821 218.28 C 360.731 204.972 356.314 194.074 346.836 184.585 C 345.327 183.074 344.196 180.485 344.128 178.354 C 343.807 168.39 343.919 158.411 343.957 147.612 C 343.995 146.229 344.033 144.846 344.496 143.132 C 344.33 142.549 344.164 141.966 343.997 141.403 M 275.425 217.714 C 273.932 218.987 272.219 220.076 270.98 221.561 C 262.468 231.757 261.349 243.378 264.939 255.69 C 268.568 268.135 276.414 276.608 289.771 280.638 C 297.149 281.072 304.751 282.86 311.864 281.686 C 332.751 278.24 345.734 258.871 345.076 239.507 C 344.685 227.984 338.631 218.513 328.023 213.909 C 316.658 208.977 304.854 208.522 293.043 211.094 C 287.198 212.366 281.719 215.323 275.425 217.714 M 189.453 284.394 C 198.662 283.073 206.297 278.941 212.234 271.721 C 219.816 262.501 223.263 252.158 222.119 240.063 C 221.142 229.736 216.449 221.676 207.581 217.184 C 191.542 209.059 174.684 209.269 157.857 215.146 C 146.471 219.123 139.31 230.653 140.058 242.117 C 140.726 252.35 144.282 261.383 150.166 269.665 C 157.845 280.474 176.137 287.565 189.453 284.394 Z" transform="matrix(1, 0, 0, 1, -2.842170943040401e-14, 0)"/>
  <path fill="#DE8F59" opacity="1.000000" stroke="none" d="M 250.169 231.836 C 259.362 231.866 261.194 240.004 256.757 248.082 C 258.646 251.999 260.682 255.393 261.976 259.049 C 266.868 272.872 277.109 280.593 290.821 285.073 C 289.949 285.56 288.001 285.53 287.838 286.053 C 285.376 293.995 275.914 298.32 276.781 308.127 C 277.032 310.958 275.693 313.824 273.049 316.548 C 271.25 318.401 269.647 322.106 267.976 324.991 C 267.521 325.778 266.903 326.47 266.359 327.205 C 262.969 323.915 257.167 327.78 254.046 322.93 C 253.331 321.817 250.554 322.031 248.648 321.618 C 247.854 317.133 252.675 311.604 258.555 310.498 C 265.393 309.212 265.457 308.588 263.291 301.844 C 259.901 291.289 256.322 280.713 254.14 269.881 C 252.619 262.33 253.555 254.314 252.912 246.546 C 252.512 241.705 251.215 236.939 250.169 231.836 Z" transform="matrix(1, 0, 0, 1, -2.842170943040401e-14, 0)"/>
  <path fill="#DE8F59" opacity="1.000000" stroke="none" d="M 274.352 345.076 C 279.445 347.603 284.064 350.321 289.802 349.201 C 290.673 349.031 292.748 350.456 292.681 350.907 C 292.47 352.322 291.669 354.663 290.8 354.804 C 284.674 355.791 278.478 356.356 272.297 356.978 C 265.819 357.63 259.335 358.225 252.848 358.786 C 249.462 359.079 246.065 359.246 242.857 359.458 C 242.538 355.77 242.317 352.869 242.027 349.974 C 241.723 346.944 242.819 345.377 245.533 343.343 C 254.695 336.473 263.131 338.67 271.791 343.78 C 272.506 344.201 273.274 344.531 274.352 345.076 Z" transform="matrix(1, 0, 0, 1, -2.842170943040401e-14, 0)"/>
  <path fill="#DE8F59" opacity="1.000000" stroke="none" d="M 349.468 236.367 C 349.803 233.738 349.903 230.68 351.358 228.545 C 352.114 227.435 356.241 227.033 357.11 227.952 C 358.507 229.429 358.466 232.266 359.066 234.964 C 358.436 235 357.679 234.158 357.128 234.277 C 354.651 234.809 352.233 235.613 349.468 236.367 Z" transform="matrix(1, 0, 0, 1, -2.842170943040401e-14, 0)"/>
  <path fill="#F8CFB6" opacity="1.000000" stroke="none" d="M 161.964 210.252 C 154.707 212.928 148.495 217.007 142.912 222.498 C 141.061 224.318 136.727 224.321 133.713 223.885 C 132.601 223.724 131.597 219.964 131.271 217.739 C 129.843 208.002 132.782 199.21 138.562 191.595 C 142.525 186.375 140.044 181.071 140.119 175.821 C 140.278 164.623 140.144 153.419 140.007 142.219 C 139.911 134.31 142.648 127.838 149.073 123.061 C 149.338 122.864 149.608 122.632 149.776 122.356 C 156.07 112.019 165.595 113.017 175.504 114.817 C 180.347 115.696 185.296 115.991 190.428 116.576 C 191.157 113.112 191.79 110.105 192.738 105.597 C 194.348 108.691 195.784 110.517 196.264 112.567 C 197.312 117.037 200.528 118.195 204.365 119.479 C 216.431 123.516 228.358 127.968 240.848 132.757 C 241.907 138.337 242.94 143.422 242.915 148.502 C 242.841 163.111 242.264 177.718 242.034 192.328 C 241.887 201.647 242.057 210.97 241.965 220.291 C 241.946 222.235 241.405 224.175 241.104 226.117 C 236.515 227.116 231.881 227.952 227.352 229.176 C 224.735 229.883 223.342 229.451 221.797 227 C 219.464 223.298 216.41 220.049 213.507 216.132 C 213.956 214.887 214.494 214.053 215.176 213.36 C 219.624 208.841 219.051 205.57 212.952 203.976 C 204.678 201.812 196.287 200.022 187.868 198.508 C 176.673 196.495 168.771 202.297 161.964 210.252 Z" transform="matrix(1, 0, 0, 1, -2.842170943040401e-14, 0)"/>
  <path fill="#EAA779" opacity="1.000000" stroke="none" d="M 241.487 226.167 C 241.405 224.175 241.946 222.235 241.965 220.291 C 242.057 210.97 241.887 201.647 242.034 192.328 C 242.264 177.718 242.841 163.111 242.915 148.502 C 242.94 143.422 241.907 138.337 241.172 132.901 C 245.357 134.435 249.005 132.061 252.747 130.484 C 268.166 123.983 283.992 118.898 300.941 120.572 C 308.895 121.358 316.665 124.01 324.668 126.367 C 325.161 128.123 325.12 129.931 325.911 130.437 C 331.854 134.237 337.961 137.781 344.017 141.405 C 344.017 141.405 343.997 141.403 343.991 141.74 C 344.014 142.539 344.043 143.001 344.072 143.463 C 344.033 144.846 343.995 146.229 343.676 148.352 C 342.936 155.862 342.265 162.626 342.072 169.403 C 341.822 178.185 340.238 187.105 346.693 194.984 C 348.392 197.058 348.823 202.28 347.388 204.398 C 343.816 209.669 345.188 215.07 344.953 220.483 C 343.511 219.818 341.763 219.472 340.677 218.433 C 335.22 213.213 328.895 209.624 321.122 207.223 C 320.057 206.701 319.523 206.546 318.989 206.391 C 318.989 206.391 319.009 206.39 318.967 206.048 C 314.311 199.258 307.064 198.001 300.469 199.043 C 291.292 200.493 282.423 203.979 273.493 206.816 C 271.815 207.349 270.469 208.925 268.267 210.533 C 270.293 212.215 271.658 213.349 273.024 214.482 C 269.577 218.617 266.278 222.891 262.579 226.787 C 261.656 227.759 259.421 227.863 257.831 227.755 C 252.5 227.392 247.188 226.752 241.487 226.167 Z" transform="matrix(1, 0, 0, 1, -2.842170943040401e-14, 0)"/>
  <path fill="#F6CFB7" opacity="1.000000" stroke="none" d="M 189.02 284.417 C 176.137 287.565 157.845 280.474 150.166 269.665 C 144.282 261.383 140.726 252.35 140.058 242.117 C 139.31 230.653 146.471 219.123 157.857 215.146 C 174.684 209.269 191.542 209.059 207.581 217.184 C 216.449 221.676 221.142 229.736 222.119 240.063 C 223.263 252.158 219.816 262.501 212.234 271.721 C 206.297 278.941 198.662 283.073 189.02 284.417 M 201.43 228.094 C 206.222 229.242 209.96 231.432 211.117 236.788 C 211.317 237.714 213.126 238.292 214.191 239.031 C 214.628 237.566 215.814 235.761 215.337 234.712 C 214.504 232.878 212.739 231.412 211.199 229.969 C 209.039 227.945 206.832 225.94 204.447 224.197 C 202.554 222.812 200.114 220.551 198.353 220.897 C 191.304 222.282 184.126 223.849 177.595 226.714 C 173.512 228.505 170.5 232.734 166.834 236.025 C 172.221 239.923 173.998 234.853 177.061 233.777 C 178.004 233.446 179.1 233.55 180.046 234.239 C 179.934 239.715 182.716 243.528 187.547 245.401 C 192.195 247.203 196.702 246.247 200.118 242.275 C 203.658 238.158 203.875 233.952 201.43 228.094 Z" transform="matrix(1, 0, 0, 1, -2.842170943040401e-14, 0)"/>
  <path fill="#EAA778" opacity="1.000000" stroke="none" d="M 276.074 217.518 C 281.719 215.323 287.198 212.366 293.043 211.094 C 304.854 208.522 316.658 208.977 328.023 213.909 C 338.631 218.513 344.685 227.984 345.076 239.507 C 345.734 258.871 332.751 278.24 311.864 281.686 C 304.751 282.86 297.149 281.072 289.628 280.207 C 289.529 277.804 288.96 275.54 289.735 273.916 C 291.764 269.665 294.273 265.628 296.786 261.628 C 300.348 255.957 307.581 251.779 304.164 243.012 C 304.926 241.266 305.53 239.815 306.36 238.113 C 308.928 232.902 311.181 236.732 313.544 237.864 C 314.567 238.354 315.787 238.432 316.918 238.697 C 316.894 237.509 317.318 236.03 316.769 235.182 C 314.009 230.922 310.518 227.556 304.997 227.392 C 305.005 227.392 305.01 227.411 304.944 227.067 C 300.138 223.262 295.751 219.647 288.933 222.039 C 284.04 223.755 279.102 222.604 276.074 217.518 Z" transform="matrix(1, 0, 0, 1, -2.842170943040401e-14, 0)"/>
  <path fill="#DE8F59" opacity="1.000000" stroke="none" d="M 275.75 217.616 C 279.102 222.604 284.04 223.755 288.933 222.039 C 295.751 219.647 300.138 223.262 304.599 226.918 C 301.952 226.406 299.612 225.59 297.214 225.009 C 286.202 222.34 283.471 228.814 284.619 238.214 C 285.638 246.567 297.214 249.492 304.005 243.307 C 307.581 251.779 300.348 255.957 296.786 261.628 C 294.273 265.628 291.764 269.665 289.735 273.916 C 288.96 275.54 289.529 277.804 289.28 280.024 C 276.414 276.608 268.568 268.135 264.939 255.69 C 261.349 243.378 262.468 231.757 270.98 221.561 C 272.219 220.076 273.932 218.987 275.75 217.616 Z" transform="matrix(1, 0, 0, 1, -2.842170943040401e-14, 0)"/>
  <path fill="#EAA779" opacity="1.000000" stroke="none" d="M 162.365 210.259 C 168.771 202.297 176.673 196.495 187.868 198.508 C 196.287 200.022 204.678 201.812 212.952 203.976 C 219.051 205.57 219.624 208.841 215.176 213.36 C 214.494 214.053 213.956 214.887 213.216 215.959 C 205.277 211.23 196.849 208.032 187.454 208.452 C 179.214 208.82 170.995 209.644 162.365 210.259 Z" transform="matrix(1, 0, 0, 1, -2.842170943040401e-14, 0)"/>
  <path fill="#DE8F59" opacity="1.000000" stroke="none" d="M 345.259 220.754 C 345.188 215.07 343.816 209.669 347.388 204.398 C 348.823 202.28 348.392 197.058 346.693 194.984 C 340.238 187.105 341.822 178.185 342.072 169.403 C 342.265 162.626 342.936 155.862 343.636 148.765 C 343.919 158.411 343.807 168.39 344.128 178.354 C 344.196 180.485 345.327 183.074 346.836 184.585 C 356.314 194.074 360.731 204.972 356.821 218.28 C 356.442 219.569 354.421 220.967 352.973 221.214 C 350.585 221.623 348.042 221.135 345.259 220.754 Z" transform="matrix(1, 0, 0, 1, -2.842170943040401e-14, 0)"/>
  <path fill="#DE8F59" opacity="1.000000" stroke="none" d="M 273.322 214.311 C 271.658 213.349 270.293 212.215 268.267 210.533 C 270.469 208.925 271.815 207.349 273.493 206.816 C 282.423 203.979 291.292 200.493 300.469 199.043 C 307.064 198.001 314.311 199.258 318.969 206.058 C 308.977 206.743 298.908 206.69 288.92 207.558 C 283.347 208.043 277.425 208.962 273.322 214.311 Z" transform="matrix(1, 0, 0, 1, -2.842170943040401e-14, 0)"/>
  <path fill="#DE8F59" opacity="1.000000" stroke="none" d="M 343.977 141.06 C 337.961 137.781 331.854 134.237 325.911 130.437 C 325.12 129.931 325.161 128.123 324.919 126.615 C 332.152 130.029 339.44 133.539 343.977 141.06 Z" transform="matrix(1, 0, 0, 1, -2.842170943040401e-14, 0)"/>
  <path fill="#DE8F59" opacity="1.000000" stroke="none" d="M 344.284 143.297 C 344.043 143.001 344.014 142.539 343.991 141.73 C 344.164 141.966 344.33 142.549 344.284 143.297 Z" transform="matrix(1, 0, 0, 1, -2.842170943040401e-14, 0)"/>
  <path fill="#DE8F59" opacity="1.000000" stroke="none" d="M 319.149 206.638 C 319.523 206.546 320.057 206.701 320.784 207.061 C 320.421 207.139 319.865 207.012 319.149 206.638 Z" transform="matrix(1, 0, 0, 1, -2.842170943040401e-14, 0)"/>
  <path fill="#847C77" opacity="1.000000" stroke="none" d="M 201.023 228.497 C 203.875 233.952 203.658 238.158 200.118 242.275 C 196.702 246.247 192.195 247.203 187.547 245.401 C 182.716 243.528 179.934 239.715 180.338 233.598 C 182.374 230.507 183.627 226.751 185.962 225.873 C 191.077 223.949 196.642 224.006 201.023 228.497 Z" transform="matrix(1, 0, 0, 1, -2.842170943040401e-14, 0)"/>
  <path fill="#EAA779" opacity="1.000000" stroke="none" d="M 201.227 228.295 C 196.642 224.006 191.077 223.949 185.962 225.873 C 183.627 226.751 182.374 230.507 180.378 233.206 C 179.1 233.55 178.004 233.446 177.061 233.777 C 173.998 234.853 172.221 239.923 166.834 236.025 C 170.5 232.734 173.512 228.505 177.595 226.714 C 184.126 223.849 191.304 222.282 198.353 220.897 C 200.114 220.551 202.554 222.812 204.447 224.197 C 206.832 225.94 209.039 227.945 211.199 229.969 C 212.739 231.412 214.504 232.878 215.337 234.712 C 215.814 235.761 214.628 237.566 214.191 239.031 C 213.126 238.292 211.317 237.714 211.117 236.788 C 209.96 231.432 206.222 229.242 201.227 228.295 Z" transform="matrix(1, 0, 0, 1, -2.842170943040401e-14, 0)"/>
  <path fill="#847C77" opacity="1.000000" stroke="none" d="M 304.164 243.012 C 297.214 249.492 285.638 246.567 284.619 238.214 C 283.471 228.814 286.202 222.34 297.214 225.009 C 299.612 225.59 301.952 226.406 304.664 227.262 C 305.01 227.411 305.005 227.392 305.192 227.683 C 305.63 231.437 305.882 234.9 306.133 238.364 C 305.53 239.815 304.926 241.266 304.164 243.012 Z" transform="matrix(1, 0, 0, 1, -2.842170943040401e-14, 0)"/>
  <path fill="#DE8F59" opacity="1.000000" stroke="none" d="M 306.36 238.113 C 305.882 234.9 305.63 231.437 305.183 227.683 C 310.518 227.556 314.009 230.922 316.769 235.182 C 317.318 236.03 316.894 237.509 316.918 238.697 C 315.787 238.432 314.567 238.354 313.544 237.864 C 311.181 236.732 308.928 232.902 306.36 238.113 Z" transform="matrix(1, 0, 0, 1, -2.842170943040401e-14, 0)"/>
</svg>