<?xml version="1.0" encoding="utf-8"?>
<svg viewBox="68.266 0 363.468 500" xmlns="http://www.w3.org/2000/svg">
  <g transform="matrix(0.6632570028305054, 0, 0, 0.6587440371513367, 76.7010040283202, 37.42747116088867)" style="">
    <path fill="#f8d0b7" d="M 171.538 382.522 L 168.138 362.022 C 167.538 359.022 166.138 356.022 165.138 353.022 L 151.438 310.522 C 150.838 308.722 149.538 306.122 148.038 305.622 C 134.538 301.122 127.738 291.022 123.138 278.322 C 117.389 261.553 113.63 244.167 111.938 226.522 C 111.238 220.822 111.338 215.022 111.938 209.322 C 112.538 202.122 114.638 200.622 121.738 200.622 C 123.738 200.622 125.638 200.622 128.038 200.922 C 128.838 202.722 129.038 204.222 129.438 206.122 C 130.238 207.422 130.838 208.622 131.838 209.122 C 135.838 210.722 137.438 213.922 137.838 217.922 L 138.838 227.722 L 140.438 244.122 L 141.938 244.122 L 142.238 238.822 C 142.638 232.622 142.738 226.322 143.438 220.222 C 143.638 218.822 145.638 217.722 146.838 216.422 C 148.038 217.822 149.338 219.122 150.338 220.622 C 150.738 221.222 150.338 222.322 150.338 223.222 C 150.048 235.944 154.303 248.353 162.338 258.222 C 182.866 284.931 224.457 280.115 238.338 249.422 C 240.838 244.422 243.638 239.022 243.838 233.822 C 244.138 219.422 241.038 218.822 257.138 215.522 C 257.538 215.522 257.838 215.522 258.438 215.922 C 258.838 218.122 259.238 220.022 259.138 221.922 L 258.238 276.622 C 258.438 293.622 259.638 310.622 260.238 327.522 C 260.438 334.022 259.238 334.822 253.338 331.922 C 246.738 328.522 241.038 329.222 234.938 333.322 C 229.538 336.822 224.538 341.822 217.138 340.822 C 215.938 340.622 214.538 342.222 213.338 343.022 C 214.438 344.322 215.338 346.022 216.838 346.722 C 218.438 347.322 220.538 347.022 222.538 346.922 C 233.338 346.522 244.238 345.622 254.838 348.922 C 257.438 349.822 259.138 350.522 259.238 353.722 L 260.238 384.922 L 260.238 408.922 L 260.538 414.322 L 266.838 415.422 L 266.638 417.422 L 238.238 414.622 C 246.238 418.622 254.238 421.622 262.638 424.222 C 266.438 425.422 268.638 426.922 268.638 431.222 L 269.638 489.122 L 227.338 489.122 C 226.138 488.422 225.638 487.322 224.938 487.122 C 223.038 486.622 221.138 486.422 218.538 485.822 C 215.738 483.822 213.538 482.622 211.738 480.822 C 208.438 477.522 205.338 473.922 202.338 470.422 C 186.938 452.222 175.538 432.322 174.338 407.622 C 174.038 399.222 172.538 390.922 171.538 382.622 L 171.538 382.522 Z"/>
    <path fill="#eaa779" d="M 270.138 489.122 C 269.312 469.865 268.812 450.595 268.638 431.322 C 268.638 426.922 266.438 425.422 262.638 424.322 C 254.338 421.622 246.138 418.522 238.238 414.622 L 266.638 417.422 L 266.838 415.422 L 260.538 414.422 L 260.238 408.922 L 260.238 384.922 L 259.238 353.722 C 259.238 350.522 257.438 349.822 254.838 349.022 C 244.238 345.622 233.338 346.622 222.438 347.022 C 220.538 347.022 218.438 347.322 216.838 346.722 C 215.338 346.122 214.438 344.322 213.338 343.022 C 214.538 342.222 215.938 340.622 217.138 340.822 C 224.538 341.822 229.538 336.822 234.938 333.322 C 241.038 329.222 246.638 328.522 253.338 331.922 C 259.338 334.922 260.338 333.922 260.238 327.522 L 258.238 276.522 C 258.138 258.422 258.838 240.122 259.238 221.922 C 259.238 220.022 258.838 218.122 258.838 215.922 C 262.238 215.722 265.438 216.122 268.838 216.722 C 269.838 222.122 271.238 227.022 271.638 232.122 C 272.338 240.222 271.338 248.622 272.938 256.522 C 275.238 267.822 278.938 278.922 282.538 289.922 C 284.738 296.922 284.738 297.622 277.538 298.922 C 271.438 300.122 266.338 305.922 267.238 310.622 C 269.238 311.022 272.138 310.822 272.838 311.922 C 276.138 317.022 282.138 312.922 285.738 316.422 L 287.438 314.122 C 289.138 311.122 290.838 307.222 292.738 305.322 C 295.438 302.422 296.838 299.422 296.638 296.522 C 295.638 286.222 305.638 281.722 308.138 273.422 C 308.338 272.922 310.338 272.922 312.038 272.722 C 313.838 272.722 315.238 272.722 316.638 273.022 C 331.838 275.422 345.138 271.022 356.238 260.722 C 367.048 250.594 373.016 236.33 372.638 221.522 C 375.438 220.722 378.038 219.822 380.638 219.322 C 381.138 219.122 381.938 220.022 382.938 220.822 C 383.338 226.822 383.538 232.522 383.738 238.522 C 384.438 239.822 384.938 241.022 385.738 241.722 C 390.738 245.922 393.538 254.222 389.938 259.222 C 386.338 264.222 385.838 269.622 385.038 275.222 L 381.238 299.922 C 380.138 302.022 379.038 303.922 378.538 305.822 L 372.538 331.522 C 370.438 339.922 367.938 348.122 365.238 356.522 C 364.538 356.922 364.038 357.122 363.738 357.522 L 343.838 384.122 C 341.353 387.574 339.335 391.34 337.838 395.322 C 336.581 398.856 335.906 402.571 335.838 406.322 C 335.838 408.822 337.038 411.322 337.738 413.922 C 338.238 415.922 339.438 418.022 339.338 420.022 C 339.238 423.322 338.038 426.622 337.738 430.022 L 335.538 457.722 C 335.438 458.822 334.538 459.922 334.238 461.022 L 330.338 480.722 L 306.338 486.122 C 302.638 486.922 298.938 487.722 295.538 488.822 C 287.538 489.222 279.138 489.222 270.238 489.222 M 293.838 334.922 C 293.038 334.522 292.238 334.222 291.538 333.722 C 282.438 328.422 273.538 326.122 264.038 333.322 C 261.238 335.422 260.038 337.122 260.338 340.322 L 261.238 350.122 L 271.638 349.422 L 292.038 347.522 C 298.438 346.922 305.038 346.322 311.338 345.322 C 312.338 345.122 313.138 342.722 313.338 341.222 C 313.338 340.722 311.238 339.222 310.338 339.422 C 304.338 340.622 299.538 337.722 293.838 334.922 L 293.838 334.922 Z"/>
    <path fill="#c1cccc" d="M 364.838 388.622 C 369.638 391.822 374.838 394.622 378.838 398.322 C 390.838 409.222 394.838 423.622 397.638 439.222 C 399.938 451.222 394.138 455.222 385.638 458.822 C 369.638 465.622 353.438 472.122 337.038 478.322 C 344.738 464.722 352.738 451.722 360.438 438.422 C 362.038 435.622 363.338 432.222 363.238 429.122 C 363.238 422.522 361.438 415.922 361.738 409.422 C 362.038 402.422 363.738 395.622 364.838 388.622 Z"/>
    <path fill="#de905a" d="M 381.538 299.722 L 385.038 275.122 C 385.838 269.622 386.338 264.322 390.038 259.222 C 393.538 254.222 390.738 245.922 385.738 241.722 C 384.916 240.89 384.329 239.855 384.038 238.722 C 384.738 237.922 385.538 237.422 385.638 236.822 C 386.038 231.522 386.038 226.222 386.838 220.922 C 387.538 216.622 386.838 210.922 391.838 209.122 C 397.738 207.122 399.238 202.322 401.638 197.422 C 406.538 194.622 409.638 194.922 413.338 197.322 C 413.338 197.322 414.538 198.322 414.838 198.822 C 418.838 207.422 418.338 216.222 417.938 225.022 C 417.938 227.022 415.738 236.622 415.338 238.622 L 410.738 258.622 L 407.638 267.922 L 405.538 273.222 L 401.438 282.222 L 399.238 285.722 C 399.238 285.722 397.338 288.122 397.238 288.522 C 397.238 288.522 395.238 291.222 395.138 291.622 C 395.138 291.622 393.538 292.922 393.138 293.722 C 393.138 293.722 392.138 294.422 392.038 294.722 C 392.038 294.722 391.038 295.422 391.038 295.822 C 391.038 295.822 390.038 296.522 389.938 296.822 C 389.938 296.822 388.738 297.422 388.438 297.822 C 388.438 297.822 386.738 298.422 386.438 298.822 C 386.438 298.822 384.638 299.522 384.338 299.822 C 384.338 299.822 382.138 299.622 381.538 299.722 L 381.538 299.722 Z"/>
    <path fill="#df905b" d="M 364.838 388.122 C 363.838 395.622 362.038 402.422 361.738 409.422 C 361.438 415.922 363.238 422.522 363.238 429.122 C 363.238 432.222 362.038 435.622 360.438 438.422 L 336.638 478.222 C 334.638 479.222 332.838 479.822 330.638 480.522 C 331.638 474.022 332.838 467.522 334.138 460.922 C 334.338 459.822 335.338 458.722 335.438 457.622 L 337.638 429.922 C 337.938 426.522 339.138 423.222 339.238 419.922 C 339.338 417.922 338.238 415.922 337.638 413.922 C 336.938 411.322 335.738 408.722 335.838 406.222 C 335.938 402.522 336.438 398.622 337.838 395.222 C 339.238 391.222 341.338 387.422 343.838 384.022 C 350.238 375.022 357.038 366.322 363.838 357.522 C 364.038 357.122 364.538 356.922 365.338 357.022 C 365.438 365.422 365.138 373.422 364.938 381.522 L 364.938 388.222 L 364.838 388.122 Z"/>
    <path fill="#c1cccc" d="M 171.438 383.022 C 172.438 390.922 174.038 399.222 174.438 407.622 C 175.438 432.322 186.938 452.222 202.438 470.422 C 205.438 473.922 208.438 477.522 211.738 480.822 C 213.438 482.622 215.738 483.822 218.138 485.622 C 210.438 484.522 202.138 483.922 194.438 481.622 C 182.246 477.928 170.204 473.758 158.338 469.122 C 151.938 466.722 146.038 463.422 138.738 460.022 C 145.538 456.522 144.238 451.022 144.238 446.022 C 143.41 433.551 146.04 421.093 151.838 410.022 C 155.638 403.522 159.438 396.722 166.838 393.722 C 171.838 391.722 171.538 387.522 171.438 383.022 L 171.438 383.022 Z"/>
    <path d="M 129.438 206.122 C 129.838 204.422 130.838 202.922 130.638 201.722 L 123.738 171.122 C 122.738 166.622 122.238 162.022 121.238 157.122 C 120.438 145.822 118.838 134.922 119.338 124.122 C 119.938 112.322 122.138 100.522 124.338 88.822 C 128.415 69.279 138.152 51.368 152.338 37.322 C 157.338 31.922 162.838 26.822 168.238 21.122 C 170.738 19.522 173.838 18.822 175.638 16.922 C 181.638 10.222 189.338 6.522 197.338 2.522 C 208.038 -2.778 219.138 -5.778 230.638 -7.578 C 248.038 -10.278 265.538 -12.878 283.138 -8.678 C 290.138 -7.078 297.238 -5.678 304.738 -4.278 L 311.038 -2.278 C 320.438 2.022 329.238 6.722 338.438 10.622 C 347.129 14.532 355.185 19.723 362.338 26.022 C 362.738 26.422 362.638 27.022 362.838 27.022 C 372.838 34.522 378.538 45.622 386.438 55.122 C 390.138 62.022 393.438 68.722 396.938 75.422 C 403.238 87.622 404.938 100.922 405.638 114.422 C 406.138 122.922 407.338 131.422 407.438 139.922 C 407.538 148.922 407.138 157.922 406.138 166.922 C 405.138 174.122 403.138 181.122 401.538 188.722 L 398.138 198.022 L 400.938 197.622 C 399.238 202.322 397.738 207.022 391.938 209.122 C 386.838 211.022 387.538 216.622 386.938 220.922 C 386.038 226.222 386.038 231.522 385.638 236.922 C 385.638 237.422 384.738 237.922 384.038 238.322 C 383.538 232.522 383.338 226.822 382.938 220.322 C 381.938 217.222 382.038 214.222 380.538 212.722 C 379.638 211.722 375.338 212.122 374.538 213.322 C 373.038 215.522 372.938 218.722 372.238 221.522 C 372.932 236.306 367.079 250.645 356.238 260.722 C 345.808 270.992 331.051 275.575 316.638 273.022 C 315.238 272.722 313.838 272.822 311.738 272.422 C 296.938 267.722 286.238 259.622 281.138 245.222 C 279.738 241.322 277.638 237.822 275.638 233.722 C 280.338 225.322 278.438 216.722 268.638 216.422 L 258.638 215.422 L 257.138 215.422 C 241.138 218.722 244.138 219.422 243.838 233.822 C 243.638 239.022 240.838 244.422 238.438 249.422 C 224.584 280.22 182.855 285.046 162.338 258.222 C 154.303 248.353 150.048 235.944 150.338 223.222 C 150.338 222.322 150.738 221.222 150.338 220.622 C 149.338 219.122 148.038 217.822 146.838 216.422 C 145.638 217.722 143.638 218.822 143.438 220.222 C 142.738 226.322 142.638 232.622 142.238 238.822 L 141.938 244.122 L 140.438 244.122 L 138.738 227.722 L 137.838 217.922 C 137.438 213.922 135.838 210.722 131.838 209.022 C 130.838 208.622 130.238 207.422 129.438 206.122 M 366.838 122.122 L 366.838 121.522 C 362.138 114.022 354.438 110.322 346.538 105.922 C 338.338 104.022 330.138 101.222 321.838 100.422 C 304.138 98.722 287.638 104.022 271.438 110.822 C 267.538 112.422 263.738 114.922 258.438 112.622 L 220.938 99.322 C 216.938 97.922 213.538 96.722 212.438 92.022 C 211.938 89.922 210.438 88.022 208.738 84.822 L 206.338 96.222 C 200.938 95.622 195.838 95.322 190.738 94.422 C 180.338 92.522 170.438 91.422 163.838 102.322 L 163.138 103.022 C 156.76 107.625 153.176 115.169 153.638 123.022 L 153.738 158.222 C 153.738 163.722 156.238 169.222 152.138 174.722 C 146.138 182.722 143.038 191.822 144.538 202.022 C 144.838 204.322 145.838 208.222 147.038 208.422 C 150.238 208.922 154.738 208.922 156.638 207.022 C 162.538 201.222 169.038 197.022 177.438 194.222 C 186.038 193.522 194.638 192.722 203.238 192.222 C 213.038 191.822 221.838 195.222 230.638 200.822 C 233.538 204.422 236.638 207.822 239.138 211.722 C 240.738 214.222 242.138 214.722 244.938 213.922 C 249.638 212.722 254.538 211.822 260.138 210.922 L 276.838 212.522 C 278.438 212.522 280.838 212.522 281.838 211.522 C 285.638 207.422 289.038 202.922 293.338 198.222 C 297.338 192.822 303.438 191.822 309.338 191.322 C 319.738 190.422 330.338 190.522 340.738 190.122 L 341.038 190.622 L 343.538 191.422 C 351.009 193.472 357.85 197.356 363.438 202.722 C 364.438 203.722 366.438 204.222 368.438 205.422 C 371.138 205.522 373.738 206.022 376.238 205.622 C 377.738 205.422 379.838 203.922 380.238 202.622 C 384.338 188.622 379.738 177.222 369.838 167.322 C 368.188 165.54 367.199 163.245 367.038 160.822 C 366.638 150.422 366.738 140.022 366.838 128.722 C 366.838 127.222 366.838 125.722 367.438 124.022 L 366.838 122.222 M 295.138 202.022 C 293.638 203.322 291.838 204.422 290.538 206.022 C 281.638 216.622 280.538 228.822 284.238 241.722 C 287.492 254.494 297.465 264.468 310.238 267.722 C 317.938 268.222 325.838 270.122 333.238 268.822 C 354.173 264.861 369.007 246.106 368.038 224.822 C 367.538 212.722 361.238 202.822 350.138 198.022 C 338.604 193.148 325.813 192.096 313.638 195.022 C 307.538 196.422 301.738 199.522 295.138 202.022 M 205.338 271.722 C 214.695 270.539 223.227 265.771 229.138 258.422 C 237.037 249.347 240.772 237.378 239.438 225.422 C 238.438 214.522 233.438 206.122 224.238 201.422 C 207.975 193.425 189.093 192.662 172.238 199.322 C 160.492 203.584 152.933 215.046 153.638 227.522 C 154.367 237.933 158.044 247.922 164.238 256.322 C 174.161 268.427 189.8 274.301 205.238 271.722 L 205.338 271.722 Z"/>
    <path fill="#de8f59" d="M 268.838 216.722 C 278.438 216.722 280.338 225.322 275.638 233.722 C 277.638 237.822 279.738 241.322 281.138 245.222 C 286.238 259.622 296.938 267.722 311.238 272.422 C 310.338 272.922 308.338 272.822 308.238 273.422 C 305.638 281.722 295.738 286.222 296.638 296.422 C 296.838 299.422 295.438 302.422 292.638 305.322 C 290.838 307.322 289.138 311.122 287.438 314.122 L 285.738 316.422 C 282.138 313.022 276.138 317.022 272.838 311.922 C 272.138 310.822 269.238 311.022 267.238 310.622 C 266.338 305.922 271.438 300.122 277.538 298.922 C 284.738 297.622 284.738 296.922 282.538 289.922 C 278.938 278.922 275.238 267.922 272.938 256.522 C 271.338 248.522 272.338 240.222 271.638 232.122 C 271.238 227.122 269.838 222.122 268.738 216.722 L 268.838 216.722 Z M 293.938 335.122 C 299.338 337.722 304.138 340.622 310.138 339.422 C 311.038 339.222 313.138 340.722 313.138 341.222 C 312.938 342.722 312.138 345.222 311.138 345.222 C 304.738 346.322 298.238 346.922 291.838 347.522 L 271.438 349.522 L 261.038 350.122 L 260.138 340.222 C 259.838 337.022 261.038 335.422 263.838 333.222 C 273.438 326.122 282.238 328.422 291.338 333.722 C 292.038 334.222 292.838 334.522 293.938 335.122 L 293.938 335.122 Z M 372.538 221.522 C 372.838 218.722 372.938 215.522 374.538 213.322 C 375.238 212.122 379.538 211.722 380.538 212.722 C 381.938 214.222 381.938 217.222 382.538 220.022 C 381.838 220.022 381.038 219.122 380.538 219.322 C 377.938 219.822 375.338 220.722 372.538 221.522 L 372.538 221.522 Z"/>
    <path fill="#f8cfb6" d="M 176.538 194.122 C 169.038 197.022 162.538 201.222 156.638 207.022 C 154.638 208.922 150.238 208.922 147.038 208.422 C 145.838 208.222 144.838 204.422 144.538 202.022 C 143.184 192.262 145.936 182.378 152.138 174.722 C 156.238 169.222 153.638 163.722 153.738 158.222 C 153.938 146.522 153.738 134.722 153.638 123.022 C 153.176 115.169 156.76 107.625 163.138 103.022 L 163.838 102.322 C 170.438 91.522 180.338 92.522 190.738 94.322 C 195.738 95.322 200.938 95.622 206.338 96.322 L 208.738 84.822 C 210.438 88.022 211.938 89.922 212.438 92.022 C 213.538 96.722 216.938 98.022 220.938 99.322 C 233.538 103.522 245.938 108.122 259.038 113.122 C 260.138 119.022 261.238 124.322 261.238 129.622 L 260.238 175.422 L 260.238 204.622 C 260.238 206.622 259.638 208.722 259.238 210.722 C 254.538 211.722 249.638 212.722 244.938 213.922 C 242.238 214.722 240.738 214.222 239.138 211.722 C 236.738 207.722 233.538 204.422 230.438 200.322 C 230.938 199.022 231.438 198.122 232.238 197.422 C 236.838 192.722 236.238 189.322 229.838 187.622 C 221.186 185.367 212.445 183.466 203.638 181.922 C 191.938 179.822 183.638 185.922 176.638 194.222 L 176.538 194.122 Z"/>
    <path fill="#eaa779" d="M 259.738 210.822 C 259.638 208.822 260.238 206.722 260.238 204.722 L 260.238 175.422 L 261.238 129.622 C 261.238 124.322 260.238 119.022 259.338 113.322 C 263.738 114.922 267.538 112.422 271.438 110.822 C 287.638 104.022 304.138 98.722 321.838 100.422 C 330.138 101.222 338.338 104.022 346.638 106.422 C 347.138 108.322 347.138 110.222 347.938 110.722 C 354.138 114.722 360.538 118.422 366.938 122.222 L 366.938 124.322 C 366.938 125.822 366.938 127.322 366.538 129.422 C 365.738 137.322 365.038 144.422 364.838 151.422 C 364.638 160.622 362.938 170.022 369.738 178.222 C 371.438 180.422 371.938 185.822 370.438 188.022 C 366.638 193.522 368.138 199.222 367.838 204.922 C 366.338 204.222 364.538 203.822 363.438 202.722 C 357.6 197.261 350.535 193.282 342.838 191.122 C 341.838 190.522 341.138 190.422 340.638 190.222 L 340.638 189.922 C 335.738 182.822 328.138 181.422 321.238 182.522 C 311.638 184.122 302.438 187.722 293.038 190.722 C 291.338 191.222 289.938 192.922 287.638 194.622 L 292.638 198.622 C 288.938 203.022 285.538 207.522 281.638 211.622 C 280.638 212.622 278.338 212.622 276.638 212.622 C 271.138 212.222 265.638 211.622 259.638 210.922 L 259.738 210.822 Z"/>
    <path fill="#f6cfb7" d="M 204.838 271.722 C 189.523 274.235 174.034 268.36 164.238 256.322 C 158.044 247.922 154.367 237.933 153.638 227.522 C 152.938 215.522 160.338 203.522 172.238 199.322 C 189.093 192.662 207.975 193.425 224.238 201.422 C 233.538 206.122 238.438 214.522 239.438 225.422 C 240.711 237.372 236.983 249.317 229.138 258.422 C 223.101 265.876 214.371 270.654 204.838 271.722 M 217.838 212.822 C 222.838 214.022 226.838 216.322 227.938 221.922 C 228.138 222.922 230.038 223.522 231.138 224.222 C 231.638 222.722 232.838 220.822 232.338 219.722 C 231.538 217.822 229.638 216.322 228.038 214.722 C 225.828 212.583 223.49 210.579 221.038 208.722 C 219.038 207.322 216.438 204.922 214.638 205.322 C 207.238 206.722 199.738 208.322 192.938 211.322 C 188.638 213.322 185.538 217.722 181.638 221.122 C 187.338 225.122 189.138 219.922 192.338 218.722 C 193.338 218.422 194.538 218.522 195.438 219.222 C 195.438 225.022 198.238 228.922 203.338 230.922 C 207.946 232.948 213.341 231.589 216.438 227.622 C 220.138 223.322 220.438 218.922 217.838 212.822 L 217.838 212.822 Z"/>
    <path fill="#eaa778" d="M 295.838 201.822 C 301.838 199.522 307.538 196.422 313.638 195.022 C 325.813 192.096 338.604 193.148 350.138 198.022 C 360.925 202.52 367.974 213.035 368.038 224.722 C 369.058 246.043 354.212 264.856 333.238 268.822 C 325.838 270.122 317.938 268.222 310.038 267.322 C 309.938 264.822 309.338 262.422 310.138 260.722 C 312.35 256.313 314.821 252.038 317.538 247.922 C 321.238 241.922 328.838 237.622 325.238 228.422 L 327.538 223.322 C 330.238 217.822 332.538 221.822 335.038 223.022 C 336.038 223.522 337.338 223.622 338.538 223.922 C 338.538 222.722 338.938 221.122 338.438 220.222 C 335.438 215.822 331.838 212.222 326.138 212.122 L 326.138 211.722 C 321.038 207.722 316.438 204.022 309.338 206.522 C 304.238 208.322 299.038 207.122 295.838 201.822 L 295.838 201.822 Z"/>
    <path fill="#de8f59" d="M 295.538 201.922 C 299.038 207.122 304.238 208.322 309.338 206.522 C 316.438 204.022 321.038 207.822 325.638 211.522 C 322.938 211.022 320.438 210.222 317.938 209.522 C 306.438 206.822 303.638 213.522 304.838 223.422 C 305.838 232.122 317.938 235.222 325.038 228.722 C 328.838 237.622 321.238 241.922 317.538 247.922 C 314.821 252.038 312.35 256.313 310.138 260.722 C 309.338 262.422 309.938 264.722 309.638 267.122 C 297.084 264.078 287.282 254.276 284.238 241.722 C 280.438 228.722 281.638 216.722 290.538 206.022 C 291.838 204.422 293.538 203.322 295.538 201.922 L 295.538 201.922 Z"/>
    <path fill="#202020" d="M 177.038 194.122 C 183.738 185.822 192.038 179.822 203.638 181.922 C 212.445 183.466 221.186 185.367 229.838 187.622 C 236.238 189.322 236.838 192.622 232.238 197.422 C 231.538 198.122 230.938 199.022 230.238 200.122 C 222.218 194.886 212.815 192.17 203.238 192.322 C 194.638 192.722 186.038 193.522 177.038 194.222 L 177.038 194.122 Z"/>
    <path fill="#de8f59" d="M 368.238 205.122 C 368.138 199.122 366.638 193.522 370.438 188.122 C 371.938 185.822 371.438 180.422 369.638 178.122 C 362.938 170.022 364.638 160.622 364.838 151.522 C 365.038 144.422 365.838 137.322 366.538 129.922 L 367.038 160.922 C 367.172 163.322 368.166 165.594 369.838 167.322 C 379.838 177.322 384.338 188.622 380.238 202.522 C 379.838 203.922 377.738 205.422 376.238 205.622 C 373.738 206.022 371.138 205.622 368.238 205.122 L 368.238 205.122 Z"/>
    <path fill="#202020" d="M 293.038 198.422 C 291.238 197.422 289.838 196.222 287.738 194.422 C 290.038 192.822 291.438 191.122 293.138 190.622 C 302.538 187.622 311.738 184.022 321.338 182.422 C 328.338 181.422 335.838 182.722 340.738 189.822 C 330.238 190.522 319.738 190.422 309.338 191.322 C 303.438 191.822 297.338 192.822 293.038 198.422 L 293.038 198.422 Z"/>
    <path fill="#de8f59" d="M 366.838 121.822 C 360.538 118.422 354.138 114.722 347.938 110.822 C 347.138 110.222 347.138 108.322 346.938 106.822 C 354.538 110.322 362.138 114.022 366.938 121.822 L 366.838 121.822 Z M 367.138 124.222 C 366.938 123.922 366.938 123.422 366.838 122.522 C 367.038 122.822 367.238 123.422 367.138 124.222 Z M 340.938 190.422 C 341.238 190.322 341.938 190.422 342.638 190.822 C 342.238 190.922 341.638 190.822 340.938 190.422 Z"/>
    <path d="M 217.438 213.222 C 220.438 218.922 220.138 223.322 216.438 227.622 C 213.341 231.589 207.946 232.948 203.338 230.922 C 198.338 228.922 195.338 224.922 195.838 218.622 C 197.838 215.322 199.238 211.422 201.638 210.522 C 207.038 208.522 212.838 208.522 217.438 213.222 L 217.438 213.222 Z"/>
    <path fill="#eaa779" d="M 217.638 213.122 C 212.838 208.522 207.038 208.522 201.638 210.522 C 199.238 211.422 197.938 215.322 195.838 218.222 C 194.538 218.522 193.338 218.422 192.338 218.722 C 189.138 219.922 187.338 225.222 181.638 221.122 C 185.538 217.722 188.638 213.222 192.938 211.422 C 199.738 208.422 207.238 206.722 214.638 205.322 C 216.438 204.922 219.038 207.322 221.038 208.722 C 223.438 210.622 225.838 212.722 228.038 214.722 C 229.638 216.322 231.538 217.822 232.338 219.722 C 232.838 220.822 231.638 222.722 231.138 224.222 C 230.138 223.522 228.138 222.922 227.938 221.922 C 226.738 216.322 222.938 214.022 217.638 213.022 L 217.638 213.122 Z"/>
    <path d="M 325.238 228.422 C 317.938 235.222 305.838 232.122 304.838 223.422 C 303.638 213.622 306.438 206.822 317.938 209.622 C 320.438 210.222 322.938 211.022 325.738 211.922 C 326.138 212.122 326.138 212.122 326.338 212.422 L 327.338 223.522 L 325.238 228.422 L 325.238 228.422 Z"/>
    <path fill="#de8f59" d="M 327.538 223.322 C 327.038 219.922 326.738 216.322 326.338 212.322 C 331.838 212.322 335.538 215.822 338.338 220.322 C 338.938 221.122 338.538 222.622 338.538 223.922 C 337.338 223.622 336.138 223.522 335.038 223.022 C 332.538 221.822 330.238 217.822 327.538 223.322 Z"/>
  </g>
</svg>
