<?xml version="1.0" standalone="no"?>
<!DOCTYPE svg PUBLIC "-//W3C//DTD SVG 20010904//EN"
 "http://www.w3.org/TR/2001/REC-SVG-20010904/DTD/svg10.dtd">
<svg version="1.0" xmlns="http://www.w3.org/2000/svg"
 width="700.000000pt" height="700.000000pt" viewBox="0 0 700.000000 700.000000"
 preserveAspectRatio="xMidYMid meet">
<metadata>
Created by potrace 1.14, written by Peter Selinger 2001-2017
</metadata>
<g transform="translate(0.000000,700.000000) scale(0.100000,-0.100000)"
fill="#000000" stroke="none">
<path d="M3182 6980 c-310 -42 -473 -89 -681 -195 -83 -42 -152 -86 -197 -125
-38 -33 -89 -70 -114 -84 -55 -29 -324 -302 -402 -406 -180 -244 -258 -470
-313 -915 -19 -148 -19 -246 -1 -451 18 -196 33 -283 97 -566 38 -170 48 -227
41 -248 -12 -33 -2 -52 42 -79 20 -13 40 -37 49 -59 8 -20 23 -124 32 -229 14
-139 22 -193 31 -193 15 0 21 42 29 210 6 114 8 127 30 149 l24 25 22 -28 c18
-23 23 -44 25 -106 4 -109 28 -201 79 -305 84 -169 204 -285 356 -344 306
-120 639 9 791 304 71 139 88 198 88 314 0 79 3 103 18 121 20 24 137 61 192
59 19 -1 27 -3 17 -6 -15 -4 -18 -12 -15 -41 3 -21 1 -192 -4 -382 -7 -268 -6
-430 6 -726 19 -464 19 -466 2 -489 -13 -19 -16 -18 -87 10 -119 46 -181 36
-300 -51 -65 -47 -127 -74 -175 -74 -22 0 -49 -6 -60 -14 -19 -15 -19 -15 3
-37 21 -21 29 -22 245 -24 142 -1 238 -6 263 -14 72 -22 96 -33 105 -52 6 -10
13 -203 17 -448 l6 -430 44 -7 c33 -5 43 -11 43 -25 0 -23 3 -23 -170 -4 -184
20 -197 19 -135 -9 28 -13 104 -43 170 -66 66 -24 129 -52 140 -62 19 -17 20
-36 27 -336 4 -174 10 -368 13 -429 l7 -113 101 1 c172 1 263 14 496 68 124
28 227 53 229 56 3 2 11 30 18 62 l13 58 -6 -57 c-6 -64 -1 -68 46 -44 20 11
73 90 190 286 89 149 172 291 183 316 22 52 25 117 8 260 -10 94 -6 155 24
328 11 62 16 154 16 305 l0 216 -24 -30 c-47 -59 -69 -81 -41 -40 16 22 38 51
50 65 27 31 88 235 155 518 27 116 58 229 68 249 11 21 27 96 37 167 11 71 21
124 23 118 2 -6 -4 -59 -12 -117 -9 -58 -16 -112 -16 -120 0 -38 87 3 151 72
133 142 211 325 295 688 49 208 49 212 49 380 0 150 -3 176 -21 219 -33 77
-94 103 -171 71 -19 -8 -44 -15 -54 -15 -18 0 -17 4 5 68 28 78 72 267 86 367
23 168 23 364 1 645 -32 404 -46 459 -179 725 -182 365 -435 645 -707 783
-151 77 -465 221 -500 231 -22 5 -128 29 -235 52 -177 38 -210 42 -365 45
-128 2 -205 -2 -313 -16z m-421 -1410 c13 -43 27 -62 59 -82 39 -25 610 -226
655 -231 l40 -4 -43 -1 -44 -2 9 -32 c10 -42 4 -1288 -7 -1308 -8 -13 -184
-58 -237 -59 -16 -1 -43 26 -101 98 -79 97 -80 100 -61 117 34 31 61 82 54
104 -10 31 -41 46 -155 73 -191 46 -332 70 -383 64 -74 -9 -151 -50 -220 -116
-39 -37 -93 -75 -142 -100 -44 -22 -113 -67 -154 -101 -71 -58 -76 -60 -131
-60 -56 0 -58 1 -70 33 -20 58 -23 157 -6 230 17 73 40 123 92 202 l34 51 -2
385 -3 384 33 67 c18 37 50 82 71 100 20 18 50 50 65 70 16 22 51 49 82 64 50
24 61 26 147 21 50 -3 146 -13 211 -22 94 -13 121 -14 127 -4 4 7 13 42 20 77
l12 65 18 -24 c11 -13 24 -40 30 -59z m1326 -136 c-3 -3 -12 -4 -19 -1 -8 3
-5 6 6 6 11 1 17 -2 13 -5z m250 0 c-3 -3 -12 -4 -19 -1 -8 3 -5 6 6 6 11 1
17 -2 13 -5z m220 -50 c-3 -3 -12 -4 -19 -1 -8 3 -5 6 6 6 11 1 17 -2 13 -5z
m106 -30 c15 -8 27 -17 27 -20 0 -2 -9 0 -20 6 -15 8 -20 8 -20 -2 0 -9 -3 -9
-10 2 -5 8 -24 20 -42 27 l-33 13 35 -6 c19 -4 47 -13 63 -20z m151 -144 l115
-65 0 -70 c0 -38 -4 -92 -9 -120 -5 -33 -6 -12 -3 65 l5 115 -133 80 c-73 44
-135 86 -137 93 -2 7 7 3 21 -10 14 -13 77 -52 141 -88z m93 -397 c-2 -16 -4
-3 -4 27 0 30 2 43 4 28 2 -16 2 -40 0 -55z m-10 -240 c-2 -32 -3 -8 -3 52 0
61 1 87 3 58 2 -29 2 -78 0 -110z m10 -105 c-3 -8 -6 -5 -6 6 -1 11 2 17 5 13
3 -3 4 -12 1 -19z m36 -71 c14 -26 22 -45 16 -42 -10 7 -49 79 -49 91 0 10 3
6 33 -49z m44 -109 c-3 -7 -5 -2 -5 12 0 14 2 19 5 13 2 -7 2 -19 0 -25z m-12
-84 c-9 -14 -20 -44 -25 -67 -7 -36 -8 -38 -9 -12 -1 17 8 47 19 68 11 20 21
45 21 54 1 17 2 17 6 0 3 -10 -3 -29 -12 -43z m-617 -71 c-10 -2 -26 -2 -35 0
-10 3 -2 5 17 5 19 0 27 -2 18 -5z m75 0 c-7 -2 -21 -2 -30 0 -10 3 -4 5 12 5
17 0 24 -2 18 -5z m-1659 -48 c129 -38 194 -72 257 -134 63 -63 92 -127 110
-243 28 -180 -37 -372 -171 -507 -120 -121 -244 -167 -435 -158 -134 6 -206
29 -311 99 -95 63 -145 122 -199 233 -104 213 -105 412 -1 548 64 84 150 133
301 171 93 23 112 25 240 21 93 -3 140 -9 209 -30z m1067 18 c13 -16 12 -17
-3 -4 -17 13 -22 21 -14 21 2 0 10 -8 17 -17z m38 -26 c8 -11 6 -18 -12 -33
-22 -19 -22 -19 -5 2 14 16 15 23 6 32 -7 7 -9 12 -6 12 3 0 11 -6 17 -13z
m1083 -97 c6 0 9 -2 6 -5 -3 -3 -11 -3 -19 0 -11 4 -13 19 -9 63 l5 57 3 -57
c2 -34 8 -58 14 -58z m-111 63 c13 -16 12 -17 -3 -4 -17 13 -22 21 -14 21 2 0
10 -8 17 -17z m-897 -27 c-5 -13 32 -46 66 -59 12 -4 12 -6 -2 -6 -21 -1 -90
58 -82 70 9 14 24 10 18 -5z m-104 1 c0 -2 -10 -12 -22 -23 l-23 -19 19 23
c18 21 26 27 26 19z m300 -57 c-34 -11 -60 -11 -35 0 11 5 29 8 40 8 16 0 15
-2 -5 -8z m119 -10 c21 -10 51 -30 67 -43 16 -13 46 -27 68 -31 53 -10 136
-92 136 -136 0 -25 -4 -30 -22 -29 -17 1 -19 2 -5 6 53 14 -36 135 -110 149
-21 3 -46 13 -55 22 -10 8 -18 11 -18 6 0 -5 -5 -1 -11 9 -12 20 -61 47 -104
58 -24 6 -26 7 -7 8 12 1 40 -8 61 -19z m-469 7 c0 -2 -15 -16 -32 -33 l-33
-29 29 33 c28 30 36 37 36 29z m273 -14 c-7 -2 -19 -2 -25 0 -7 3 -2 5 12 5
14 0 19 -2 13 -5z m-386 -69 c-3 -3 -12 -4 -19 -1 -8 3 -5 6 6 6 11 1 17 -2
13 -5z m-133 -63 c3 -4 -6 -6 -19 -3 -14 2 -25 6 -25 8 0 8 39 4 44 -5z m1596
-43 c0 -10 -9 -9 -35 2 -17 8 -16 8 8 7 15 -1 27 -5 27 -9z m-75 -8 c-11 -5
-27 -9 -35 -9 -9 0 -8 4 5 9 11 5 27 9 35 9 9 0 8 -4 -5 -9z m-610 -20 c17
-11 26 -20 20 -20 -5 1 -19 7 -29 15 -26 20 -53 19 -65 -2 -6 -10 -11 -13 -11
-7 0 15 22 34 40 34 8 0 29 -9 45 -20z m-888 -32 c-3 -8 -6 -5 -6 6 -1 11 2
17 5 13 3 -3 4 -12 1 -19z m10 -60 c-3 -7 -5 -2 -5 12 0 14 2 19 5 13 2 -7 2
-19 0 -25z m1420 -25 c-3 -10 -5 -4 -5 12 0 17 2 24 5 18 2 -7 2 -21 0 -30z
m-647 -34 c0 -59 -6 -73 -73 -159 -61 -79 -67 -86 -67 -78 0 3 27 40 60 83 67
87 75 106 67 170 -2 25 -1 42 4 39 5 -3 9 -28 9 -55z m-763 -136 c-2 -32 -3
-6 -3 57 0 63 1 89 3 58 2 -32 2 -84 0 -115z m1616 -14 c12 -14 5 -7 -15 14
-21 22 -38 47 -38 56 0 9 7 3 16 -14 8 -16 25 -42 37 -56z m56 -99 c0 -8 -6 0
-14 19 -8 18 -15 36 -15 40 1 13 29 -45 29 -59z m-1662 -52 c-2 -13 -4 -5 -4
17 -1 22 1 32 4 23 2 -10 2 -28 0 -40z m603 32 c-6 -11 -13 -20 -16 -20 -2 0
0 9 6 20 6 11 13 20 16 20 2 0 0 -9 -6 -20z m1067 -37 c-3 -10 -5 -4 -5 12 0
17 2 24 5 18 2 -7 2 -21 0 -30z m-457 23 c0 -2 -8 -10 -17 -17 -16 -13 -17
-12 -4 4 13 16 21 21 21 13z m-650 -56 c-11 -22 -23 -40 -25 -40 -3 0 4 18 15
40 11 22 23 40 25 40 3 0 -4 -18 -15 -40z m-553 -22 c-3 -7 -5 -2 -5 12 0 14
2 19 5 13 2 -7 2 -19 0 -25z m1624 -33 c-17 -32 -31 -65 -32 -74 0 -11 -2 -12
-6 -3 -5 13 57 145 65 138 2 -2 -10 -30 -27 -61z m-501 31 c0 -2 -8 -10 -17
-17 -16 -13 -17 -12 -4 4 13 16 21 21 21 13z m-1113 -38 c-3 -8 -6 -5 -6 6 -1
11 2 17 5 13 3 -3 4 -12 1 -19z m10 -40 c-3 -8 -6 -5 -6 6 -1 11 2 17 5 13 3
-3 4 -12 1 -19z m521 -41 c10 -3 5 -5 -10 -6 -31 -1 -31 -1 -21 26 7 16 8 16
11 1 2 -9 11 -19 20 -21z m-511 1 c-3 -8 -6 -5 -6 6 -1 11 2 17 5 13 3 -3 4
-12 1 -19z m596 -15 c-7 -2 -21 -2 -30 0 -10 3 -4 5 12 5 17 0 24 -2 18 -5z
m954 -25 c-3 -7 -5 -2 -5 12 0 14 2 19 5 13 2 -7 2 -19 0 -25z m-874 15 c-7
-2 -19 -2 -25 0 -7 3 -2 5 12 5 14 0 19 -2 13 -5z m124 1 c-3 -3 -12 -4 -19
-1 -8 3 -5 6 6 6 11 1 17 -2 13 -5z m-780 -46 c-3 -8 -6 -5 -6 6 -1 11 2 17 5
13 3 -3 4 -12 1 -19z m488 -16 c-22 -2 -43 -9 -47 -15 -6 -9 -8 -9 -8 1 0 17
38 30 69 23 22 -5 20 -6 -14 -9z m1032 -14 c-3 -7 -5 -2 -5 12 0 14 2 19 5 13
2 -7 2 -19 0 -25z m-10 -75 c-3 -10 -5 -2 -5 17 0 19 2 27 5 18 2 -10 2 -26 0
-35z m-1459 -53 c0 -8 -6 1 -13 20 -7 19 -13 42 -13 50 0 8 6 -1 13 -20 7 -19
13 -42 13 -50z m352 56 c0 -2 -8 -10 -17 -17 -16 -13 -17 -12 -4 4 13 16 21
21 21 13z m-30 -39 c0 -2 -10 -12 -22 -23 l-23 -19 19 23 c18 21 26 27 26 19z
m-67 -92 c-3 -9 -8 -14 -10 -11 -3 3 -2 9 2 15 9 16 15 13 8 -4z m-216 -57
c-3 -8 -6 -5 -6 6 -1 11 2 17 5 13 3 -3 4 -12 1 -19z m183 -105 c-11 -17 -11
-17 -6 0 3 10 7 40 8 65 l2 47 3 -47 c2 -26 -1 -56 -7 -65z m-186 46 c-9 -10
-24 -19 -33 -18 -10 0 -7 4 7 10 13 5 27 19 30 31 3 13 7 17 10 10 2 -7 -4
-22 -14 -33z m-57 -25 c-3 -3 -12 -4 -19 -1 -8 3 -5 6 6 6 11 1 17 -2 13 -5z
m-114 -56 c-18 -18 -36 -44 -42 -58 -7 -17 -10 -20 -10 -8 -1 17 64 98 77 98
3 0 -8 -15 -25 -32z m337 -5 c-13 -24 -64 -82 -54 -63 11 21 56 80 61 80 2 0
-1 -8 -7 -17z m-79 -120 c-34 -67 -42 -72 -76 -57 -16 7 -24 13 -17 14 7 0 21
-4 31 -10 15 -8 23 -1 45 40 32 58 46 68 17 13z m-268 10 c-7 -2 -21 -2 -30 0
-10 3 -4 5 12 5 17 0 24 -2 18 -5z m53 -25 l19 -23 -25 20 c-14 11 -27 21 -29
22 -2 2 0 3 6 3 5 0 18 -10 29 -22z m72 -225 c-16 -2 -40 -2 -55 0 -16 2 -3 4
27 4 30 0 43 -2 28 -4z m202 -73 c79 -38 138 -70 131 -70 -7 0 -62 25 -124 56
-62 31 -128 62 -147 70 -19 7 -28 13 -19 13 8 1 80 -30 159 -69z m264 -76 c20
-8 21 -57 1 -74 -8 -6 -34 -14 -57 -16 l-43 -3 44 9 c48 10 63 24 59 55 -3 17
-13 21 -63 26 l-60 6 52 1 c28 1 58 -1 67 -4z m-126 -101 c-10 -2 -28 -2 -40
0 -13 2 -5 4 17 4 22 1 32 -1 23 -4z m-95 -10 c-13 -2 -33 -2 -45 0 -13 2 -3
4 22 4 25 0 35 -2 23 -4z m-95 -10 c-10 -2 -28 -2 -40 0 -13 2 -5 4 17 4 22 1
32 -1 23 -4z m-115 -10 c-7 -2 -21 -2 -30 0 -10 3 -4 5 12 5 17 0 24 -2 18 -5z
m-110 -10 c-7 -2 -21 -2 -30 0 -10 3 -4 5 12 5 17 0 24 -2 18 -5z m-125 -10
c-10 -2 -26 -2 -35 0 -10 3 -2 5 17 5 19 0 27 -2 18 -5z m999 -800 c-2 -16 -4
-3 -4 27 0 30 2 43 4 28 2 -16 2 -40 0 -55z m20 -375 c-3 -7 -5 -2 -5 12 0 14
2 19 5 13 2 -7 2 -19 0 -25z m-10 -120 c-3 -7 -5 -2 -5 12 0 14 2 19 5 13 2
-7 2 -19 0 -25z m-10 -130 c-3 -7 -5 -2 -5 12 0 14 2 19 5 13 2 -7 2 -19 0
-25z m-50 -260 c-3 -7 -5 -2 -5 12 0 14 2 19 5 13 2 -7 2 -19 0 -25z"/>
<path d="M2675 3940 c-60 -15 -132 -38 -158 -49 -51 -22 -170 -127 -161 -142
10 -17 56 -9 88 16 18 14 39 25 47 25 8 0 25 7 37 16 22 15 22 15 11 -10 -26
-56 15 -142 83 -175 76 -36 150 -22 201 38 57 68 57 161 -1 217 -26 26 -26 26
-2 11 14 -8 42 -20 62 -26 38 -13 80 -54 110 -110 21 -38 35 -40 44 -5 5 21
-1 33 -32 66 -59 61 -183 158 -202 158 -9 -1 -66 -14 -127 -30z"/>
</g>
</svg>
